# Blender 3.4.1
# www.blender.org
mtllib 1x4_steel_beam.mtl
o stellbeam
v -0.000000 0.000000 0.000000
v -0.000000 1.004253 0.000000
v -0.000000 0.000000 -1.000000
v -0.000000 1.004253 -1.000000
v 4.000000 0.000000 0.000000
v 4.000000 1.004253 0.000000
v 4.000000 0.000000 -1.000000
v 4.000000 1.004253 -1.000000
v -0.000000 0.900000 0.000000
v -0.000000 0.900000 -1.000000
v 4.000000 0.900000 -1.000000
v 4.000000 0.900000 0.000000
v -0.000000 0.100000 -1.000000
v 4.000000 0.100000 -1.000000
v 4.000000 0.100000 0.000000
v -0.000000 0.100000 0.000000
v 4.000000 0.100000 -0.400000
v 4.000000 0.900000 -0.400000
v -0.000000 0.900000 -0.400000
v -0.000000 0.100000 -0.400000
v -0.000000 0.100000 -0.600000
v -0.000000 0.900000 -0.600000
v 4.000000 0.900000 -0.600000
v 4.000000 0.100000 -0.600000
vn -0.0000 -0.0000 -1.0000
vn -0.0000 -0.0000 1.0000
vn -0.0000 -1.0000 -0.0000
vn -0.0000 1.0000 -0.0000
vn 1.0000 -0.0000 -0.0000
vn -1.0000 -0.0000 -0.0000
vt 0.125000 0.750000
vt 0.375000 1.000000
vt 0.625000 1.000000
vt 0.875000 0.750000
vt 0.125000 0.500000
vt 0.375000 0.250000
vt 0.875000 0.500000
vt 0.625000 0.250000
vt 0.375000 0.750000
vt 0.625000 0.750000
vt 0.375000 0.500000
vt 0.625000 0.500000
vt 0.500000 1.000000
vt 0.500000 0.250000
vt 0.500000 0.500000
vt 0.500000 0.750000
vt 0.437500 0.250000
vt 0.437500 0.500000
vt 0.437500 0.750000
vt 0.437500 1.000000
vt 0.437500 0.750000
vt 0.500000 0.750000
vt 0.500000 1.000000
vt 0.437500 1.000000
vt 0.437500 0.250000
vt 0.500000 0.250000
vt 0.500000 0.500000
vt 0.437500 0.500000
s 0
usemtl steelbeam
f 10/14/1 4/8/1 8/12/1 11/15/1
f 12/16/2 6/10/2 2/3/2 9/13/2
f 3/5/3 7/11/3 5/9/3 1/1/3
f 8/12/4 4/7/4 2/4/4 6/10/4
f 3/6/1 13/17/1 14/18/1 7/11/1
f 5/9/2 15/19/2 16/20/2 1/2/2
f 17/21/2 18/22/2 19/23/2 20/24/2
f 9/13/3 19/23/3 18/22/3 12/16/3
f 15/19/4 17/21/4 20/24/4 16/20/4
f 21/25/1 22/26/1 23/27/1 24/28/1
f 11/15/3 23/27/3 22/26/3 10/14/3
f 13/17/4 21/25/4 24/28/4 14/18/4
f 18/22/5 23/27/5 11/15/5 8/12/5 6/10/5 12/16/5
f 17/21/5 24/28/5 23/27/5 18/22/5
f 7/11/5 14/18/5 24/28/5 17/21/5 15/19/5 5/9/5
f 22/26/6 19/23/6 9/13/6 2/4/6 4/8/6 10/14/6
f 21/25/6 20/24/6 19/23/6 22/26/6
f 3/6/6 1/2/6 16/20/6 20/24/6 21/25/6 13/17/6
