# Blender 3.4.1
# www.blender.org
mtllib 1x4_Pipes_Big.mtl
o big_pipe
v 1.007626 0.526499 -3.244875
v -5.961696 7.130533 1.877675
v -5.989887 7.130533 1.893952
v -5.989887 7.061095 1.893952
v 2.150000 1.302789 -0.650000
v 2.150000 1.042982 -0.800000
v 3.999928 1.042982 -0.800000
v 0.000014 1.043000 -0.800000
v 3.999928 1.301805 -0.650000
v 0.000030 1.294982 -0.650000
v 3.999928 1.301805 -0.350000
v 0.000030 1.294982 -0.350000
v 3.999928 1.042982 -0.200000
v 0.000014 1.043000 -0.200000
v 3.999928 0.784157 -0.350000
v 0.000030 0.791019 -0.350000
v 3.999928 0.784157 -0.650000
v 0.000030 0.791019 -0.650000
v 2.150000 1.302789 -0.350000
v 2.150000 1.042982 -0.200000
v 2.150000 0.783173 -0.350000
v 2.150000 0.783173 -0.650000
v 1.849999 0.783171 -0.650000
v 1.849999 0.783171 -0.350000
v 1.849999 1.042981 -0.800000
v 1.849999 1.042981 -0.200000
v 1.849999 1.302788 -0.350000
v 1.849999 1.302788 -0.650000
v 2.150000 1.369352 -0.688429
v 2.150000 1.042982 -0.876859
v 2.150000 1.369351 -0.311571
v 2.150000 1.042982 -0.123140
v 2.150000 0.716610 -0.311570
v 2.150000 0.716611 -0.688429
v 1.850000 0.716609 -0.688429
v 1.850000 0.716609 -0.311570
v 1.849999 1.042981 -0.876859
v 1.849999 1.042981 -0.123140
v 1.849999 1.369350 -0.311570
v 1.849999 1.369350 -0.688429
v 0.150014 1.043000 -0.800000
v 0.150014 0.783305 -0.650000
v 0.150014 0.783305 -0.350000
v 0.150014 1.043000 -0.200000
v 0.150014 1.302694 -0.350000
v 0.150014 1.302694 -0.650000
v 3.849927 1.302297 -0.650000
v 3.849927 1.302297 -0.350000
v 3.849927 1.042982 -0.200000
v 3.849927 0.783665 -0.350000
v 3.849927 1.042982 -0.800000
v 3.849927 0.783665 -0.650000
v 4.000000 1.042982 -0.875881
v 4.000107 1.367524 -0.687934
v -0.000028 1.368297 -0.687939
v -0.000003 1.043000 -0.875882
v 0.149997 1.043000 -0.875882
v 3.850107 1.368055 -0.687865
v 4.000107 1.367523 -0.312066
v -0.000028 1.368297 -0.312061
v 3.850107 1.368055 -0.312134
v 4.000000 1.042982 -0.124118
v -0.000003 1.043000 -0.124118
v 3.849999 1.042982 -0.124118
v 4.000107 0.718438 -0.312066
v -0.000028 0.717703 -0.312061
v 3.850107 0.717907 -0.312134
v 4.000107 0.718438 -0.687934
v -0.000028 0.717703 -0.687939
v 3.850107 0.717907 -0.687865
v 0.149972 0.717580 -0.687923
v 0.149972 0.717580 -0.312077
v 0.149997 1.043000 -0.124118
v 0.149972 1.368419 -0.312077
v 0.149972 1.368419 -0.687923
v 3.849999 1.042982 -0.875881
vn 1.0000 -0.0000 -0.0000
vn 0.0003 1.0000 -0.0000
vn -1.0000 -0.0003 0.0005
vn 0.0001 0.5004 0.8658
vn -1.0000 -0.0027 -0.0000
vn -1.0000 -0.0000 -0.0000
vn 0.0001 -0.5004 0.8658
vn 1.0000 0.0011 -0.0016
vn 0.0003 -1.0000 -0.0000
vn -1.0000 0.0008 -0.0000
vn 0.0001 -0.5004 -0.8658
vn -1.0000 -0.0008 -0.0000
vn 0.0001 0.5004 -0.8658
vn -1.0000 -0.0011 -0.0016
vn -0.0000 0.5000 0.8660
vn -0.0000 1.0000 -0.0000
vn -0.0000 -1.0000 -0.0000
vn -0.0000 -0.5000 -0.8660
vn -0.0000 -0.5000 0.8660
vn -0.0000 0.5000 -0.8660
vn -0.0000 -0.5001 -0.8660
vn -0.0001 -1.0000 -0.0000
vn -0.0000 -0.5001 0.8660
vn -0.0000 0.5001 0.8660
vn -0.0001 1.0000 -0.0000
vn -0.0000 0.5001 -0.8660
vn 1.0000 0.0003 -0.0004
vn -1.0000 0.0011 -0.0016
vn 1.0000 -0.0011 0.0016
vn 1.0000 0.0006 -0.0000
vn 1.0000 0.0027 -0.0000
vn 1.0000 -0.0027 -0.0000
vn -0.0002 0.5002 -0.8659
vn -0.0008 1.0000 -0.0000
vn -0.0002 0.5002 0.8659
vn -0.0002 -0.5002 0.8659
vn -0.0008 -1.0000 -0.0000
vn -0.0002 -0.5002 -0.8659
vn 0.0007 0.5009 -0.8655
vn 0.0007 -0.5009 -0.8655
vn 0.0035 -1.0000 -0.0000
vn 0.0007 -0.5009 0.8655
vn 0.0007 0.5009 0.8655
vn 0.0035 1.0000 -0.0000
vn 1.0000 -0.0003 -0.0004
vn -1.0000 -0.0011 0.0016
vn 1.0000 0.0011 0.0016
vn -1.0000 0.0003 -0.0005
vn 1.0000 -0.0006 -0.0000
vn -1.0000 0.0011 0.0016
vn 1.0000 -0.0011 -0.0016
vn -1.0000 0.0003 0.0005
vn 1.0000 -0.0003 0.0004
vn -1.0000 0.0027 -0.0000
vn 1.0000 0.0003 0.0004
vn -1.0000 -0.0003 -0.0005
vt 0.833333 0.750000
vt 1.000000 0.750000
vt -0.000000 0.750000
vt -0.000000 0.500000
vt -0.000000 1.000000
vt 0.833333 0.500000
vt 0.833333 1.000000
vt 0.666667 0.500000
vt 0.666667 1.000000
vt 0.500000 0.500000
vt 0.500000 1.000000
vt 0.333333 0.500000
vt 0.333333 1.000000
vt 0.166667 0.500000
vt 0.166667 1.000000
vt 0.666667 0.750000
vt 0.500000 0.750000
vt 0.333333 0.750000
vt 0.166667 0.750000
vt 0.166667 0.875000
vt 0.333333 0.875000
vt -0.000000 0.875000
vt 1.000000 0.875000
vt 0.500000 0.875000
vt 0.666667 0.875000
vt 0.833333 0.875000
vt 0.833333 0.750000
vt 1.000000 0.750000
vt -0.000000 0.750000
vt 0.666667 0.750000
vt 0.500000 0.750000
vt 0.333333 0.750000
vt 0.166667 0.750000
vt 0.166667 0.875000
vt 0.333333 0.875000
vt 1.000000 0.875000
vt -0.000000 0.875000
vt 0.500000 0.875000
vt 0.666667 0.875000
vt 0.833333 0.875000
vt 1.000000 0.937500
vt -0.000000 0.937500
vt 0.166667 0.937500
vt 0.333333 0.937500
vt 0.500000 0.937500
vt 0.666667 0.937500
vt 0.833333 0.937500
vt 0.833333 0.625000
vt 0.666667 0.625000
vt 0.500000 0.625000
vt 0.333333 0.625000
vt -0.000000 0.625000
vt 1.000000 0.625000
vt 0.166667 0.625000
vt 1.000000 0.500000
vt -0.000000 0.500000
vt 0.833333 0.500000
vt 0.833333 1.000000
vt 1.000000 1.000000
vt -0.000000 1.000000
vt 1.000000 0.937500
vt -0.000000 0.937500
vt 0.833333 0.625000
vt 0.666667 0.500000
vt 0.666667 1.000000
vt 0.666667 0.625000
vt 0.500000 0.500000
vt 0.500000 1.000000
vt 0.500000 0.625000
vt 0.333333 0.500000
vt 0.333333 1.000000
vt 0.333333 0.625000
vt 0.166667 0.500000
vt 0.166667 1.000000
vt 0.166667 0.625000
vt 0.166667 0.937500
vt 0.333333 0.937500
vt 0.500000 0.937500
vt 0.666667 0.937500
vt 0.833333 0.937500
vt 1.000000 0.625000
vt -0.000000 0.625000
s 0
usemtl pipes.004
f 22/19/1 21/18/1 33/32/1 34/33/1
f 47/48/2 5/1/2 19/16/2 48/49/2
f 8/5/3 10/7/3 55/58/3 56/60/3
f 19/16/1 5/1/1 29/27/1 31/30/1
f 48/49/4 19/16/4 20/17/4 49/50/4
f 50/51/5 52/54/5 70/75/5 67/72/5
f 26/24/6 24/21/6 36/35/6 38/38/6
f 49/50/7 20/17/7 21/18/7 50/51/7
f 15/12/8 13/10/8 62/67/8 65/70/8
f 25/23/6 28/26/6 40/40/6 37/36/6
f 50/51/9 21/18/9 22/19/9 52/54/9
f 16/13/10 18/15/10 69/74/10 66/71/10
f 52/54/11 22/19/11 6/3/11 51/52/11
f 10/7/12 12/9/12 60/65/12 55/58/12
f 5/1/1 6/2/1 30/28/1 29/27/1
f 51/53/13 6/2/13 5/1/13 47/48/13
f 52/54/14 51/52/14 76/82/14 70/75/14
f 24/21/6 23/20/6 35/34/6 36/35/6
f 31/30/15 39/39/15 38/38/15 32/31/15
f 29/27/16 40/40/16 39/39/16 31/30/16
f 34/33/17 33/32/17 36/35/17 35/34/17
f 34/33/18 35/34/18 37/37/18 30/29/18
f 32/31/19 38/38/19 36/35/19 33/32/19
f 30/28/20 37/36/20 40/40/20 29/27/20
f 20/17/1 19/16/1 31/30/1 32/31/1
f 27/25/6 26/24/6 38/38/6 39/39/6
f 23/20/6 25/22/6 37/37/6 35/34/6
f 28/26/6 27/25/6 39/39/6 40/40/6
f 6/3/1 22/19/1 34/33/1 30/29/1
f 21/18/1 20/17/1 32/31/1 33/32/1
f 7/4/1 9/6/1 11/8/1 13/10/1 15/12/1 17/14/1
f 23/20/21 42/43/21 41/42/21 25/22/21
f 24/21/22 43/44/22 42/43/22 23/20/22
f 26/24/23 44/45/23 43/44/23 24/21/23
f 27/25/24 45/46/24 44/45/24 26/24/24
f 28/26/25 46/47/25 45/46/25 27/25/25
f 25/23/26 41/41/26 46/47/26 28/26/26
f 46/47/27 41/41/27 57/61/27 75/80/27
f 51/53/28 47/48/28 58/63/28 76/81/28
f 9/6/29 7/4/29 53/56/29 54/57/29
f 45/46/30 46/47/30 75/80/30 74/79/30
f 17/14/31 15/12/31 65/70/31 68/73/31
f 11/8/32 9/6/32 54/57/32 59/64/32
f 57/61/33 56/59/33 55/58/33 75/80/33
f 75/80/34 55/58/34 60/65/34 74/79/34
f 74/79/35 60/65/35 63/68/35 73/78/35
f 73/78/36 63/68/36 66/71/36 72/77/36
f 72/77/37 66/71/37 69/74/37 71/76/37
f 71/76/38 69/74/38 56/60/38 57/62/38
f 53/55/39 76/81/39 58/63/39 54/57/39
f 68/73/40 70/75/40 76/82/40 53/56/40
f 65/70/41 67/72/41 70/75/41 68/73/41
f 62/67/42 64/69/42 67/72/42 65/70/42
f 59/64/43 61/66/43 64/69/43 62/67/43
f 54/57/44 58/63/44 61/66/44 59/64/44
f 41/42/45 42/43/45 71/76/45 57/62/45
f 49/50/46 50/51/46 67/72/46 64/69/46
f 7/4/47 17/14/47 68/73/47 53/56/47
f 14/11/48 16/13/48 66/71/48 63/68/48
f 42/43/49 43/44/49 72/77/49 71/76/49
f 48/49/50 49/50/50 64/69/50 61/66/50
f 13/10/51 11/8/51 59/64/51 62/67/51
f 18/15/52 8/5/52 56/60/52 69/74/52
f 43/44/53 44/45/53 73/78/53 72/77/53
f 47/48/54 48/49/54 61/66/54 58/63/54
f 44/45/55 45/46/55 74/79/55 73/78/55
f 12/9/56 14/11/56 63/68/56 60/65/56
f 10/7/6 8/5/6 18/15/6 16/13/6 14/11/6 12/9/6
l 3 4
l 2 3
