# Blender 3.4.1
# www.blender.org
mtllib 2x2_floor.mtl
o Cube
v -0.000000 0.000000 0.000000
v -0.000000 0.100000 0.000000
v -0.000000 0.000000 -2.029168
v -0.000000 0.100000 -2.029168
v 2.029168 0.000000 0.000000
v 2.029168 0.100000 0.000000
v 2.029168 0.000000 -2.029168
v 2.029168 0.100000 -2.029168
v -0.000000 0.000000 -0.050000
v -0.000000 0.100000 -0.050000
v 2.029168 0.000000 -0.050000
v 2.029168 0.100000 -0.050000
v -0.000000 0.100000 -1.979167
v 2.029168 0.000000 -1.979167
v -0.000000 0.000000 -1.979167
v 2.029168 0.100000 -1.979167
v 0.060000 0.000000 -2.029168
v 0.060000 0.100000 -2.029168
v 0.060000 0.000000 0.000000
v 0.060000 0.100000 0.000000
v 0.060000 0.100000 -0.050000
v 0.060000 0.000000 -0.050000
v 0.060000 0.000000 -1.979167
v 0.060000 0.100000 -1.979167
v 1.979167 0.100000 -2.029168
v 1.979167 0.000000 0.000000
v 1.979167 0.100000 -0.050000
v 1.979167 0.100000 -1.979167
v 1.979167 0.000000 -2.029168
v 1.979167 0.100000 0.000000
v 1.979167 0.000000 -0.050000
v 1.979167 0.000000 -1.979167
v 1.979167 -0.049000 -0.050000
v 2.029168 -0.049000 -0.050000
v 2.029168 -0.049000 0.000000
v 1.979167 -0.049000 0.000000
v 0.060000 0.149000 -0.050000
v -0.000000 0.149000 -0.050000
v -0.000000 0.149000 0.000000
v 0.060000 0.149000 0.000000
v 0.060000 0.149000 -1.979167
v -0.000000 0.149000 -1.979167
v -0.000000 0.149000 -0.050000
v 0.060000 0.149000 -0.050000
v 1.979167 -0.049000 -1.979167
v 2.029168 -0.049000 -1.979167
v 2.029168 -0.049000 -0.050000
v 1.979167 -0.049000 -0.050000
v 1.979167 -0.049000 -2.029168
v 2.029168 -0.049000 -2.029168
v 2.029168 -0.049000 -1.979167
v 1.979167 -0.049000 -1.979167
v 0.060000 0.149000 -2.029168
v -0.000000 0.149000 -2.029168
v -0.000000 0.149000 -1.979167
v 0.060000 0.149000 -1.979167
v 1.979167 0.149000 -2.029168
v 0.060000 0.149000 -2.029168
v 0.060000 0.149000 -1.979167
v 1.979167 0.149000 -1.979167
v -0.000000 -0.049000 -2.029168
v 0.060000 -0.049000 -2.029168
v 0.060000 -0.049000 -1.979167
v -0.000000 -0.049000 -1.979167
v -0.000000 -0.049000 -1.979167
v 0.060000 -0.049000 -1.979167
v 0.060000 -0.049000 -0.050000
v -0.000000 -0.049000 -0.050000
v 1.979167 0.149000 -0.050000
v 0.060000 0.149000 -0.050000
v 0.060000 0.149000 0.000000
v 1.979167 0.149000 0.000000
v -0.000000 -0.049000 -0.050000
v 0.060000 -0.049000 -0.050000
v 0.060000 -0.049000 0.000000
v -0.000000 -0.049000 0.000000
v 2.029168 0.149000 -0.050000
v 1.979167 0.149000 -0.050000
v 1.979167 0.149000 0.000000
v 2.029168 0.149000 0.000000
v 2.029168 0.149000 -1.979167
v 1.979167 0.149000 -1.979167
v 1.979167 0.149000 -0.050000
v 2.029168 0.149000 -0.050000
v 2.029168 0.149000 -2.029168
v 1.979167 0.149000 -2.029168
v 1.979167 0.149000 -1.979167
v 2.029168 0.149000 -1.979167
v 0.060000 -0.049000 -2.029168
v 1.979167 -0.049000 -2.029168
v 1.979167 -0.049000 -1.979167
v 0.060000 -0.049000 -1.979167
v 0.060000 -0.049000 -0.050000
v 1.979167 -0.049000 -0.050000
v 1.979167 -0.049000 0.000000
v 0.060000 -0.049000 0.000000
vn -1.0000 -0.0000 -0.0000
vn -0.0000 -0.0000 -1.0000
vn 1.0000 -0.0000 -0.0000
vn -0.0000 -0.0000 1.0000
vn -0.0000 1.0000 -0.0000
vn -0.0000 -1.0000 -0.0000
vt 0.375000 1.000000
vt 0.375000 0.000000
vt 0.125000 0.750000
vt 0.625000 1.000000
vt 0.625000 0.000000
vt 0.875000 0.750000
vt 0.375000 0.250000
vt 0.125000 0.500000
vt 0.625000 0.250000
vt 0.875000 0.500000
vt 0.375000 0.750000
vt 0.625000 0.750000
vt 0.375000 0.500000
vt 0.625000 0.500000
vt 0.375000 0.125000
vt 0.125000 0.625000
vt 0.625000 0.125000
vt 0.875000 0.625000
vt 0.375000 0.625000
vt 0.625000 0.625000
vt 0.625000 0.187500
vt 0.875000 0.562500
vt 0.375000 0.562500
vt 0.375000 0.187500
vt 0.125000 0.562500
vt 0.625000 0.562500
vt 0.375000 0.375000
vt 0.250000 0.500000
vt 0.625000 0.375000
vt 0.750000 0.500000
vt 0.375000 0.875000
vt 0.250000 0.750000
vt 0.625000 0.875000
vt 0.750000 0.750000
vt 0.750000 0.625000
vt 0.250000 0.625000
vt 0.250000 0.562500
vt 0.750000 0.562500
vt 0.625000 0.437500
vt 0.687500 0.500000
vt 0.375000 0.812500
vt 0.312500 0.750000
vt 0.687500 0.625000
vt 0.687500 0.562500
vt 0.375000 0.437500
vt 0.312500 0.500000
vt 0.625000 0.812500
vt 0.687500 0.750000
vt 0.312500 0.625000
vt 0.312500 0.562500
vt 0.312500 0.625000
vt 0.375000 0.625000
vt 0.375000 0.750000
vt 0.312500 0.750000
vt 0.750000 0.625000
vt 0.875000 0.625000
vt 0.875000 0.750000
vt 0.750000 0.750000
vt 0.750000 0.562500
vt 0.875000 0.562500
vt 0.875000 0.625000
vt 0.750000 0.625000
vt 0.312500 0.562500
vt 0.375000 0.562500
vt 0.375000 0.625000
vt 0.312500 0.625000
vt 0.312500 0.500000
vt 0.375000 0.500000
vt 0.375000 0.562500
vt 0.312500 0.562500
vt 0.750000 0.500000
vt 0.875000 0.500000
vt 0.875000 0.562500
vt 0.750000 0.562500
vt 0.687500 0.500000
vt 0.750000 0.500000
vt 0.750000 0.562500
vt 0.687500 0.562500
vt 0.125000 0.500000
vt 0.250000 0.500000
vt 0.250000 0.562500
vt 0.125000 0.562500
vt 0.125000 0.562500
vt 0.250000 0.562500
vt 0.250000 0.625000
vt 0.125000 0.625000
vt 0.687500 0.625000
vt 0.750000 0.625000
vt 0.750000 0.750000
vt 0.687500 0.750000
vt 0.125000 0.625000
vt 0.250000 0.625000
vt 0.250000 0.750000
vt 0.125000 0.750000
vt 0.625000 0.625000
vt 0.687500 0.625000
vt 0.687500 0.750000
vt 0.625000 0.750000
vt 0.625000 0.562500
vt 0.687500 0.562500
vt 0.687500 0.625000
vt 0.625000 0.625000
vt 0.625000 0.500000
vt 0.687500 0.500000
vt 0.687500 0.562500
vt 0.625000 0.562500
vt 0.250000 0.500000
vt 0.312500 0.500000
vt 0.312500 0.562500
vt 0.250000 0.562500
vt 0.250000 0.625000
vt 0.312500 0.625000
vt 0.312500 0.750000
vt 0.250000 0.750000
s 0
usemtl metal
f 15/24/1 13/21/1 4/9/1 3/7/1
f 29/45/2 25/39/2 8/14/2 7/13/2
f 11/19/3 12/20/3 6/12/3 5/11/3
f 19/31/4 20/33/4 2/4/4 1/1/4
f 14/23/3 16/26/3 12/20/3 11/19/3
f 1/2/1 2/5/1 10/17/1 9/15/1
f 7/13/3 8/14/3 16/26/3 14/23/3
f 9/15/1 10/17/1 13/21/1 15/24/1
f 28/44/5 24/38/5 21/35/5 27/43/5
f 26/41/4 30/47/4 20/33/4 19/31/4
f 3/7/2 4/9/2 18/29/2 17/27/2
f 5/11/4 6/12/4 30/47/4 26/41/4
f 23/37/6 32/50/6 31/49/6 22/36/6
f 17/27/2 18/29/2 25/39/2 29/45/2
f 33/51/6 34/52/6 35/53/6 36/54/6
f 11/19/2 34/52/2 33/51/2 31/49/2
f 5/11/3 35/53/3 34/52/3 11/19/3
f 26/42/4 36/54/4 35/53/4 5/11/4
f 31/49/1 33/51/1 36/54/1 26/42/1
f 37/55/5 38/56/5 39/57/5 40/58/5
f 10/18/2 38/56/2 37/55/2 21/35/2
f 2/6/1 39/57/1 38/56/1 10/18/1
f 20/34/4 40/58/4 39/57/4 2/6/4
f 21/35/3 37/55/3 40/58/3 20/34/3
f 41/59/5 42/60/5 43/61/5 44/62/5
f 13/22/2 42/60/2 41/59/2 24/38/2
f 10/18/1 43/61/1 42/60/1 13/22/1
f 21/35/4 44/62/4 43/61/4 10/18/4
f 24/38/3 41/59/3 44/62/3 21/35/3
f 45/63/6 46/64/6 47/65/6 48/66/6
f 14/23/2 46/64/2 45/63/2 32/50/2
f 11/19/3 47/65/3 46/64/3 14/23/3
f 31/49/4 48/66/4 47/65/4 11/19/4
f 32/50/1 45/63/1 48/66/1 31/49/1
f 49/67/6 50/68/6 51/69/6 52/70/6
f 7/13/2 50/68/2 49/67/2 29/46/2
f 14/23/3 51/69/3 50/68/3 7/13/3
f 32/50/4 52/70/4 51/69/4 14/23/4
f 29/46/1 49/67/1 52/70/1 32/50/1
f 53/71/5 54/72/5 55/73/5 56/74/5
f 4/10/2 54/72/2 53/71/2 18/30/2
f 13/22/1 55/73/1 54/72/1 4/10/1
f 24/38/4 56/74/4 55/73/4 13/22/4
f 18/30/3 53/71/3 56/74/3 24/38/3
f 57/75/5 58/76/5 59/77/5 60/78/5
f 18/30/2 58/76/2 57/75/2 25/40/2
f 24/38/1 59/77/1 58/76/1 18/30/1
f 28/44/4 60/78/4 59/77/4 24/38/4
f 25/40/3 57/75/3 60/78/3 28/44/3
f 61/79/6 62/80/6 63/81/6 64/82/6
f 17/28/2 62/80/2 61/79/2 3/8/2
f 23/37/3 63/81/3 62/80/3 17/28/3
f 15/25/4 64/82/4 63/81/4 23/37/4
f 3/8/1 61/79/1 64/82/1 15/25/1
f 65/83/6 66/84/6 67/85/6 68/86/6
f 23/37/2 66/84/2 65/83/2 15/25/2
f 22/36/3 67/85/3 66/84/3 23/37/3
f 9/16/4 68/86/4 67/85/4 22/36/4
f 15/25/1 65/83/1 68/86/1 9/16/1
f 69/87/5 70/88/5 71/89/5 72/90/5
f 21/35/2 70/88/2 69/87/2 27/43/2
f 20/34/1 71/89/1 70/88/1 21/35/1
f 30/48/4 72/90/4 71/89/4 20/34/4
f 27/43/3 69/87/3 72/90/3 30/48/3
f 73/91/6 74/92/6 75/93/6 76/94/6
f 22/36/2 74/92/2 73/91/2 9/16/2
f 19/32/3 75/93/3 74/92/3 22/36/3
f 1/3/4 76/94/4 75/93/4 19/32/4
f 9/16/1 73/91/1 76/94/1 1/3/1
f 77/95/5 78/96/5 79/97/5 80/98/5
f 27/43/2 78/96/2 77/95/2 12/20/2
f 30/48/1 79/97/1 78/96/1 27/43/1
f 6/12/4 80/98/4 79/97/4 30/48/4
f 12/20/3 77/95/3 80/98/3 6/12/3
f 81/99/5 82/100/5 83/101/5 84/102/5
f 28/44/2 82/100/2 81/99/2 16/26/2
f 27/43/1 83/101/1 82/100/1 28/44/1
f 12/20/4 84/102/4 83/101/4 27/43/4
f 16/26/3 81/99/3 84/102/3 12/20/3
f 85/103/5 86/104/5 87/105/5 88/106/5
f 25/40/2 86/104/2 85/103/2 8/14/2
f 28/44/1 87/105/1 86/104/1 25/40/1
f 16/26/4 88/106/4 87/105/4 28/44/4
f 8/14/3 85/103/3 88/106/3 16/26/3
f 89/107/6 90/108/6 91/109/6 92/110/6
f 29/46/2 90/108/2 89/107/2 17/28/2
f 32/50/3 91/109/3 90/108/3 29/46/3
f 23/37/4 92/110/4 91/109/4 32/50/4
f 17/28/1 89/107/1 92/110/1 23/37/1
f 93/111/6 94/112/6 95/113/6 96/114/6
f 31/49/2 94/112/2 93/111/2 22/36/2
f 26/42/3 95/113/3 94/112/3 31/49/3
f 19/32/4 96/114/4 95/113/4 26/42/4
f 22/36/1 93/111/1 96/114/1 19/32/1
