# Blender 3.4.1
# www.blender.org
mtllib 2x2_wall_corner.mtl
o wall
v 0.000000 0.004253 -0.099141
v 0.000000 2.002126 -0.099141
v 0.000000 0.004253 -0.499141
v 0.000000 2.002126 -0.499141
v 1.899487 0.002127 -0.099571
v 1.899487 1.999999 -0.099571
v 1.499503 0.002127 -0.499570
v 1.499502 1.999999 -0.499570
v 0.000000 0.204253 -0.099141
v 0.000000 0.204253 -0.499141
v 1.499503 0.202127 -0.499570
v 1.899487 0.202127 -0.099571
v 0.000000 1.802126 -0.099141
v 0.000000 1.802126 -0.499141
v 1.499502 1.799999 -0.499570
v 1.899487 1.799999 -0.099571
v 0.000000 1.802126 -0.602641
v 0.000000 2.002126 -0.602641
v 1.399927 1.999999 -0.601321
v 1.399927 1.799999 -0.601321
v 2.001237 1.799999 0.000180
v 2.001237 1.999999 0.000180
v 0.000000 2.002126 0.000359
v 0.000000 1.802126 0.000359
v 2.001237 0.002127 0.000180
v 2.001237 0.202127 0.000180
v 0.000000 0.204253 0.000359
v 0.000000 0.004253 0.000359
v 0.000000 0.004253 -0.602641
v 0.000000 0.204253 -0.602641
v 1.399927 0.202127 -0.601321
v 1.399927 0.002127 -0.601321
v 1.498963 0.000000 -2.000000
v 1.498963 1.997872 -2.000000
v 1.898963 0.000000 -2.000000
v 1.898963 1.997872 -2.000000
v 1.498963 0.200000 -2.000000
v 1.898963 0.200000 -2.000000
v 1.498963 1.797872 -2.000000
v 1.898963 1.797872 -2.000000
v 2.002463 1.797872 -2.000000
v 2.002463 1.997872 -2.000000
v 1.399462 1.997872 -2.000000
v 1.399462 1.797872 -2.000000
v 1.399462 0.200000 -2.000000
v 1.399462 0.000000 -2.000000
v 2.002463 0.000000 -2.000000
v 2.002463 0.200000 -2.000000
vn -1.0000 -0.0000 -0.0000
vn -0.0013 -1.0000 0.0006
vn 0.0013 1.0000 -0.0006
vn 0.0002 -0.0000 1.0000
vn 0.7071 -0.0000 -0.7071
vn -0.0003 -0.0000 -1.0000
vn 0.0009 -0.0000 -1.0000
vn 0.0015 1.0000 -0.0007
vn -0.0015 -1.0000 0.0007
vn 0.0001 -0.0000 1.0000
vn 0.0011 1.0000 -0.0006
vn -0.0011 -1.0000 0.0006
vn -0.0000 -0.0000 -1.0000
vn -0.0006 -1.0000 0.0013
vn 0.0006 1.0000 -0.0013
vn -1.0000 -0.0000 0.0004
vn 1.0000 -0.0000 -0.0003
vn 1.0000 -0.0000 0.0006
vn 0.0005 1.0000 -0.0011
vn -0.0005 -1.0000 0.0011
vn -1.0000 -0.0000 0.0003
vn 0.0007 1.0000 -0.0015
vn -0.0007 -1.0000 0.0015
vn -0.0008 -1.0000 0.0015
vt 0.125000 0.750000
vt 0.375000 0.000000
vt 0.375000 1.000000
vt 0.625000 0.000000
vt 0.875000 0.750000
vt 0.625000 1.000000
vt 0.125000 0.500000
vt 0.375000 0.250000
vt 0.875000 0.500000
vt 0.625000 0.250000
vt 0.375000 0.750000
vt 0.375000 0.500000
vt 0.625000 0.750000
vt 0.625000 0.500000
vt 0.375000 0.500000
vt 0.375000 0.750000
vt 0.625000 0.500000
vt 0.625000 0.750000
vt 0.500000 0.000000
vt 0.500000 1.000000
vt 0.500000 0.250000
vt 0.500000 0.500000
vt 0.500000 0.750000
vt 0.500000 0.750000
vt 0.500000 0.500000
vt 0.562500 0.000000
vt 0.562500 1.000000
vt 0.562500 0.250000
vt 0.562500 0.500000
vt 0.562500 0.750000
vt 0.562500 0.750000
vt 0.562500 0.500000
vt 0.562500 0.250000
vt 0.625000 0.250000
vt 0.625000 0.500000
vt 0.625000 0.750000
vt 0.562500 0.500000
vt 0.562500 0.750000
vt 0.562500 0.750000
vt 0.562500 0.500000
vt 0.625000 0.750000
vt 0.625000 0.500000
vt 0.625000 1.000000
vt 0.562500 1.000000
vt 0.375000 0.750000
vt 0.375000 0.500000
vt 0.500000 0.750000
vt 0.500000 0.500000
vt 0.500000 1.000000
vt 0.375000 1.000000
vt 0.375000 0.250000
vt 0.500000 0.250000
vt 0.500000 0.500000
vt 0.500000 0.750000
vt 0.375000 0.500000
vt 0.375000 0.750000
vt 0.125000 0.750000
vt 0.375000 0.000000
vt 0.375000 1.000000
vt 0.625000 0.000000
vt 0.875000 0.750000
vt 0.625000 1.000000
vt 0.125000 0.500000
vt 0.375000 0.250000
vt 0.875000 0.500000
vt 0.625000 0.250000
vt 0.500000 0.000000
vt 0.500000 1.000000
vt 0.500000 0.250000
vt 0.562500 0.000000
vt 0.562500 1.000000
vt 0.562500 0.250000
vt 0.562500 0.250000
vt 0.625000 0.250000
vt 0.625000 1.000000
vt 0.562500 1.000000
vt 0.500000 1.000000
vt 0.375000 1.000000
vt 0.375000 0.250000
vt 0.500000 0.250000
s 0
usemtl metal
f 13/26/1 2/4/1 4/10/1 14/28/1
f 3/7/2 7/15/2 5/11/2 1/1/2
f 8/17/3 4/9/3 2/5/3 6/13/3
f 1/2/1 9/19/1 10/21/1 3/8/1
f 12/24/4 16/31/4 13/27/4 9/20/4
f 11/22/5 15/29/5 16/31/5 12/24/5
f 10/21/6 14/28/6 15/29/6 11/22/6
f 9/19/1 13/26/1 14/28/1 10/21/1
f 17/33/7 18/34/7 19/35/7 20/37/7
f 4/10/1 18/34/1 17/33/1 14/28/1
f 8/17/8 19/35/8 18/34/8 4/10/8
f 14/28/9 17/33/9 20/37/9 15/29/9
f 21/39/10 22/41/10 23/43/10 24/44/10
f 2/6/11 23/43/11 22/41/11 6/13/11
f 13/27/1 24/44/1 23/43/1 2/6/1
f 16/31/12 21/39/12 24/44/12 13/27/12
f 25/45/10 26/47/10 27/49/10 28/50/10
f 9/20/11 27/49/11 26/47/11 12/24/11
f 1/3/1 28/50/1 27/49/1 9/20/1
f 5/11/12 25/45/12 28/50/12 1/3/12
f 29/51/7 30/52/7 31/53/7 32/55/7
f 10/21/1 30/52/1 29/51/1 3/8/1
f 11/22/8 31/53/8 30/52/8 10/21/8
f 3/8/9 29/51/9 32/55/9 7/15/9
f 39/70/13 34/60/13 36/66/13 40/72/13
f 35/63/14 5/12/14 7/16/14 33/57/14
f 6/14/15 36/65/15 34/61/15 8/18/15
f 33/58/13 37/67/13 38/69/13 35/64/13
f 11/23/16 15/30/16 39/71/16 37/68/16
f 38/69/17 40/72/17 16/32/17 12/25/17
f 37/67/13 39/70/13 40/72/13 38/69/13
f 41/73/18 42/74/18 22/42/18 21/40/18
f 36/66/13 42/74/13 41/73/13 40/72/13
f 6/14/19 22/42/19 42/74/19 36/66/19
f 40/72/20 41/73/20 21/40/20 16/32/20
f 20/38/21 19/36/21 43/75/21 44/76/21
f 34/62/22 43/75/22 19/36/22 8/18/22
f 39/71/13 44/76/13 43/75/13 34/62/13
f 15/30/23 20/38/23 44/76/23 39/71/23
f 32/56/21 31/54/21 45/77/21 46/78/21
f 37/68/22 45/77/22 31/54/22 11/23/22
f 33/59/13 46/78/13 45/77/13 37/68/13
f 7/16/24 32/56/24 46/78/24 33/59/24
f 47/79/18 48/80/18 26/48/18 25/46/18
f 38/69/13 48/80/13 47/79/13 35/64/13
f 12/25/19 26/48/19 48/80/19 38/69/19
f 35/64/20 47/79/20 25/46/20 5/12/20
