# Blender 3.4.1
# www.blender.org
mtllib 4x4_roof_ramp.mtl
o roof
v 0.000000 0.000000 0.000000
v 0.000000 4.000000 -4.000000
v 4.000000 0.000000 0.000000
v 4.000000 4.000000 -4.000000
v 0.000000 0.000000 -0.600000
v 0.000000 3.400000 -4.000000
v 4.000000 3.400000 -4.000000
v 4.000000 0.000000 -0.600000
v 4.000000 4.000000 -3.800000
v 0.000000 4.000000 -3.800000
v 4.000000 3.400000 -3.800000
v 0.000000 3.400000 -3.800000
vn -0.0000 -0.0000 -1.0000
vn -1.0000 -0.0000 -0.0000
vn 1.0000 -0.0000 -0.0000
vn -0.0000 -1.0000 -0.0000
vn -0.0000 0.6887 0.7250
vn -0.0000 -0.6854 -0.7282
vn -0.0000 1.0000 -0.0000
vt 0.125000 0.750000
vt 0.625000 0.250000
vt 0.375000 0.750000
vt 0.625000 0.500000
vt 0.125000 0.625000
vt 0.375000 0.125000
vt 0.500000 0.250000
vt 0.500000 0.500000
vt 0.375000 0.625000
vt 0.500000 0.625000
vt 0.375000 0.500000
vt 0.437500 0.562500
vt 0.437500 0.187500
s 0
usemtl metal
f 6/7/1 2/2/1 4/4/1 7/8/1
f 12/13/2 10/11/2 2/2/2 6/7/2
f 9/10/3 11/12/3 7/8/3 4/4/3
f 5/5/4 8/9/4 3/3/4 1/1/4
f 9/10/5 10/11/5 1/1/5 3/3/5
f 11/12/4 12/13/4 6/7/4 7/8/4
f 8/9/6 5/6/6 12/13/6 11/12/6
f 4/4/7 2/2/7 10/11/7 9/10/7
f 3/3/3 8/9/3 11/12/3 9/10/3
f 5/6/2 1/1/2 10/11/2 12/13/2
