# Blender 3.4.1
# www.blender.org
mtllib 4x4_wall_window_noglass.mtl
o wall
v 0.000000 0.000000 -0.099141
v 0.000000 4.004253 -0.099141
v 0.000000 0.000000 -0.499141
v 0.000000 4.004253 -0.499141
v 4.000000 0.000000 -0.099141
v 4.000000 4.004253 -0.099141
v 4.000000 0.000000 -0.499141
v 4.000000 4.004253 -0.499141
v 0.000000 0.204253 -0.099141
v 0.000000 0.204253 -0.499141
v 4.000000 0.204253 -0.499141
v 4.000000 0.204253 -0.099141
v 0.000000 3.804253 -0.099141
v 0.000000 3.804253 -0.499141
v 4.000000 3.804253 -0.499141
v 4.000000 3.804253 -0.099141
v 0.000000 3.804253 -0.602641
v 0.000000 4.004253 -0.602641
v 4.000000 4.004253 -0.602641
v 4.000000 3.804253 -0.602641
v 4.000000 3.804253 0.004359
v 4.000000 4.004253 0.004359
v 0.000000 4.004253 0.004359
v 0.000000 3.804253 0.004359
v 4.000000 0.000000 0.004359
v 4.000000 0.204253 0.004359
v 0.000000 0.204253 0.004359
v 0.000000 0.000000 0.004359
v 0.000000 0.000000 -0.602641
v 0.000000 0.204253 -0.602641
v 4.000000 0.204253 -0.602641
v 4.000000 0.000000 -0.602641
v 0.000000 1.004253 -0.499141
v 4.000000 1.004253 -0.499141
v 4.000000 1.004253 -0.099141
v 0.000000 1.004253 -0.099141
v 0.000000 3.000254 -0.099141
v 0.000000 3.000254 -0.499141
v 4.000000 3.000254 -0.499141
v 4.000000 3.000254 -0.099141
v 2.999650 1.004253 -0.499141
v 2.999650 1.004253 -0.099141
v 2.999650 3.000254 -0.499141
v 2.999650 3.000254 -0.099141
v 0.899650 1.004253 -0.099141
v 0.899650 3.000254 -0.099141
v 0.899650 1.004253 -0.499141
v 0.899650 3.000254 -0.499141
v 2.250844 1.004253 -0.281936
v 2.250844 3.006660 -0.281936
v 2.250844 1.004253 -0.318064
v 2.250844 3.006660 -0.318064
v 2.349156 1.004253 -0.281936
v 2.349156 3.006660 -0.281936
v 2.349156 1.004253 -0.318064
v 2.349156 3.006660 -0.318064
v 2.250844 1.949699 -0.281936
v 2.250844 1.949699 -0.318064
v 2.349156 1.949699 -0.318064
v 2.349156 1.949699 -0.281936
v 2.250844 2.050301 -0.281936
v 2.250844 2.050301 -0.318064
v 2.349156 2.050301 -0.318064
v 2.349156 2.050301 -0.281936
v 3.007452 1.949699 -0.318064
v 3.007452 2.050301 -0.318064
v 3.007452 2.050301 -0.281936
v 3.007452 1.949699 -0.281936
v 0.882600 1.949699 -0.281936
v 0.882600 2.050301 -0.281936
v 0.882600 2.050301 -0.318064
v 0.882600 1.949699 -0.318064
v 1.600536 0.971553 -0.318067
v 1.499464 0.971553 -0.318067
v 1.499464 0.971553 -0.281939
v 1.600536 0.971553 -0.281939
v 1.600536 3.007962 -0.281936
v 1.499464 3.007962 -0.281936
v 1.499464 3.007962 -0.318064
v 1.600536 3.007962 -0.318064
v 1.499464 1.949699 -0.281936
v 1.499464 1.949699 -0.318064
v 1.499464 2.050301 -0.318064
v 1.499464 2.050301 -0.281936
v 1.600536 1.949699 -0.318064
v 1.600536 2.050301 -0.318064
v 1.600536 1.949699 -0.281936
v 1.600536 2.050301 -0.281936
vn -1.0000 -0.0000 -0.0000
vn 1.0000 -0.0000 -0.0000
vn -0.0000 -1.0000 -0.0000
vn -0.0000 1.0000 -0.0000
vn -0.0000 -0.0000 1.0000
vn -0.0000 -0.0000 -1.0000
vt 0.125000 0.750000
vt 0.375000 0.000000
vt 0.375000 1.000000
vt 0.625000 0.000000
vt 0.875000 0.750000
vt 0.625000 1.000000
vt 0.125000 0.500000
vt 0.375000 0.250000
vt 0.875000 0.500000
vt 0.625000 0.250000
vt 0.375000 0.750000
vt 0.625000 0.750000
vt 0.375000 0.500000
vt 0.625000 0.500000
vt 0.500000 0.000000
vt 0.500000 1.000000
vt 0.500000 0.250000
vt 0.500000 0.500000
vt 0.500000 0.750000
vt 0.562500 0.000000
vt 0.562500 1.000000
vt 0.562500 0.250000
vt 0.562500 0.500000
vt 0.562500 0.750000
vt 0.562500 0.250000
vt 0.625000 0.250000
vt 0.625000 0.500000
vt 0.562500 0.500000
vt 0.562500 0.750000
vt 0.625000 0.750000
vt 0.625000 1.000000
vt 0.562500 1.000000
vt 0.375000 0.750000
vt 0.500000 0.750000
vt 0.500000 1.000000
vt 0.375000 1.000000
vt 0.375000 0.250000
vt 0.500000 0.250000
vt 0.500000 0.500000
vt 0.375000 0.500000
vt 0.531250 0.250000
vt 0.531250 0.500000
vt 0.531250 0.750000
vt 0.531250 0.000000
vt 0.531250 1.000000
vt 0.546875 0.000000
vt 0.546875 1.000000
vt 0.546875 0.250000
vt 0.546875 0.500000
vt 0.546875 0.750000
vt 0.531250 0.375000
vt 0.531250 0.875000
vt 0.546875 0.375000
vt 0.546875 0.875000
vt 0.531250 0.937500
vt 0.546875 0.937500
vt 0.531250 0.312500
vt 0.546875 0.312500
vt 0.125000 0.750000
vt 0.375000 1.000000
vt 0.375000 0.000000
vt 0.625000 0.000000
vt 0.625000 1.000000
vt 0.875000 0.750000
vt 0.125000 0.500000
vt 0.375000 0.250000
vt 0.625000 0.250000
vt 0.875000 0.500000
vt 0.375000 0.750000
vt 0.625000 0.750000
vt 0.375000 0.500000
vt 0.625000 0.500000
vt 0.500000 1.000000
vt 0.500000 0.000000
vt 0.500000 0.250000
vt 0.500000 0.500000
vt 0.500000 0.750000
vt 0.562500 1.000000
vt 0.562500 0.000000
vt 0.562500 0.250000
vt 0.562500 0.500000
vt 0.562500 0.750000
vt 0.500000 0.500000
vt 0.562500 0.500000
vt 0.562500 0.750000
vt 0.500000 0.750000
vt 0.500000 0.000000
vt 0.562500 0.000000
vt 0.562500 0.250000
vt 0.500000 0.250000
vt 0.500000 0.250000
vt 0.500000 0.250000
vt 0.500000 0.000000
vt 0.500000 0.000000
vt 0.562500 0.000000
vt 0.562500 0.000000
vt 0.562500 0.250000
vt 0.562500 0.250000
vt 0.500000 0.000000
vt 0.500000 0.250000
vt 0.562500 0.250000
vt 0.562500 0.000000
vt 0.500000 0.250000
vt 0.562500 0.250000
vt 0.500000 0.000000
vt 0.562500 0.000000
s 0
usemtl metal
f 13/20/1 2/4/1 4/10/1 14/22/1
f 15/23/2 8/14/2 6/12/2 16/24/2
f 3/7/3 7/13/3 5/11/3 1/1/3
f 8/14/4 4/9/4 2/5/4 6/12/4
f 7/13/2 11/18/2 12/19/2 5/11/2
f 1/2/1 9/15/1 10/17/1 3/8/1
f 40/50/5 16/24/5 13/21/5 37/47/5 46/56/5 44/54/5
f 39/49/2 15/23/2 16/24/2 40/50/2
f 38/48/6 14/22/6 15/23/6 39/49/6 43/53/6 48/58/6
f 37/46/1 13/20/1 14/22/1 38/48/1
f 17/25/6 18/26/6 19/27/6 20/28/6
f 4/10/1 18/26/1 17/25/1 14/22/1
f 8/14/4 19/27/4 18/26/4 4/10/4
f 15/23/2 20/28/2 19/27/2 8/14/2
f 14/22/3 17/25/3 20/28/3 15/23/3
f 21/29/5 22/30/5 23/31/5 24/32/5
f 6/12/2 22/30/2 21/29/2 16/24/2
f 2/6/4 23/31/4 22/30/4 6/12/4
f 13/21/1 24/32/1 23/31/1 2/6/1
f 16/24/3 21/29/3 24/32/3 13/21/3
f 25/33/5 26/34/5 27/35/5 28/36/5
f 12/19/2 26/34/2 25/33/2 5/11/2
f 9/16/4 27/35/4 26/34/4 12/19/4
f 1/3/1 28/36/1 27/35/1 9/16/1
f 5/11/3 25/33/3 28/36/3 1/3/3
f 29/37/6 30/38/6 31/39/6 32/40/6
f 10/17/1 30/38/1 29/37/1 3/8/1
f 11/18/4 31/39/4 30/38/4 10/17/4
f 7/13/2 32/40/2 31/39/2 11/18/2
f 3/8/3 29/37/3 32/40/3 7/13/3
f 9/15/1 36/44/1 33/41/1 10/17/1
f 10/17/6 33/41/6 47/57/6 41/51/6 34/42/6 11/18/6
f 11/18/2 34/42/2 35/43/2 12/19/2
f 12/19/5 35/43/5 42/52/5 45/55/5 36/45/5 9/16/5
f 36/44/1 37/46/1 38/48/1 33/41/1
f 41/51/6 43/53/6 39/49/6 34/42/6
f 34/42/2 39/49/2 40/50/2 35/43/2
f 45/55/5 46/56/5 37/47/5 36/45/5
f 35/43/5 40/50/5 44/54/5 42/52/5
f 42/52/1 44/54/1 43/53/1 41/51/1
f 33/41/6 38/48/6 48/58/6 47/57/6
f 47/57/4 45/55/4 42/52/4 41/51/4
f 48/58/3 43/53/3 44/54/3 46/56/3
f 47/57/2 48/58/2 46/56/2 45/55/2
f 61/79/1 50/62/1 52/67/1 62/80/1
f 62/80/6 52/67/6 56/72/6 63/81/6
f 63/81/2 56/72/2 54/70/2 64/82/2
f 64/82/5 54/70/5 50/63/5 61/78/5
f 51/65/3 55/71/3 53/69/3 49/59/3
f 56/72/4 52/68/4 50/64/4 54/70/4
f 53/69/5 60/77/5 57/73/5 49/60/5
f 55/71/2 59/76/2 60/77/2 53/69/2
f 51/66/6 58/75/6 59/76/6 55/71/6
f 49/61/1 57/74/1 58/75/1 51/66/1
f 60/77/5 64/82/5 61/78/5 57/73/5
f 82/100/1 74/92/1 75/93/1 81/99/1
f 58/75/6 62/80/6 63/81/6 59/76/6
f 65/83/2 66/84/2 67/85/2 68/86/2
f 63/81/6 66/84/6 65/83/6 59/76/6
f 64/82/4 67/85/4 66/84/4 63/81/4
f 60/77/5 68/86/5 67/85/5 64/82/5
f 59/76/3 65/83/3 68/86/3 60/77/3
f 69/87/1 70/88/1 71/89/1 72/90/1
f 84/102/5 70/88/5 69/87/5 81/99/5
f 83/101/4 71/89/4 70/88/4 84/102/4
f 82/100/6 72/90/6 71/89/6 83/101/6
f 81/99/3 69/87/3 72/90/3 82/100/3
f 76/94/3 75/93/3 74/92/3 73/91/3
f 87/105/2 76/94/2 73/91/2 85/103/2
f 86/104/2 80/98/2 77/95/2 88/106/2
f 81/99/5 75/93/5 76/94/5 87/105/5
f 85/103/6 73/91/6 74/92/6 82/100/6
f 88/106/5 84/102/5 81/99/5 87/105/5
f 84/102/1 78/96/1 79/97/1 83/101/1
f 58/75/6 85/103/6 86/104/6 62/80/6
f 83/101/6 79/97/6 80/98/6 86/104/6
f 61/79/5 88/106/5 87/105/5 57/74/5
f 80/98/4 79/97/4 78/96/4 77/95/4
f 57/74/3 87/105/3 85/103/3 58/75/3
f 62/80/4 86/104/4 88/106/4 61/79/4
f 88/106/5 77/95/5 78/96/5 84/102/5
f 85/103/6 82/100/6 83/101/6 86/104/6
