# Blender 3.4.1
# www.blender.org
mtllib 8x8_pillar_small.mtl
o wall
v 0.060000 -0.000000 -0.153446
v 0.060000 7.999999 -0.153446
v 0.060000 -0.000000 -0.352554
v 0.060000 7.999999 -0.352554
v 0.460000 -0.000000 -0.153446
v 0.460000 7.999999 -0.153446
v 0.460000 -0.000000 -0.352554
v 0.460000 7.999999 -0.352554
v 0.060000 0.200000 -0.153446
v 0.060000 0.200000 -0.352554
v 0.460000 0.200000 -0.352554
v 0.460000 0.200000 -0.153446
v 0.060000 7.900000 -0.153446
v 0.060000 7.900000 -0.352554
v 0.460000 7.900000 -0.352554
v 0.460000 7.900000 -0.153446
v 0.360000 -0.000000 -0.352554
v 0.360000 7.999999 -0.352554
v 0.360000 -0.000000 -0.153446
v 0.360000 7.999999 -0.153446
v 0.360000 0.200000 -0.153446
v 0.360000 0.200000 -0.352554
v 0.360000 7.900000 -0.153446
v 0.360000 7.900000 -0.352554
v 0.360000 7.999999 -0.456055
v 0.360000 7.900000 -0.456055
v 0.360000 7.999999 -0.049945
v 0.360000 7.900000 -0.049945
v 0.360000 0.200000 -0.049945
v 0.360000 -0.000000 -0.049945
v 0.360000 0.200000 -0.456055
v 0.360000 -0.000000 -0.456055
v 0.160000 -0.000000 -0.352554
v 0.160000 7.999999 -0.153446
v 0.160000 0.200000 -0.153446
v 0.160000 7.900000 -0.153446
v 0.160000 7.999999 -0.456055
v 0.160000 7.900000 -0.049945
v 0.160000 -0.000000 -0.049945
v 0.160000 0.200000 -0.456055
v 0.160000 7.999999 -0.352554
v 0.160000 -0.000000 -0.153446
v 0.160000 0.200000 -0.352554
v 0.160000 7.900000 -0.352554
v 0.160000 7.900000 -0.456055
v 0.160000 7.999999 -0.049945
v 0.160000 0.200000 -0.049945
v 0.160000 -0.000000 -0.456055
vn -1.0000 -0.0000 -0.0000
vn 1.0000 -0.0000 -0.0000
vn -0.0000 -1.0000 -0.0000
vn -0.0000 1.0000 -0.0000
vn -0.0000 -0.0000 1.0000
vn -0.0000 -0.0000 -1.0000
vt 0.375000 0.000000
vt 0.125000 0.750000
vt 0.625000 0.000000
vt 0.875000 0.750000
vt 0.375000 0.250000
vt 0.125000 0.500000
vt 0.625000 0.250000
vt 0.875000 0.500000
vt 0.375000 0.750000
vt 0.625000 0.750000
vt 0.375000 0.500000
vt 0.625000 0.500000
vt 0.500000 0.000000
vt 0.500000 1.000000
vt 0.500000 0.250000
vt 0.500000 0.500000
vt 0.500000 0.750000
vt 0.562500 0.000000
vt 0.562500 1.000000
vt 0.562500 0.250000
vt 0.562500 0.500000
vt 0.562500 0.750000
vt 0.375000 0.375000
vt 0.250000 0.500000
vt 0.750000 0.500000
vt 0.625000 0.375000
vt 0.375000 0.875000
vt 0.250000 0.750000
vt 0.625000 0.875000
vt 0.750000 0.750000
vt 0.500000 0.875000
vt 0.500000 0.375000
vt 0.562500 0.875000
vt 0.562500 0.375000
vt 0.625000 0.375000
vt 0.562500 0.375000
vt 0.625000 0.875000
vt 0.562500 0.875000
vt 0.500000 0.875000
vt 0.375000 0.875000
vt 0.500000 0.375000
vt 0.375000 0.375000
vt 0.375000 0.312500
vt 0.187500 0.500000
vt 0.812500 0.750000
vt 0.625000 0.937500
vt 0.500000 0.937500
vt 0.562500 0.937500
vt 0.625000 0.312500
vt 0.562500 0.937500
vt 0.375000 0.937500
vt 0.500000 0.312500
vt 0.625000 0.312500
vt 0.812500 0.500000
vt 0.375000 0.937500
vt 0.187500 0.750000
vt 0.500000 0.312500
vt 0.562500 0.312500
vt 0.562500 0.312500
vt 0.625000 0.937500
vt 0.500000 0.937500
vt 0.375000 0.312500
s 0
usemtl metal
f 13/18/1 2/3/1 4/7/1 14/20/1
f 15/21/2 8/12/2 6/10/2 16/22/2
f 17/24/3 7/11/3 5/9/3 19/28/3
f 41/54/4 4/8/4 2/4/4 34/45/4
f 7/11/2 11/16/2 12/17/2 5/9/2
f 1/1/1 9/13/1 10/15/1 3/5/1
f 35/47/1 36/48/1 44/58/1 43/57/1
f 21/31/4 12/17/4 11/16/4 22/32/4
f 23/33/3 24/34/3 15/21/3 16/22/3
f 43/57/4 10/15/4 9/13/4 35/47/4
f 16/22/5 6/10/5 20/30/5 23/33/5
f 33/43/3 48/62/3 32/42/3 17/23/3
f 23/33/2 20/29/2 27/37/2 28/38/2
f 48/62/6 40/52/6 31/41/6 32/42/6
f 35/47/4 47/61/4 29/39/4 21/31/4
f 34/46/4 46/60/4 27/37/4 20/29/4
f 44/58/3 45/59/3 26/36/3 24/34/3
f 45/59/6 37/49/6 25/35/6 26/36/6
f 43/57/6 44/58/6 24/34/6 22/32/6
f 21/31/2 22/32/2 24/34/2 23/33/2
f 8/12/4 18/25/4 20/30/4 6/10/4
f 33/44/3 17/24/3 19/28/3 42/56/3
f 3/6/3 33/44/3 42/56/3 1/2/3
f 44/58/3 36/48/3 13/18/3 14/20/3
f 22/32/4 31/41/4 40/52/4 43/57/4
f 19/27/3 30/40/3 39/51/3 42/55/3
f 30/40/5 29/39/5 47/61/5 39/51/5
f 23/33/3 28/38/3 38/50/3 36/48/3
f 28/38/5 27/37/5 46/60/5 38/50/5
f 18/26/4 25/35/4 37/49/4 41/53/4
f 21/31/5 23/33/5 36/48/5 35/47/5
f 18/25/4 41/54/4 34/45/4 20/30/4
f 34/46/1 36/48/1 38/50/1 46/60/1
f 13/19/5 36/48/5 34/46/5 2/4/5
f 37/49/1 45/59/1 44/58/1 41/53/1
f 4/8/6 41/54/6 44/58/6 14/20/6
f 24/34/2 26/36/2 25/35/2 18/26/2
f 8/12/6 15/21/6 24/34/6 18/26/6
f 12/17/5 21/31/5 19/28/5 5/9/5
f 19/28/2 21/31/2 29/39/2 30/40/2
f 7/11/6 17/24/6 22/32/6 11/16/6
f 17/24/2 32/42/2 31/41/2 22/32/2
f 10/15/6 43/57/6 33/44/6 3/6/6
f 40/52/1 48/62/1 33/44/1 43/57/1
f 35/47/1 42/55/1 39/51/1 47/61/1
f 1/2/5 42/56/5 35/47/5 9/14/5
