# Blender 3.4.1
# www.blender.org
mtllib 8x8_wall_2_window_noglass.mtl
o wall
v 0.000000 0.000000 -0.099141
v 0.000000 8.000000 -0.099141
v 0.000000 0.000000 -0.499141
v 0.000000 8.000000 -0.499141
v 8.000000 0.000000 -0.099141
v 8.000000 8.000000 -0.099141
v 8.000000 0.000000 -0.499141
v 8.000000 8.000000 -0.499141
v 0.000000 0.204253 -0.099141
v 0.000000 0.204253 -0.499141
v 8.000000 0.204253 -0.499141
v 8.000000 0.204253 -0.099141
v 0.000000 7.800000 -0.099141
v 0.000000 7.800000 -0.499141
v 8.000000 7.800000 -0.499141
v 8.000000 7.800000 -0.099141
v 0.000000 7.800000 -0.602641
v 0.000000 8.000000 -0.602641
v 8.000000 8.000000 -0.602641
v 8.000000 7.800000 -0.602641
v 8.000000 7.800000 0.004359
v 8.000000 8.000000 0.004359
v 0.000000 8.000000 0.004359
v 0.000000 7.800000 0.004359
v 8.000000 0.000000 0.004359
v 8.000000 0.204253 0.004359
v 0.000000 0.204253 0.004359
v 0.000000 0.000000 0.004359
v 0.000000 0.000000 -0.602641
v 0.000000 0.204253 -0.602641
v 8.000000 0.204253 -0.602641
v 8.000000 0.000000 -0.602641
v 0.000000 3.001742 -0.499141
v 8.000000 3.001742 -0.499141
v 8.000000 3.001742 -0.099141
v 0.000000 3.001742 -0.099141
v 0.000000 4.997743 -0.099141
v 0.000000 4.997743 -0.499141
v 8.000000 4.997743 -0.499141
v 8.000000 4.997743 -0.099141
v 2.999650 3.001742 -0.499141
v 2.999650 3.001742 -0.099141
v 2.999650 4.997743 -0.499141
v 2.999650 4.997743 -0.099141
v 0.899650 3.001742 -0.099141
v 0.899650 4.997743 -0.099141
v 0.899650 3.001742 -0.499141
v 0.899650 4.997743 -0.499141
v 2.250844 3.001742 -0.269929
v 2.250844 5.004148 -0.269929
v 2.250844 3.001742 -0.306057
v 2.250844 5.004148 -0.306057
v 2.349156 3.001742 -0.269929
v 2.349156 5.004148 -0.269929
v 2.349156 3.001742 -0.306057
v 2.349156 5.004148 -0.306057
v 2.250844 3.947189 -0.269929
v 2.250844 3.947189 -0.306057
v 2.349156 3.947189 -0.306057
v 2.349156 3.947189 -0.269929
v 2.250844 4.047791 -0.269929
v 2.250844 4.047791 -0.306057
v 2.349156 4.047791 -0.306057
v 2.349156 4.047791 -0.269929
v 3.007452 3.947189 -0.306057
v 3.007452 4.047791 -0.306057
v 3.007452 4.047791 -0.269929
v 3.007452 3.947189 -0.269929
v 0.882600 3.947189 -0.269929
v 0.882600 4.047791 -0.269929
v 0.882600 4.047791 -0.306057
v 0.882600 3.947189 -0.306057
v 1.647328 4.047791 -0.269929
v 1.647328 3.947189 -0.269929
v 1.647328 4.047791 -0.306057
v 1.647328 3.947189 -0.306057
v 1.552672 4.047791 -0.269929
v 1.552672 4.047791 -0.306057
v 1.552672 3.947189 -0.306057
v 1.552672 3.947189 -0.269929
v 1.647328 2.997488 -0.269932
v 1.552672 2.997488 -0.269932
v 1.552672 2.997489 -0.306060
v 1.647328 2.997489 -0.306060
v 1.647328 5.006655 -0.306057
v 1.552672 5.006655 -0.306057
v 1.552672 5.006655 -0.269929
v 1.647328 5.006655 -0.269929
v 7.040834 3.001742 -0.499141
v 7.040834 4.997743 -0.499141
v 7.040834 3.001742 -0.099141
v 7.040834 4.997743 -0.099141
v 4.940834 3.001742 -0.099141
v 4.940834 4.997743 -0.099141
v 4.940834 3.001742 -0.499141
v 4.940834 4.997743 -0.499141
v 6.303087 3.001697 -0.273942
v 6.303087 5.004103 -0.273942
v 6.303087 3.001697 -0.310070
v 6.303087 5.004103 -0.310070
v 6.401399 3.001697 -0.273942
v 6.401399 5.004103 -0.273942
v 6.401399 3.001697 -0.310070
v 6.401399 5.004103 -0.310070
v 6.303087 3.947144 -0.273942
v 6.303087 3.947144 -0.310070
v 6.401399 3.947144 -0.310070
v 6.401399 3.947144 -0.273942
v 6.303087 4.047745 -0.273942
v 6.303087 4.047745 -0.310070
v 6.401399 4.047745 -0.310070
v 6.401399 4.047745 -0.273942
v 7.059695 3.947144 -0.310070
v 7.059695 4.047745 -0.310070
v 7.059695 4.047745 -0.273942
v 7.059695 3.947144 -0.273942
v 4.934843 3.947144 -0.273942
v 4.934843 4.047745 -0.273942
v 4.934843 4.047745 -0.310070
v 4.934843 3.947144 -0.310070
v 5.699571 4.047745 -0.273942
v 5.699571 3.947144 -0.273942
v 5.699571 4.047745 -0.310070
v 5.699571 3.947144 -0.310070
v 5.604914 4.047745 -0.273942
v 5.604914 4.047745 -0.310070
v 5.604914 3.947144 -0.310070
v 5.604914 3.947144 -0.273942
v 5.699571 2.997443 -0.273945
v 5.604914 2.997443 -0.273945
v 5.604914 2.997444 -0.310073
v 5.699571 2.997444 -0.310073
v 5.699571 5.006609 -0.310070
v 5.604914 5.006609 -0.310070
v 5.604914 5.006609 -0.273942
v 5.699571 5.006609 -0.273942
vn -1.0000 -0.0000 -0.0000
vn 1.0000 -0.0000 -0.0000
vn -0.0000 -1.0000 -0.0000
vn -0.0000 1.0000 -0.0000
vn -0.0000 -0.0000 1.0000
vn -0.0000 -0.0000 -1.0000
vt 0.125000 0.750000
vt 0.375000 0.000000
vt 0.375000 1.000000
vt 0.625000 0.000000
vt 0.875000 0.750000
vt 0.625000 1.000000
vt 0.125000 0.500000
vt 0.375000 0.250000
vt 0.875000 0.500000
vt 0.625000 0.250000
vt 0.375000 0.750000
vt 0.625000 0.750000
vt 0.375000 0.500000
vt 0.625000 0.500000
vt 0.500000 0.000000
vt 0.500000 1.000000
vt 0.500000 0.250000
vt 0.500000 0.500000
vt 0.500000 0.750000
vt 0.562500 0.000000
vt 0.562500 1.000000
vt 0.562500 0.250000
vt 0.562500 0.500000
vt 0.562500 0.750000
vt 0.562500 0.250000
vt 0.625000 0.250000
vt 0.625000 0.500000
vt 0.562500 0.500000
vt 0.562500 0.750000
vt 0.625000 0.750000
vt 0.625000 1.000000
vt 0.562500 1.000000
vt 0.375000 0.750000
vt 0.500000 0.750000
vt 0.500000 1.000000
vt 0.375000 1.000000
vt 0.375000 0.250000
vt 0.500000 0.250000
vt 0.500000 0.500000
vt 0.375000 0.500000
vt 0.531250 0.250000
vt 0.531250 0.500000
vt 0.531250 0.750000
vt 0.531250 0.000000
vt 0.531250 1.000000
vt 0.546875 0.000000
vt 0.546875 1.000000
vt 0.546875 0.250000
vt 0.546875 0.500000
vt 0.546875 0.750000
vt 0.531250 0.375000
vt 0.531250 0.875000
vt 0.546875 0.375000
vt 0.546875 0.875000
vt 0.531250 0.937500
vt 0.546875 0.937500
vt 0.531250 0.312500
vt 0.546875 0.312500
vt 0.125000 0.750000
vt 0.375000 1.000000
vt 0.375000 0.000000
vt 0.625000 0.000000
vt 0.625000 1.000000
vt 0.875000 0.750000
vt 0.125000 0.500000
vt 0.375000 0.250000
vt 0.625000 0.250000
vt 0.875000 0.500000
vt 0.375000 0.750000
vt 0.625000 0.750000
vt 0.375000 0.500000
vt 0.625000 0.500000
vt 0.500000 1.000000
vt 0.500000 0.000000
vt 0.500000 0.250000
vt 0.500000 0.500000
vt 0.500000 0.750000
vt 0.562500 1.000000
vt 0.562500 0.000000
vt 0.562500 0.250000
vt 0.562500 0.500000
vt 0.562500 0.750000
vt 0.500000 0.500000
vt 0.562500 0.500000
vt 0.562500 0.750000
vt 0.500000 0.750000
vt 0.500000 0.000000
vt 0.562500 0.000000
vt 0.562500 0.250000
vt 0.500000 0.250000
vt 0.562500 0.000000
vt 0.500000 0.000000
vt 0.562500 0.250000
vt 0.500000 0.250000
vt 0.562500 0.000000
vt 0.562500 0.250000
vt 0.500000 0.250000
vt 0.500000 0.000000
vt 0.500000 0.000000
vt 0.500000 0.000000
vt 0.500000 0.250000
vt 0.500000 0.250000
vt 0.562500 0.250000
vt 0.562500 0.250000
vt 0.562500 0.000000
vt 0.562500 0.000000
vt 0.531250 0.437500
vt 0.546875 0.437500
vt 0.531250 0.812500
vt 0.546875 0.812500
vt 0.531250 0.843750
vt 0.546875 0.843750
vt 0.531250 0.406250
vt 0.546875 0.406250
vt 0.125000 0.750000
vt 0.375000 1.000000
vt 0.375000 0.000000
vt 0.625000 0.000000
vt 0.625000 1.000000
vt 0.875000 0.750000
vt 0.125000 0.500000
vt 0.375000 0.250000
vt 0.625000 0.250000
vt 0.875000 0.500000
vt 0.375000 0.750000
vt 0.625000 0.750000
vt 0.375000 0.500000
vt 0.625000 0.500000
vt 0.500000 1.000000
vt 0.500000 0.000000
vt 0.500000 0.250000
vt 0.500000 0.500000
vt 0.500000 0.750000
vt 0.562500 1.000000
vt 0.562500 0.000000
vt 0.562500 0.250000
vt 0.562500 0.500000
vt 0.562500 0.750000
vt 0.500000 0.500000
vt 0.562500 0.500000
vt 0.562500 0.750000
vt 0.500000 0.750000
vt 0.500000 0.000000
vt 0.562500 0.000000
vt 0.562500 0.250000
vt 0.500000 0.250000
vt 0.562500 0.000000
vt 0.500000 0.000000
vt 0.562500 0.250000
vt 0.500000 0.250000
vt 0.562500 0.000000
vt 0.562500 0.250000
vt 0.500000 0.250000
vt 0.500000 0.000000
vt 0.500000 0.000000
vt 0.500000 0.000000
vt 0.500000 0.250000
vt 0.500000 0.250000
vt 0.562500 0.250000
vt 0.562500 0.250000
vt 0.562500 0.000000
vt 0.562500 0.000000
s 0
usemtl metal
f 13/20/1 2/4/1 4/10/1 14/22/1
f 15/23/2 8/14/2 6/12/2 16/24/2
f 3/7/3 7/13/3 5/11/3 1/1/3
f 8/14/4 4/9/4 2/5/4 6/12/4
f 7/13/2 11/18/2 12/19/2 5/11/2
f 1/2/1 9/15/1 10/17/1 3/8/1
f 40/50/5 16/24/5 13/21/5 37/47/5 46/56/5 44/54/5 94/112/5 92/110/5
f 39/49/2 15/23/2 16/24/2 40/50/2
f 38/48/6 14/22/6 15/23/6 39/49/6 90/108/6 96/114/6 43/53/6 48/58/6
f 37/46/1 13/20/1 14/22/1 38/48/1
f 17/25/6 18/26/6 19/27/6 20/28/6
f 4/10/1 18/26/1 17/25/1 14/22/1
f 8/14/4 19/27/4 18/26/4 4/10/4
f 15/23/2 20/28/2 19/27/2 8/14/2
f 14/22/3 17/25/3 20/28/3 15/23/3
f 21/29/5 22/30/5 23/31/5 24/32/5
f 6/12/2 22/30/2 21/29/2 16/24/2
f 2/6/4 23/31/4 22/30/4 6/12/4
f 13/21/1 24/32/1 23/31/1 2/6/1
f 16/24/3 21/29/3 24/32/3 13/21/3
f 25/33/5 26/34/5 27/35/5 28/36/5
f 12/19/2 26/34/2 25/33/2 5/11/2
f 9/16/4 27/35/4 26/34/4 12/19/4
f 1/3/1 28/36/1 27/35/1 9/16/1
f 5/11/3 25/33/3 28/36/3 1/3/3
f 29/37/6 30/38/6 31/39/6 32/40/6
f 10/17/1 30/38/1 29/37/1 3/8/1
f 11/18/4 31/39/4 30/38/4 10/17/4
f 7/13/2 32/40/2 31/39/2 11/18/2
f 3/8/3 29/37/3 32/40/3 7/13/3
f 9/15/1 36/44/1 33/41/1 10/17/1
f 10/17/6 33/41/6 47/57/6 41/51/6 95/113/6 89/107/6 34/42/6 11/18/6
f 11/18/2 34/42/2 35/43/2 12/19/2
f 12/19/5 35/43/5 91/109/5 93/111/5 42/52/5 45/55/5 36/45/5 9/16/5
f 36/44/1 37/46/1 38/48/1 33/41/1
f 89/107/6 90/108/6 39/49/6 34/42/6
f 34/42/2 39/49/2 40/50/2 35/43/2
f 45/55/5 46/56/5 37/47/5 36/45/5
f 93/111/5 94/112/5 44/54/5 42/52/5
f 42/52/1 44/54/1 43/53/1 41/51/1
f 33/41/6 38/48/6 48/58/6 47/57/6
f 47/57/4 45/55/4 42/52/4 41/51/4
f 48/58/3 43/53/3 44/54/3 46/56/3
f 47/57/2 48/58/2 46/56/2 45/55/2
f 62/80/6 52/67/6 56/72/6 63/81/6
f 61/79/1 50/62/1 52/67/1 62/80/1
f 63/81/2 56/72/2 54/70/2 64/82/2
f 64/82/5 54/70/5 50/63/5 61/78/5
f 51/65/3 55/71/3 53/69/3 49/59/3
f 56/72/4 52/68/4 50/64/4 54/70/4
f 53/69/5 60/77/5 57/73/5 49/60/5
f 55/71/2 59/76/2 60/77/2 53/69/2
f 51/66/6 58/75/6 59/76/6 55/71/6
f 49/61/1 57/74/1 58/75/1 51/66/1
f 60/77/5 64/82/5 61/78/5 57/73/5
f 58/75/6 62/80/6 63/81/6 59/76/6
f 65/83/2 66/84/2 67/85/2 68/86/2
f 63/81/6 66/84/6 65/83/6 59/76/6
f 64/82/4 67/85/4 66/84/4 63/81/4
f 60/77/5 68/86/5 67/85/5 64/82/5
f 59/76/3 65/83/3 68/86/3 60/77/3
f 69/87/1 70/88/1 71/89/1 72/90/1
f 77/95/5 70/88/5 69/87/5 80/98/5
f 78/96/4 71/89/4 70/88/4 77/95/4
f 79/97/6 72/90/6 71/89/6 78/96/6
f 80/98/3 69/87/3 72/90/3 79/97/3
f 57/74/3 74/92/3 76/94/3 58/75/3
f 58/75/6 76/94/6 75/93/6 62/80/6
f 62/80/4 75/93/4 73/91/4 61/79/4
f 61/79/5 73/91/5 74/92/5 57/74/5
f 76/94/6 79/97/6 78/96/6 75/93/6
f 73/91/5 77/95/5 80/98/5 74/92/5
f 81/99/3 82/100/3 83/101/3 84/102/3
f 80/98/5 82/100/5 81/99/5 74/92/5
f 79/97/1 83/101/1 82/100/1 80/98/1
f 76/94/6 84/102/6 83/101/6 79/97/6
f 74/92/2 81/99/2 84/102/2 76/94/2
f 85/103/4 86/104/4 87/105/4 88/106/4
f 78/96/6 86/104/6 85/103/6 75/93/6
f 77/95/1 87/105/1 86/104/1 78/96/1
f 73/91/5 88/106/5 87/105/5 77/95/5
f 75/93/2 85/103/2 88/106/2 73/91/2
f 35/43/5 40/50/5 92/110/5 91/109/5
f 96/114/3 90/108/3 92/110/3 94/112/3
f 41/51/6 43/53/6 96/114/6 95/113/6
f 91/109/1 92/110/1 90/108/1 89/107/1
f 95/113/2 96/114/2 94/112/2 93/111/2
f 95/113/4 93/111/4 91/109/4 89/107/4
f 110/136/6 100/123/6 104/128/6 111/137/6
f 109/135/1 98/118/1 100/123/1 110/136/1
f 111/137/2 104/128/2 102/126/2 112/138/2
f 112/138/5 102/126/5 98/119/5 109/134/5
f 99/121/3 103/127/3 101/125/3 97/115/3
f 104/128/4 100/124/4 98/120/4 102/126/4
f 101/125/5 108/133/5 105/129/5 97/116/5
f 103/127/2 107/132/2 108/133/2 101/125/2
f 99/122/6 106/131/6 107/132/6 103/127/6
f 97/117/1 105/130/1 106/131/1 99/122/1
f 108/133/5 112/138/5 109/134/5 105/129/5
f 106/131/6 110/136/6 111/137/6 107/132/6
f 113/139/2 114/140/2 115/141/2 116/142/2
f 111/137/6 114/140/6 113/139/6 107/132/6
f 112/138/4 115/141/4 114/140/4 111/137/4
f 108/133/5 116/142/5 115/141/5 112/138/5
f 107/132/3 113/139/3 116/142/3 108/133/3
f 117/143/1 118/144/1 119/145/1 120/146/1
f 125/151/5 118/144/5 117/143/5 128/154/5
f 126/152/4 119/145/4 118/144/4 125/151/4
f 127/153/6 120/146/6 119/145/6 126/152/6
f 128/154/3 117/143/3 120/146/3 127/153/3
f 105/130/3 122/148/3 124/150/3 106/131/3
f 106/131/6 124/150/6 123/149/6 110/136/6
f 110/136/4 123/149/4 121/147/4 109/135/4
f 109/135/5 121/147/5 122/148/5 105/130/5
f 124/150/6 127/153/6 126/152/6 123/149/6
f 121/147/5 125/151/5 128/154/5 122/148/5
f 129/155/3 130/156/3 131/157/3 132/158/3
f 128/154/5 130/156/5 129/155/5 122/148/5
f 127/153/1 131/157/1 130/156/1 128/154/1
f 124/150/6 132/158/6 131/157/6 127/153/6
f 122/148/2 129/155/2 132/158/2 124/150/2
f 133/159/4 134/160/4 135/161/4 136/162/4
f 126/152/6 134/160/6 133/159/6 123/149/6
f 125/151/1 135/161/1 134/160/1 126/152/1
f 121/147/5 136/162/5 135/161/5 125/151/5
f 123/149/2 133/159/2 136/162/2 121/147/2
