# Blender 3.4.1
# www.blender.org
mtllib 8x8_wall_window.mtl
o wall
v 0.000000 0.000000 -0.099141
v 0.000000 8.100000 -0.099141
v 0.000000 0.000000 -0.499141
v 0.000000 8.100000 -0.499141
v 8.000000 0.000000 -0.099141
v 8.000000 8.100000 -0.099141
v 8.000000 0.000000 -0.499141
v 8.000000 8.100000 -0.499141
v 0.000000 0.204253 -0.099141
v 0.000000 0.204253 -0.499141
v 8.000000 0.204253 -0.499141
v 8.000000 0.204253 -0.099141
v 0.000000 7.900001 -0.099141
v 0.000000 7.900001 -0.499141
v 8.000000 7.900001 -0.499141
v 8.000000 7.900001 -0.099141
v 0.000000 7.900001 -0.602641
v 0.000000 8.100000 -0.602641
v 8.000000 8.100000 -0.602641
v 8.000000 7.900001 -0.602641
v 8.000000 7.900001 0.004359
v 8.000000 8.100000 0.004359
v 0.000000 8.100000 0.004359
v 0.000000 7.900001 0.004359
v 8.000000 0.000000 0.004359
v 8.000000 0.204253 0.004359
v 0.000000 0.204253 0.004359
v 0.000000 0.000000 0.004359
v 0.000000 0.000000 -0.602641
v 0.000000 0.204253 -0.602641
v 8.000000 0.204253 -0.602641
v 8.000000 0.000000 -0.602641
v 0.000000 3.001742 -0.499141
v 8.000000 3.001742 -0.499141
v 8.000000 3.001742 -0.099141
v 0.000000 3.001742 -0.099141
v 0.000000 4.997743 -0.099141
v 0.000000 4.997743 -0.499141
v 8.000000 4.997743 -0.499141
v 8.000000 4.997743 -0.099141
v 5.050972 3.001742 -0.499141
v 5.050972 3.001742 -0.099141
v 5.050972 4.997743 -0.499141
v 5.050972 4.997743 -0.099141
v 2.950972 3.001742 -0.099141
v 2.950972 4.997743 -0.099141
v 2.950972 3.001742 -0.499141
v 2.950972 4.997743 -0.499141
v 2.936909 3.001742 -0.251565
v 2.936909 5.009304 -0.251565
v 2.936909 3.001742 -0.300110
v 2.936909 5.009304 -0.300110
v 5.054610 3.001742 -0.251565
v 5.054610 5.009304 -0.251565
v 5.054610 3.001742 -0.300110
v 5.054610 5.009304 -0.300110
v 4.302166 3.001742 -0.215437
v 4.302166 5.004148 -0.215437
v 4.302166 3.001742 -0.251565
v 4.302166 5.004148 -0.251565
v 4.400478 3.001742 -0.215437
v 4.400478 5.004148 -0.215437
v 4.400478 3.001742 -0.251565
v 4.400478 5.004148 -0.251565
v 4.302166 3.947189 -0.215437
v 4.302166 3.947189 -0.251565
v 4.400478 3.947189 -0.251565
v 4.400478 3.947189 -0.215437
v 4.302166 4.047791 -0.215437
v 4.302166 4.047791 -0.251565
v 4.400478 4.047791 -0.251565
v 4.400478 4.047791 -0.215437
v 5.058774 3.947189 -0.251565
v 5.058774 4.047791 -0.251565
v 5.058774 4.047791 -0.215437
v 5.058774 3.947189 -0.215437
v 2.933921 3.947189 -0.215437
v 2.933921 4.047791 -0.215437
v 2.933921 4.047791 -0.251565
v 2.933921 3.947189 -0.251565
v 4.302166 3.001742 -0.300437
v 4.302166 5.004148 -0.300437
v 4.302166 3.001742 -0.336565
v 4.302166 5.004148 -0.336565
v 4.400478 3.001742 -0.300437
v 4.400478 5.004148 -0.300437
v 4.400478 3.001742 -0.336565
v 4.400478 5.004148 -0.336565
v 4.302166 3.947189 -0.300437
v 4.302166 3.947189 -0.336565
v 4.400478 3.947189 -0.336565
v 4.400478 3.947189 -0.300437
v 4.302166 4.047791 -0.300437
v 4.302166 4.047791 -0.336565
v 4.400478 4.047791 -0.336565
v 4.400478 4.047791 -0.300437
v 5.058774 3.947189 -0.336565
v 5.058774 4.047791 -0.336565
v 5.058774 4.047791 -0.300437
v 5.058774 3.947189 -0.300437
v 2.933921 3.947189 -0.300437
v 2.933921 4.047791 -0.300437
v 2.933921 4.047791 -0.336565
v 2.933921 3.947189 -0.336565
v 3.698650 4.047791 -0.215437
v 3.698650 3.947189 -0.215437
v 3.698650 4.047791 -0.251565
v 3.698650 3.947189 -0.251565
v 3.698650 4.047791 -0.300437
v 3.698650 3.947189 -0.300437
v 3.698650 4.047791 -0.336565
v 3.698650 3.947189 -0.336565
v 3.603993 4.047791 -0.215437
v 3.603993 4.047791 -0.251565
v 3.603993 3.947189 -0.251565
v 3.603993 4.047791 -0.300437
v 3.603993 4.047791 -0.336565
v 3.603993 3.947189 -0.336565
v 3.603993 3.947189 -0.215437
v 3.603993 3.947189 -0.300437
v 3.698650 2.997488 -0.300440
v 3.603993 2.997488 -0.300440
v 3.603993 2.997489 -0.336568
v 3.698650 2.997489 -0.336568
v 3.698650 5.006655 -0.336565
v 3.603993 5.006655 -0.336565
v 3.603993 5.006655 -0.300437
v 3.698650 5.006655 -0.300437
v 3.698650 2.997488 -0.215441
v 3.603993 2.997488 -0.215441
v 3.603993 2.997489 -0.251568
v 3.698650 2.997489 -0.251568
v 3.698650 5.006655 -0.251565
v 3.603993 5.006655 -0.251565
v 3.603993 5.006655 -0.215437
v 3.698650 5.006655 -0.215437
vn -1.0000 -0.0000 -0.0000
vn 1.0000 -0.0000 -0.0000
vn -0.0000 -1.0000 -0.0000
vn -0.0000 1.0000 -0.0000
vn -0.0000 -0.0000 1.0000
vn -0.0000 -0.0000 -1.0000
vt 0.125000 0.750000
vt 0.375000 0.000000
vt 0.375000 1.000000
vt 0.625000 0.000000
vt 0.875000 0.750000
vt 0.625000 1.000000
vt 0.125000 0.500000
vt 0.375000 0.250000
vt 0.875000 0.500000
vt 0.625000 0.250000
vt 0.375000 0.750000
vt 0.625000 0.750000
vt 0.375000 0.500000
vt 0.625000 0.500000
vt 0.500000 0.000000
vt 0.500000 1.000000
vt 0.500000 0.250000
vt 0.500000 0.500000
vt 0.500000 0.750000
vt 0.562500 0.000000
vt 0.562500 1.000000
vt 0.562500 0.250000
vt 0.562500 0.500000
vt 0.562500 0.750000
vt 0.562500 0.250000
vt 0.625000 0.250000
vt 0.625000 0.500000
vt 0.562500 0.500000
vt 0.562500 0.750000
vt 0.625000 0.750000
vt 0.625000 1.000000
vt 0.562500 1.000000
vt 0.375000 0.750000
vt 0.500000 0.750000
vt 0.500000 1.000000
vt 0.375000 1.000000
vt 0.375000 0.250000
vt 0.500000 0.250000
vt 0.500000 0.500000
vt 0.375000 0.500000
vt 0.531250 0.250000
vt 0.531250 0.500000
vt 0.531250 0.750000
vt 0.531250 0.000000
vt 0.531250 1.000000
vt 0.546875 0.000000
vt 0.546875 1.000000
vt 0.546875 0.250000
vt 0.546875 0.500000
vt 0.546875 0.750000
vt 0.531250 0.375000
vt 0.531250 0.875000
vt 0.546875 0.375000
vt 0.546875 0.875000
vt 0.531250 0.937500
vt 0.546875 0.937500
vt 0.531250 0.312500
vt 0.546875 0.312500
vt 0.375000 0.000000
vt 0.375000 1.000000
vt 0.125000 0.750000
vt 0.625000 0.000000
vt 0.625000 1.000000
vt 0.875000 0.750000
vt 0.375000 0.250000
vt 0.125000 0.500000
vt 0.625000 0.250000
vt 0.875000 0.500000
vt 0.375000 0.750000
vt 0.625000 0.750000
vt 0.375000 0.500000
vt 0.625000 0.500000
vt 0.125000 0.750000
vt 0.375000 1.000000
vt 0.375000 0.000000
vt 0.625000 0.000000
vt 0.625000 1.000000
vt 0.875000 0.750000
vt 0.125000 0.500000
vt 0.375000 0.250000
vt 0.625000 0.250000
vt 0.875000 0.500000
vt 0.375000 0.750000
vt 0.625000 0.750000
vt 0.375000 0.500000
vt 0.625000 0.500000
vt 0.500000 1.000000
vt 0.500000 0.000000
vt 0.500000 0.250000
vt 0.500000 0.500000
vt 0.500000 0.750000
vt 0.562500 1.000000
vt 0.562500 0.000000
vt 0.562500 0.250000
vt 0.562500 0.500000
vt 0.562500 0.750000
vt 0.500000 0.500000
vt 0.562500 0.500000
vt 0.562500 0.750000
vt 0.500000 0.750000
vt 0.500000 0.000000
vt 0.562500 0.000000
vt 0.562500 0.250000
vt 0.500000 0.250000
vt 0.125000 0.750000
vt 0.375000 1.000000
vt 0.375000 0.000000
vt 0.625000 0.000000
vt 0.625000 1.000000
vt 0.875000 0.750000
vt 0.125000 0.500000
vt 0.375000 0.250000
vt 0.625000 0.250000
vt 0.875000 0.500000
vt 0.375000 0.750000
vt 0.625000 0.750000
vt 0.375000 0.500000
vt 0.625000 0.500000
vt 0.500000 1.000000
vt 0.500000 0.000000
vt 0.500000 0.250000
vt 0.500000 0.500000
vt 0.500000 0.750000
vt 0.562500 1.000000
vt 0.562500 0.000000
vt 0.562500 0.250000
vt 0.562500 0.500000
vt 0.562500 0.750000
vt 0.500000 0.500000
vt 0.562500 0.500000
vt 0.562500 0.750000
vt 0.500000 0.750000
vt 0.500000 0.000000
vt 0.562500 0.000000
vt 0.562500 0.250000
vt 0.500000 0.250000
vt 0.562500 0.000000
vt 0.500000 0.000000
vt 0.562500 0.250000
vt 0.500000 0.250000
vt 0.562500 0.000000
vt 0.500000 0.000000
vt 0.562500 0.250000
vt 0.500000 0.250000
vt 0.562500 0.000000
vt 0.562500 0.250000
vt 0.500000 0.250000
vt 0.562500 0.000000
vt 0.562500 0.250000
vt 0.500000 0.250000
vt 0.500000 0.000000
vt 0.500000 0.000000
vt 0.500000 0.000000
vt 0.500000 0.000000
vt 0.500000 0.250000
vt 0.500000 0.250000
vt 0.562500 0.250000
vt 0.562500 0.250000
vt 0.562500 0.000000
vt 0.562500 0.000000
vt 0.500000 0.000000
vt 0.500000 0.000000
vt 0.500000 0.250000
vt 0.500000 0.250000
vt 0.562500 0.250000
vt 0.562500 0.250000
vt 0.562500 0.000000
vt 0.562500 0.000000
s 0
usemtl glass
f 49/59/1 50/62/1 52/67/1 51/65/1
f 51/65/6 52/67/6 56/72/6 55/71/6
f 55/71/2 56/72/2 54/70/2 53/69/2
f 53/69/5 54/70/5 50/63/5 49/60/5
f 51/66/3 55/71/3 53/69/3 49/61/3
f 56/72/4 52/68/4 50/64/4 54/70/4
usemtl metal
f 13/20/1 2/4/1 4/10/1 14/22/1
f 15/23/2 8/14/2 6/12/2 16/24/2
f 3/7/3 7/13/3 5/11/3 1/1/3
f 8/14/4 4/9/4 2/5/4 6/12/4
f 7/13/2 11/18/2 12/19/2 5/11/2
f 1/2/1 9/15/1 10/17/1 3/8/1
f 40/50/5 16/24/5 13/21/5 37/47/5 46/56/5 44/54/5
f 39/49/2 15/23/2 16/24/2 40/50/2
f 38/48/6 14/22/6 15/23/6 39/49/6 43/53/6 48/58/6
f 37/46/1 13/20/1 14/22/1 38/48/1
f 17/25/6 18/26/6 19/27/6 20/28/6
f 4/10/1 18/26/1 17/25/1 14/22/1
f 8/14/4 19/27/4 18/26/4 4/10/4
f 15/23/2 20/28/2 19/27/2 8/14/2
f 14/22/3 17/25/3 20/28/3 15/23/3
f 21/29/5 22/30/5 23/31/5 24/32/5
f 6/12/2 22/30/2 21/29/2 16/24/2
f 2/6/4 23/31/4 22/30/4 6/12/4
f 13/21/1 24/32/1 23/31/1 2/6/1
f 16/24/3 21/29/3 24/32/3 13/21/3
f 25/33/5 26/34/5 27/35/5 28/36/5
f 12/19/2 26/34/2 25/33/2 5/11/2
f 9/16/4 27/35/4 26/34/4 12/19/4
f 1/3/1 28/36/1 27/35/1 9/16/1
f 5/11/3 25/33/3 28/36/3 1/3/3
f 29/37/6 30/38/6 31/39/6 32/40/6
f 10/17/1 30/38/1 29/37/1 3/8/1
f 11/18/4 31/39/4 30/38/4 10/17/4
f 7/13/2 32/40/2 31/39/2 11/18/2
f 3/8/3 29/37/3 32/40/3 7/13/3
f 9/15/1 36/44/1 33/41/1 10/17/1
f 10/17/6 33/41/6 47/57/6 41/51/6 34/42/6 11/18/6
f 11/18/2 34/42/2 35/43/2 12/19/2
f 12/19/5 35/43/5 42/52/5 45/55/5 36/45/5 9/16/5
f 36/44/1 37/46/1 38/48/1 33/41/1
f 41/51/6 43/53/6 39/49/6 34/42/6
f 34/42/2 39/49/2 40/50/2 35/43/2
f 45/55/5 46/56/5 37/47/5 36/45/5
f 35/43/5 40/50/5 44/54/5 42/52/5
f 42/52/1 44/54/1 43/53/1 41/51/1
f 33/41/6 38/48/6 48/58/6 47/57/6
f 47/57/4 45/55/4 42/52/4 41/51/4
f 48/58/3 43/53/3 44/54/3 46/56/3
f 47/57/2 48/58/2 46/56/2 45/55/2
f 69/93/1 58/76/1 60/81/1 70/94/1
f 70/94/6 60/81/6 64/86/6 71/95/6
f 71/95/2 64/86/2 62/84/2 72/96/2
f 72/96/5 62/84/5 58/77/5 69/92/5
f 59/79/3 63/85/3 61/83/3 57/73/3
f 64/86/4 60/82/4 58/78/4 62/84/4
f 61/83/5 68/91/5 65/87/5 57/74/5
f 63/85/2 67/90/2 68/91/2 61/83/2
f 59/80/6 66/89/6 67/90/6 63/85/6
f 57/75/1 65/88/1 66/89/1 59/80/1
f 68/91/5 72/96/5 69/92/5 65/87/5
f 94/126/6 84/113/6 88/118/6 95/127/6
f 66/89/6 70/94/6 71/95/6 67/90/6
f 93/125/1 82/108/1 84/113/1 94/126/1
f 73/97/2 74/98/2 75/99/2 76/100/2
f 71/95/6 74/98/6 73/97/6 67/90/6
f 72/96/4 75/99/4 74/98/4 71/95/4
f 68/91/5 76/100/5 75/99/5 72/96/5
f 67/90/3 73/97/3 76/100/3 68/91/3
f 77/101/1 78/102/1 79/103/1 80/104/1
f 113/145/5 78/102/5 77/101/5 119/151/5
f 114/146/4 79/103/4 78/102/4 113/145/4
f 115/147/6 80/104/6 79/103/6 114/146/6
f 119/151/3 77/101/3 80/104/3 115/147/3
f 95/127/2 88/118/2 86/116/2 96/128/2
f 96/128/5 86/116/5 82/109/5 93/124/5
f 83/111/3 87/117/3 85/115/3 81/105/3
f 88/118/4 84/114/4 82/110/4 86/116/4
f 85/115/5 92/123/5 89/119/5 81/106/5
f 87/117/2 91/122/2 92/123/2 85/115/2
f 83/112/6 90/121/6 91/122/6 87/117/6
f 81/107/1 89/120/1 90/121/1 83/112/1
f 92/123/5 96/128/5 93/124/5 89/119/5
f 90/121/6 94/126/6 95/127/6 91/122/6
f 97/129/2 98/130/2 99/131/2 100/132/2
f 95/127/6 98/130/6 97/129/6 91/122/6
f 96/128/4 99/131/4 98/130/4 95/127/4
f 92/123/5 100/132/5 99/131/5 96/128/5
f 91/122/3 97/129/3 100/132/3 92/123/3
f 101/133/1 102/134/1 103/135/1 104/136/1
f 116/148/5 102/134/5 101/133/5 120/152/5
f 117/149/4 103/135/4 102/134/4 116/148/4
f 118/150/6 104/136/6 103/135/6 117/149/6
f 120/152/3 101/133/3 104/136/3 118/150/3
f 89/120/3 110/142/3 112/144/3 90/121/3
f 90/121/6 112/144/6 111/143/6 94/126/6
f 94/126/4 111/143/4 109/141/4 93/125/4
f 93/125/5 109/141/5 110/142/5 89/120/5
f 65/88/3 106/138/3 108/140/3 66/89/3
f 66/89/6 108/140/6 107/139/6 70/94/6
f 70/94/4 107/139/4 105/137/4 69/93/4
f 69/93/5 105/137/5 106/138/5 65/88/5
f 112/144/6 118/150/6 117/149/6 111/143/6
f 109/141/5 116/148/5 120/152/5 110/142/5
f 108/140/6 115/147/6 114/146/6 107/139/6
f 105/137/5 113/145/5 119/151/5 106/138/5
f 121/153/3 122/154/3 123/155/3 124/156/3
f 120/152/5 122/154/5 121/153/5 110/142/5
f 118/150/1 123/155/1 122/154/1 120/152/1
f 112/144/6 124/156/6 123/155/6 118/150/6
f 110/142/2 121/153/2 124/156/2 112/144/2
f 125/157/4 126/158/4 127/159/4 128/160/4
f 117/149/6 126/158/6 125/157/6 111/143/6
f 116/148/1 127/159/1 126/158/1 117/149/1
f 109/141/5 128/160/5 127/159/5 116/148/5
f 111/143/2 125/157/2 128/160/2 109/141/2
f 129/161/3 130/162/3 131/163/3 132/164/3
f 119/151/5 130/162/5 129/161/5 106/138/5
f 115/147/1 131/163/1 130/162/1 119/151/1
f 108/140/6 132/164/6 131/163/6 115/147/6
f 106/138/2 129/161/2 132/164/2 108/140/2
f 133/165/4 134/166/4 135/167/4 136/168/4
f 114/146/6 134/166/6 133/165/6 107/139/6
f 113/145/1 135/167/1 134/166/1 114/146/1
f 105/137/5 136/168/5 135/167/5 113/145/5
f 107/139/2 133/165/2 136/168/2 105/137/2
