# Blender 3.4.1
# www.blender.org
mtllib barrel.mtl
o barrel
v 0.001027 -0.001890 -0.558051
v 0.001027 1.998110 -0.466057
v 0.330187 -0.001890 -0.451101
v 0.276114 1.998110 -0.376676
v 0.533619 -0.001890 -0.171101
v 0.446128 1.998110 -0.142673
v 0.533619 -0.001890 0.174998
v 0.446128 1.998110 0.146571
v 0.330187 -0.001890 0.454998
v 0.276114 1.998110 0.380574
v 0.001027 -0.001890 0.561949
v 0.001027 1.998110 0.469955
v -0.328132 -0.001890 0.454998
v -0.274060 1.998110 0.380574
v -0.531564 -0.001890 0.174998
v -0.444073 1.998110 0.146571
v -0.531564 -0.001890 -0.171101
v -0.444073 1.998110 -0.142673
v -0.328132 -0.001890 -0.451101
v -0.274060 1.998110 -0.376676
v 0.001027 0.598110 -0.798051
v 0.471256 0.598110 -0.645265
v 0.761873 0.598110 -0.245265
v 0.761873 0.598110 0.249162
v 0.471256 0.598110 0.649162
v 0.001027 0.598110 0.801949
v -0.469201 0.598110 0.649162
v -0.759818 0.598110 0.249162
v -0.759818 0.598110 -0.245265
v -0.469201 0.598110 -0.645265
v 0.001027 1.398110 -0.798051
v 0.471256 1.398110 -0.645265
v 0.761873 1.398110 -0.245265
v 0.761873 1.398110 0.249162
v 0.471256 1.398110 0.649162
v 0.001027 1.398110 0.801949
v -0.469201 1.398110 0.649162
v -0.759818 1.398110 0.249162
v -0.759818 1.398110 -0.245265
v -0.469201 1.398110 -0.645265
v 0.001027 1.768110 -0.718051
v 0.424233 1.768110 -0.580543
v 0.685788 1.768110 -0.220543
v 0.685788 1.768110 0.224441
v 0.424233 1.768110 0.584441
v 0.001027 1.768110 0.721949
v -0.422178 1.768110 0.584441
v -0.683733 1.768110 0.224441
v -0.683733 1.768110 -0.220543
v -0.422178 1.768110 -0.580543
v 0.424233 0.228110 -0.580543
v 0.685788 0.228110 -0.220543
v 0.685788 0.228110 0.224441
v 0.424233 0.228110 0.584441
v 0.001027 0.228110 0.721949
v -0.422178 0.228110 0.584441
v -0.683733 0.228110 0.224441
v -0.683733 0.228110 -0.220543
v -0.422178 0.228110 -0.580543
v 0.001027 0.228110 -0.718051
v 0.001027 0.463110 -0.798051
v 0.471256 1.533110 -0.645265
v 0.761873 1.533110 -0.245265
v 0.761873 1.533110 0.249162
v 0.471256 1.533110 0.649162
v 0.001027 1.533110 0.801949
v -0.469201 1.533110 0.649162
v -0.759818 1.533110 0.249162
v -0.759818 1.533110 -0.245265
v -0.469201 1.533110 -0.645265
v 0.001027 1.533110 -0.798051
v 0.471256 0.463110 -0.645265
v 0.761873 0.463110 -0.245265
v 0.761873 0.463110 0.249162
v 0.471256 0.463110 0.649162
v 0.001027 0.463110 0.801949
v -0.469201 0.463110 0.649162
v -0.759818 0.463110 0.249162
v -0.759818 0.463110 -0.245265
v -0.469201 0.463110 -0.645265
v 0.001027 0.463110 -0.838051
v 0.001027 0.598110 -0.838051
v -0.492712 0.598110 -0.677625
v -0.797860 0.598110 -0.257625
v -0.797860 0.598110 0.261523
v -0.492712 0.598110 0.681523
v 0.001027 0.598110 0.841949
v 0.494767 0.598110 0.681523
v 0.799915 0.598110 0.261523
v 0.799915 0.598110 -0.257625
v 0.494767 0.598110 -0.677625
v 0.494767 1.533110 -0.677625
v 0.494767 1.398110 -0.677625
v 0.799915 1.533110 -0.257625
v 0.799915 1.398110 -0.257625
v 0.799915 1.533110 0.261523
v 0.799915 1.398110 0.261523
v 0.494767 1.533110 0.681523
v 0.494767 1.398110 0.681523
v 0.001027 1.533110 0.841949
v 0.001027 1.398110 0.841949
v -0.492712 1.533110 0.681523
v -0.492712 1.398110 0.681523
v -0.797860 1.533110 0.261523
v -0.797860 1.398110 0.261523
v -0.797860 1.533110 -0.257625
v -0.797860 1.398110 -0.257625
v -0.492712 1.533110 -0.677625
v -0.492712 1.398110 -0.677625
v 0.001027 1.398110 -0.838051
v 0.001027 1.533110 -0.838051
v 0.494767 0.463110 -0.677625
v 0.799915 0.463110 -0.257625
v 0.799915 0.463110 0.261523
v 0.494767 0.463110 0.681523
v 0.001027 0.463110 0.841949
v -0.492712 0.463110 0.681523
v -0.797860 0.463110 0.261523
v -0.797860 0.463110 -0.257625
v -0.492712 0.463110 -0.677625
v 0.324514 1.998110 -0.443292
v 0.001027 1.998110 -0.548399
v 0.524439 1.998110 -0.168118
v 0.524439 1.998110 0.172016
v 0.324514 1.998110 0.447190
v 0.001027 1.998110 0.552297
v -0.322459 1.998110 0.447190
v -0.522385 1.998110 0.172016
v -0.522385 1.998110 -0.168118
v -0.322459 1.998110 -0.443292
v 0.248606 1.955164 -0.338814
v 0.001027 1.955164 -0.419257
v 0.401618 1.955164 -0.128211
v 0.401618 1.955164 0.132108
v 0.248606 1.955164 0.342711
v 0.001027 1.955164 0.423154
v -0.246551 1.955164 0.342711
v -0.399563 1.955164 0.132108
v -0.399563 1.955164 -0.128211
v -0.246551 1.955164 -0.338814
vn 0.2530 0.5743 -0.7786
vn 0.6623 0.5743 -0.4812
vn 0.8186 0.5743 -0.0000
vn 0.6623 0.5743 0.4812
vn 0.2530 0.5743 0.7786
vn -0.2530 0.5743 0.7786
vn -0.6623 0.5743 0.4812
vn -0.8186 0.5743 -0.0000
vn -0.6943 0.7196 -0.0000
vn -0.6623 0.5743 -0.4812
vn -0.2530 0.5743 -0.7786
vn -0.0000 -1.0000 -0.0000
vn -0.0000 1.0000 -0.0000
vn -0.3090 -0.0000 -0.9511
vn -0.8090 -0.0000 -0.5878
vn -1.0000 -0.0000 -0.0000
vn -0.8090 -0.0000 0.5878
vn -0.3090 -0.0000 0.9511
vn 0.3090 -0.0000 0.9511
vn 0.8090 -0.0000 0.5878
vn 1.0000 -0.0000 -0.0000
vn 0.8090 -0.0000 -0.5878
vn 0.3090 -0.0000 -0.9511
vn -0.2940 0.3080 -0.9048
vn -0.7697 0.3080 -0.5592
vn -0.9514 0.3080 -0.0000
vn -0.7697 0.3080 0.5592
vn -0.2940 0.3080 0.9048
vn 0.2940 0.3080 0.9048
vn 0.7697 0.3080 0.5592
vn 0.9514 0.3080 -0.0000
vn 0.7697 0.3080 -0.5592
vn 0.2940 0.3080 -0.9048
vn 0.2577 -0.5518 -0.7932
vn 0.6747 -0.5518 -0.4902
vn 0.8340 -0.5518 -0.0000
vn 0.6747 -0.5518 0.4902
vn 0.2577 -0.5518 0.7932
vn -0.2577 -0.5518 0.7932
vn -0.6747 -0.5518 0.4902
vn -0.8340 -0.5518 -0.0000
vn -0.6747 -0.5518 -0.4902
vn -0.2577 -0.5518 -0.7932
vn 0.2940 -0.3080 -0.9048
vn 0.7697 -0.3080 -0.5592
vn 0.9514 -0.3080 -0.0000
vn 0.7697 -0.3080 0.5592
vn 0.2940 -0.3080 0.9048
vn -0.2940 -0.3080 0.9048
vn -0.7697 -0.3080 0.5592
vn -0.9514 -0.3080 -0.0000
vn -0.7697 -0.3080 -0.5592
vn -0.2940 -0.3080 -0.9048
vn 0.2146 0.7196 0.6604
vn 0.5617 0.7196 -0.4081
vn -0.5617 0.7196 -0.4081
vn -0.2146 0.7196 0.6604
vn 0.6943 0.7196 -0.0000
vn -0.2146 0.7196 -0.6604
vn -0.5617 0.7196 0.4081
vn 0.5617 0.7196 0.4081
vn 0.2146 0.7196 -0.6604
vt 0.750000 0.490000
vt 1.000000 0.500000
vt -0.000000 0.500000
vt 0.250000 0.454092
vt 0.891068 0.444164
vt 0.900000 0.500000
vt 0.369962 0.415114
vt 0.978254 0.324164
vt 0.800000 0.500000
vt 0.444103 0.313068
vt 0.978254 0.175836
vt 0.700000 0.500000
vt 0.444103 0.186932
vt 0.891068 0.055836
vt 0.600000 0.500000
vt 0.369962 0.084886
vt 0.750000 0.010000
vt 0.500000 0.500000
vt 0.250000 0.045908
vt 0.608932 0.055836
vt 0.400000 0.500000
vt 0.130038 0.084886
vt 0.521746 0.175836
vt 0.300000 0.500000
vt 0.055897 0.186932
vt 0.521746 0.324164
vt 0.200000 0.500000
vt 0.055897 0.313068
vt 0.608932 0.444164
vt 0.100000 0.500000
vt 0.130038 0.415114
vt -0.000000 0.750000
vt 1.000000 0.750000
vt 0.900000 0.750000
vt 0.800000 0.750000
vt 0.700000 0.750000
vt 0.600000 0.750000
vt 0.500000 0.750000
vt 0.400000 0.750000
vt 0.300000 0.750000
vt 0.200000 0.750000
vt 0.100000 0.750000
vt 1.000000 0.875000
vt -0.000000 0.875000
vt 0.900000 0.875000
vt 0.800000 0.875000
vt 0.700000 0.875000
vt 0.600000 0.875000
vt 0.500000 0.875000
vt 0.400000 0.875000
vt 0.300000 0.875000
vt 0.200000 0.875000
vt 0.100000 0.875000
vt -0.000000 0.937500
vt 1.000000 0.937500
vt 0.900000 0.937500
vt 0.800000 0.937500
vt 0.700000 0.937500
vt 0.600000 0.937500
vt 0.500000 0.937500
vt 0.400000 0.937500
vt 0.300000 0.937500
vt 0.200000 0.937500
vt 0.100000 0.937500
vt 0.900000 0.625000
vt 0.800000 0.625000
vt 0.700000 0.625000
vt 0.600000 0.625000
vt 0.500000 0.625000
vt 0.400000 0.625000
vt 0.300000 0.625000
vt 0.200000 0.625000
vt 0.100000 0.625000
vt 1.000000 0.625000
vt -0.000000 0.625000
vt -0.000000 0.687500
vt 1.000000 0.687500
vt 0.900000 0.906250
vt 0.800000 0.906250
vt 0.700000 0.906250
vt 0.600000 0.906250
vt 0.500000 0.906250
vt 0.400000 0.906250
vt 0.300000 0.906250
vt 0.200000 0.906250
vt 0.100000 0.906250
vt -0.000000 0.906250
vt 1.000000 0.906250
vt 0.900000 0.687500
vt 0.800000 0.687500
vt 0.700000 0.687500
vt 0.600000 0.687500
vt 0.500000 0.687500
vt 0.400000 0.687500
vt 0.300000 0.687500
vt 0.200000 0.687500
vt 0.100000 0.687500
vt -0.000000 0.687500
vt 1.000000 0.687500
vt -0.000000 0.750000
vt 1.000000 0.750000
vt 0.100000 0.750000
vt 0.200000 0.750000
vt 0.300000 0.750000
vt 0.400000 0.750000
vt 0.500000 0.750000
vt 0.600000 0.750000
vt 0.700000 0.750000
vt 0.800000 0.750000
vt 0.900000 0.750000
vt 0.900000 0.906250
vt 0.900000 0.875000
vt 0.800000 0.906250
vt 0.800000 0.875000
vt 0.700000 0.906250
vt 0.700000 0.875000
vt 0.600000 0.906250
vt 0.600000 0.875000
vt 0.500000 0.906250
vt 0.500000 0.875000
vt 0.400000 0.906250
vt 0.400000 0.875000
vt 0.300000 0.906250
vt 0.300000 0.875000
vt 0.200000 0.906250
vt 0.200000 0.875000
vt 0.100000 0.906250
vt 0.100000 0.875000
vt 1.000000 0.875000
vt -0.000000 0.875000
vt -0.000000 0.906250
vt 1.000000 0.906250
vt 0.900000 0.687500
vt 0.800000 0.687500
vt 0.700000 0.687500
vt 0.600000 0.687500
vt 0.500000 0.687500
vt 0.400000 0.687500
vt 0.300000 0.687500
vt 0.200000 0.687500
vt 0.100000 0.687500
vt 0.900000 1.000000
vt 0.391068 0.444164
vt 1.000000 1.000000
vt -0.000000 1.000000
vt 0.250000 0.490000
vt 0.800000 1.000000
vt 0.478254 0.324164
vt 0.700000 1.000000
vt 0.478254 0.175836
vt 0.600000 1.000000
vt 0.391068 0.055836
vt 0.500000 1.000000
vt 0.250000 0.010000
vt 0.400000 1.000000
vt 0.108932 0.055836
vt 0.300000 1.000000
vt 0.021746 0.175836
vt 0.200000 1.000000
vt 0.021746 0.324164
vt 0.100000 1.000000
vt 0.108932 0.444164
vt 0.369962 0.415114
vt 0.250000 0.454092
vt 0.444103 0.313068
vt 0.444103 0.186932
vt 0.369962 0.084886
vt 0.250000 0.045908
vt 0.130038 0.084886
vt 0.055897 0.186932
vt 0.055897 0.313068
vt 0.130038 0.415114
s 0
usemtl barrel
f 41/55/1 122/144/1 121/142/1 42/56/1
f 42/56/2 121/142/2 123/147/2 43/57/2
f 43/57/3 123/147/3 124/149/3 44/58/3
f 44/58/4 124/149/4 125/151/4 45/59/4
f 45/59/5 125/151/5 126/153/5 46/60/5
f 46/60/6 126/153/6 127/155/6 47/61/6
f 47/61/7 127/155/7 128/157/7 48/62/7
f 48/62/8 128/157/8 129/159/8 49/63/8
f 8/13/9 6/10/9 133/165/9 134/166/9
f 49/63/10 129/159/10 130/161/10 50/64/10
f 50/64/11 130/161/11 122/145/11 41/54/11
f 1/1/12 3/5/12 5/8/12 7/11/12 9/14/12 11/17/12 13/20/12 15/23/12 17/26/12 19/29/12
f 30/42/14 40/53/14 31/44/14 21/32/14
f 29/41/15 39/52/15 40/53/15 30/42/15
f 28/40/16 38/51/16 39/52/16 29/41/16
f 27/39/17 37/50/17 38/51/17 28/40/17
f 26/38/18 36/49/18 37/50/18 27/39/18
f 25/37/19 35/48/19 36/49/19 26/38/19
f 24/36/20 34/47/20 35/48/20 25/37/20
f 23/35/21 33/46/21 34/47/21 24/36/21
f 22/34/22 32/45/22 33/46/22 23/35/22
f 21/33/23 31/43/23 32/45/23 22/34/23
f 70/86/24 50/64/24 41/54/24 71/87/24
f 69/85/25 49/63/25 50/64/25 70/86/25
f 68/84/26 48/62/26 49/63/26 69/85/26
f 67/83/27 47/61/27 48/62/27 68/84/27
f 66/82/28 46/60/28 47/61/28 67/83/28
f 65/81/29 45/59/29 46/60/29 66/82/29
f 64/80/30 44/58/30 45/59/30 65/81/30
f 63/79/31 43/57/31 44/58/31 64/80/31
f 62/78/32 42/56/32 43/57/32 63/79/32
f 71/88/33 41/55/33 42/56/33 62/78/33
f 1/2/34 60/74/34 51/65/34 3/6/34
f 3/6/35 51/65/35 52/66/35 5/9/35
f 5/9/36 52/66/36 53/67/36 7/12/36
f 7/12/37 53/67/37 54/68/37 9/15/37
f 9/15/38 54/68/38 55/69/38 11/18/38
f 11/18/39 55/69/39 56/70/39 13/21/39
f 13/21/40 56/70/40 57/71/40 15/24/40
f 15/24/41 57/71/41 58/72/41 17/27/41
f 17/27/42 58/72/42 59/73/42 19/30/42
f 19/30/43 59/73/43 60/75/43 1/3/43
f 60/74/44 61/77/44 72/89/44 51/65/44
f 51/65/45 72/89/45 73/90/45 52/66/45
f 52/66/46 73/90/46 74/91/46 53/67/46
f 53/67/47 74/91/47 75/92/47 54/68/47
f 54/68/48 75/92/48 76/93/48 55/69/48
f 55/69/49 76/93/49 77/94/49 56/70/49
f 56/70/50 77/94/50 78/95/50 57/71/50
f 57/71/51 78/95/51 79/96/51 58/72/51
f 58/72/52 79/96/52 80/97/52 59/73/52
f 59/73/53 80/97/53 61/76/53 60/75/53
f 2/4/13 4/7/13 121/143/13 122/146/13
f 4/7/13 6/10/13 123/148/13 121/143/13
f 6/10/13 8/13/13 124/150/13 123/148/13
f 8/13/13 10/16/13 125/152/13 124/150/13
f 10/16/13 12/19/13 126/154/13 125/152/13
f 12/19/13 14/22/13 127/156/13 126/154/13
f 14/22/13 16/25/13 128/158/13 127/156/13
f 16/25/13 18/28/13 129/160/13 128/158/13
f 18/28/13 20/31/13 130/162/13 129/160/13
f 20/31/13 2/4/13 122/146/13 130/162/13
f 131/163/13 132/164/13 140/172/13 139/171/13 138/170/13 137/169/13 136/168/13 135/167/13 134/166/13 133/165/13
f 2/4/54 20/31/54 140/172/54 132/164/54
f 16/25/55 14/22/55 137/169/55 138/170/55
f 10/16/56 8/13/56 134/166/56 135/167/56
f 4/7/57 2/4/57 132/164/57 131/163/57
f 18/28/58 16/25/58 138/170/58 139/171/58
f 12/19/59 10/16/59 135/167/59 136/168/59
f 6/10/60 4/7/60 131/163/60 133/165/60
f 20/31/61 18/28/61 139/171/61 140/172/61
f 14/22/62 12/19/62 136/168/62 137/169/62
usemtl lamp_base
f 70/86/13 71/87/13 111/131/13 108/127/13
f 25/37/13 26/38/13 87/106/13 88/107/13
f 69/85/13 70/86/13 108/127/13 106/125/13
f 26/38/13 27/39/13 86/105/13 87/106/13
f 68/84/13 69/85/13 106/125/13 104/123/13
f 27/39/13 28/40/13 85/104/13 86/105/13
f 32/45/12 31/43/12 110/129/12 93/112/12
f 67/83/13 68/84/13 104/123/13 102/121/13
f 28/40/13 29/41/13 84/103/13 85/104/13
f 61/76/12 80/97/12 120/141/12 81/98/12
f 33/46/12 32/45/12 93/112/12 95/114/12
f 66/82/13 67/83/13 102/121/13 100/119/13
f 29/41/13 30/42/13 83/102/13 84/103/13
f 80/97/12 79/96/12 119/140/12 120/141/12
f 34/47/12 33/46/12 95/114/12 97/116/12
f 65/81/13 66/82/13 100/119/13 98/117/13
f 30/42/13 21/32/13 82/100/13 83/102/13
f 79/96/12 78/95/12 118/139/12 119/140/12
f 35/48/12 34/47/12 97/116/12 99/118/12
f 64/80/13 65/81/13 98/117/13 96/115/13
f 120/141/14 83/102/14 82/100/14 81/98/14
f 119/140/15 84/103/15 83/102/15 120/141/15
f 118/139/16 85/104/16 84/103/16 119/140/16
f 117/138/17 86/105/17 85/104/17 118/139/17
f 116/137/18 87/106/18 86/105/18 117/138/18
f 115/136/19 88/107/19 87/106/19 116/137/19
f 114/135/20 89/108/20 88/107/20 115/136/20
f 113/134/21 90/109/21 89/108/21 114/135/21
f 112/133/22 91/110/22 90/109/22 113/134/22
f 81/99/23 82/101/23 91/110/23 112/133/23
f 110/129/23 111/132/23 92/111/23 93/112/23
f 93/112/22 92/111/22 94/113/22 95/114/22
f 95/114/21 94/113/21 96/115/21 97/116/21
f 97/116/20 96/115/20 98/117/20 99/118/20
f 99/118/19 98/117/19 100/119/19 101/120/19
f 101/120/18 100/119/18 102/121/18 103/122/18
f 103/122/17 102/121/17 104/123/17 105/124/17
f 105/124/16 104/123/16 106/125/16 107/126/16
f 107/126/15 106/125/15 108/127/15 109/128/15
f 109/128/14 108/127/14 111/131/14 110/130/14
f 24/36/13 25/37/13 88/107/13 89/108/13
f 72/89/12 61/77/12 81/99/12 112/133/12
f 31/44/12 40/53/12 109/128/12 110/130/12
f 23/35/13 24/36/13 89/108/13 90/109/13
f 73/90/12 72/89/12 112/133/12 113/134/12
f 40/53/12 39/52/12 107/126/12 109/128/12
f 22/34/13 23/35/13 90/109/13 91/110/13
f 74/91/12 73/90/12 113/134/12 114/135/12
f 39/52/12 38/51/12 105/124/12 107/126/12
f 21/33/13 22/34/13 91/110/13 82/101/13
f 75/92/12 74/91/12 114/135/12 115/136/12
f 71/88/13 62/78/13 92/111/13 111/132/13
f 38/51/12 37/50/12 103/122/12 105/124/12
f 76/93/12 75/92/12 115/136/12 116/137/12
f 62/78/13 63/79/13 94/113/13 92/111/13
f 37/50/12 36/49/12 101/120/12 103/122/12
f 77/94/12 76/93/12 116/137/12 117/138/12
f 63/79/13 64/80/13 96/115/13 94/113/13
f 36/49/12 35/48/12 99/118/12 101/120/12
f 78/95/12 77/94/12 117/138/12 118/139/12
