# Blender 3.4.1
# www.blender.org
mtllib broken_pillar.mtl
o broken_pillar
v -1.000395 -0.000997 -0.002295
v -1.000395 7.944956 -0.002295
v -1.000395 -0.000997 -2.002295
v -1.000395 7.547692 -2.002295
v 0.999605 -0.000997 -0.002295
v 0.999605 7.957339 -0.002295
v 0.999605 -0.000997 -2.002295
v 0.999605 7.781491 -2.002295
v -1.004942 3.010320 -0.216196
v -1.000395 3.999003 -2.002295
v 0.939030 3.999003 -1.973219
v 0.999605 3.999003 -0.002295
v -1.000395 1.999003 -2.002295
v 0.999605 1.999003 -2.002295
v 0.999605 1.999003 -0.002295
v -1.000395 1.999003 -0.002295
v -1.000395 6.443729 -0.002295
v -0.798024 5.999002 -1.890642
v 0.999605 5.999002 -2.002295
v 0.828637 5.999002 -0.169774
v -0.028033 3.902471 -0.969662
v -0.000395 3.515866 -0.285647
v -1.053135 3.396219 -1.000566
v -0.924206 3.525765 -1.415509
v 0.158511 3.869904 -0.317194
v -0.872546 5.029410 -1.683905
v 0.818369 4.899275 -0.401787
v 0.140449 6.299500 -0.103660
v -0.729528 6.299500 -0.886632
v -0.254524 3.999003 -1.569441
v -0.000395 5.999002 -1.002295
v 0.602755 3.999002 -0.658668
v -0.000395 4.999002 -1.002295
v 0.832126 4.999002 -1.806903
v -0.936470 5.514207 -1.843100
v 0.908987 5.449139 -0.202041
v -0.000395 5.499002 -1.002295
v -1.000395 7.673280 -1.002295
v -0.000395 7.513062 -2.002295
v 0.999605 7.944739 -1.002295
v -0.000395 7.999002 -0.002295
v -0.000395 7.804387 -1.002295
v -0.102581 6.348434 -0.430142
v -0.116152 4.787791 -0.497777
v -0.102581 6.337757 -0.513658
v -0.116152 4.777113 -0.581293
v -0.224422 6.362228 -0.431906
v -0.237993 4.801585 -0.499540
v -0.224422 6.351551 -0.515421
v -0.237993 4.790907 -0.583056
v -0.126793 3.011936 -0.452921
v -0.126793 3.001259 -0.536437
v -0.248634 3.025730 -0.454685
v -0.248634 3.015053 -0.538200
v -0.479644 6.348434 -0.830451
v -0.473832 4.787791 -0.808434
v -0.479644 6.337757 -0.913967
v -0.473832 4.777113 -0.891950
v -0.601485 6.362228 -0.832215
v -0.595672 4.801585 -0.810198
v -0.601485 6.351551 -0.915730
v -0.595672 4.790907 -0.893713
v -0.503856 3.219724 -0.853230
v -0.503856 3.209047 -0.936746
v -0.625697 3.233518 -0.854994
v -0.625697 3.222841 -0.938509
v -0.555494 6.457438 -0.409109
v -0.549682 5.378689 -0.387092
v -0.555494 6.446761 -0.492625
v -0.549682 5.368011 -0.470608
v -0.677335 6.471232 -0.410873
v -0.671522 5.392483 -0.388856
v -0.677335 6.460555 -0.494388
v -0.671522 5.381805 -0.472371
v -0.579706 3.959191 -0.431888
v -0.579706 3.948513 -0.515404
v -0.701547 3.972985 -0.433652
v -0.701547 3.962307 -0.517167
v 0.868359 3.767147 -2.728729
v -0.173252 6.116579 -1.185652
v -0.186824 4.555935 -1.253287
v -0.173252 6.105902 -1.269168
v -0.186824 4.545258 -1.336803
v -0.295093 6.130373 -1.187416
v -0.308664 4.569729 -1.255051
v -0.295093 6.119696 -1.270931
v -0.308664 4.559052 -1.338566
v -0.197464 3.811548 -1.208431
v -0.197464 3.800870 -1.291947
v -0.319305 3.825341 -1.210195
v -0.319305 3.814664 -1.293711
v -0.550316 6.116579 -1.585961
v -0.544503 4.555935 -1.563944
v -0.550316 6.105902 -1.669477
v -0.544503 4.545258 -1.647460
v -0.672157 6.130373 -1.587725
v -0.666344 4.569729 -1.565708
v -0.672157 6.119696 -1.671240
v -0.666344 4.559052 -1.649224
v -0.574528 4.019336 -1.608740
v -0.574528 4.008658 -1.692256
v -0.696368 4.033130 -1.610504
v -0.696368 4.022452 -1.694019
v -0.626166 6.225583 -1.164619
v -0.620353 5.146833 -1.142602
v -0.626166 6.214906 -1.248135
v -0.620353 5.136156 -1.226118
v -0.748006 6.239377 -1.166383
v -0.742194 5.160627 -1.144366
v -0.748006 6.228700 -1.249898
v -0.742194 5.149950 -1.227882
v -0.650378 3.230284 -1.187398
v -0.650378 3.219606 -1.270914
v -0.772218 3.244078 -1.189162
v -0.772218 3.233400 -1.272677
vn -0.9915 -0.1280 -0.0229
vn -0.0286 -0.0369 -0.9989
vn 0.9979 -0.0467 0.0457
vn 0.0356 -0.0505 0.9981
vn -0.0000 -1.0000 -0.0000
vn -0.0898 0.9699 -0.2261
vn -0.1120 0.1336 0.9847
vn 0.9998 0.0153 -0.0153
vn 0.0074 0.0074 -0.9999
vn -1.0000 0.0016 0.0023
vn -1.0000 -0.0000 -0.0000
vn -0.0000 -0.0000 -1.0000
vn 1.0000 -0.0000 -0.0000
vn -0.0000 -0.0000 1.0000
vn 0.9980 -0.0525 0.0342
vn -0.0429 -0.1527 -0.9873
vn 0.0266 -0.9993 -0.0251
vn -0.3272 -0.8868 0.3263
vn -0.6838 -0.0746 0.7258
vn -0.3829 0.8194 0.4266
vn -0.5314 0.7233 0.4409
vn -0.3699 0.8806 0.2961
vn -0.4465 0.0379 0.8940
vn -0.1134 -0.9855 0.1260
vn -0.6994 0.1322 0.7024
vn -0.9331 0.0342 0.3579
vn -0.5533 -0.2434 0.7966
vn -0.7196 -0.0257 0.6939
vn -0.6407 0.0818 0.7634
vn -0.6318 -0.0919 0.7697
vn -0.0334 0.1324 -0.9906
vn 0.9961 0.0876 -0.0079
vn -0.0490 0.9935 -0.1029
vn -0.1955 0.9563 -0.2174
vn -0.0472 0.9779 -0.2038
vn 1.0000 -0.0087 0.0011
vn 0.0193 0.0431 -0.9989
vn -1.0000 0.0087 -0.0011
vn -0.0193 -0.0431 0.9989
vn 0.1134 0.9855 -0.1260
vn 1.0000 -0.0060 0.0008
vn -0.0116 0.0253 0.9996
vn 0.0116 -0.0253 -0.9996
vn -1.0000 0.0060 -0.0008
vn 1.0000 0.0037 -0.0005
vn 0.0129 -0.0141 -0.9998
vn -1.0000 -0.0037 0.0005
vn -0.0129 0.0141 0.9998
vn 0.9998 -0.0192 0.0025
vn -0.0177 -0.0282 0.9994
vn 0.0177 0.0282 -0.9994
vn -0.9998 0.0192 -0.0025
vn 1.0000 0.0054 -0.0007
vn 0.0122 -0.0203 -0.9997
vn -1.0000 -0.0054 0.0007
vn -0.0122 0.0203 0.9997
vn 0.9998 -0.0212 0.0027
vn -0.0180 -0.0312 0.9994
vn 0.0180 0.0312 -0.9994
vn -0.9998 0.0212 -0.0027
vn 0.9999 -0.0142 0.0018
vn -0.0076 0.0603 0.9982
vn 0.0076 -0.0603 -0.9982
vn -0.9999 0.0142 -0.0018
vn 0.9984 -0.0565 0.0072
vn -0.0237 -0.0819 0.9964
vn 0.0237 0.0819 -0.9964
vn -0.9984 0.0565 -0.0072
vn 0.9999 -0.0157 0.0020
vn -0.0171 -0.0231 0.9996
vn 0.0171 0.0231 -0.9996
vn -0.9999 0.0157 -0.0020
vt 0.125000 0.750000
vt 0.375000 0.000000
vt 0.375000 1.000000
vt 0.625000 0.000000
vt 0.625000 1.000000
vt 0.875000 0.750000
vt 0.125000 0.500000
vt 0.375000 0.250000
vt 0.625000 0.250000
vt 0.875000 0.500000
vt 0.375000 0.750000
vt 0.625000 0.750000
vt 0.375000 0.500000
vt 0.625000 0.500000
vt 0.500000 1.000000
vt 0.500000 0.000000
vt 0.000000 0.000000
vt 0.000000 0.000000
vt 0.500000 0.250000
vt 0.500000 0.500000
vt 0.000000 0.000000
vt 0.500000 0.750000
vt 0.437500 0.250000
vt 0.437500 0.500000
vt 0.437500 0.750000
vt 0.437500 0.000000
vt 0.437500 1.000000
vt 0.562500 1.000000
vt 0.562500 0.000000
vt 0.562500 0.250000
vt 0.562500 0.500000
vt 0.562500 0.750000
vt 0.000000 0.000000
vt 0.500000 0.500000
vt 0.500000 0.875000
vt 0.000000 0.000000
vt 0.500000 0.125000
vt 0.000000 0.000000
vt 0.500000 0.187500
vt 0.000000 0.000000
vt 0.500000 0.812500
vt 0.000000 0.000000
vt 0.531250 0.250000
vt 0.531250 0.750000
vt 0.562500 0.875000
vt 0.562500 0.375000
vt 0.562500 0.125000
vt 0.000000 0.000000
vt 0.500000 0.375000
vt 0.562500 0.500000
vt 0.000000 0.000000
vt 0.500000 0.625000
vt 0.531250 0.500000
vt 0.531250 0.500000
vt 0.546875 0.250000
vt 0.546875 0.750000
vt 0.546875 0.500000
vt 0.625000 0.125000
vt 0.875000 0.625000
vt 0.625000 0.375000
vt 0.750000 0.500000
vt 0.625000 0.625000
vt 0.625000 0.875000
vt 0.750000 0.750000
vt 0.750000 0.625000
vt 0.375000 0.000000
vt 0.375000 1.000000
vt 0.125000 0.750000
vt 0.625000 0.000000
vt 0.625000 1.000000
vt 0.375000 0.250000
vt 0.125000 0.500000
vt 0.625000 0.250000
vt 0.375000 0.750000
vt 0.625000 0.750000
vt 0.375000 0.500000
vt 0.625000 0.500000
vt 0.625000 0.000000
vt 0.875000 0.750000
vt 0.625000 1.000000
vt 0.875000 0.500000
vt 0.625000 0.250000
vt 0.625000 0.750000
vt 0.625000 0.500000
vt 0.375000 0.000000
vt 0.375000 1.000000
vt 0.125000 0.750000
vt 0.625000 0.000000
vt 0.625000 1.000000
vt 0.375000 0.250000
vt 0.125000 0.500000
vt 0.625000 0.250000
vt 0.375000 0.750000
vt 0.625000 0.750000
vt 0.375000 0.500000
vt 0.625000 0.500000
vt 0.625000 0.000000
vt 0.875000 0.750000
vt 0.625000 1.000000
vt 0.875000 0.500000
vt 0.625000 0.250000
vt 0.625000 0.750000
vt 0.625000 0.500000
vt 0.375000 0.000000
vt 0.375000 1.000000
vt 0.125000 0.750000
vt 0.625000 0.000000
vt 0.625000 1.000000
vt 0.375000 0.250000
vt 0.125000 0.500000
vt 0.625000 0.250000
vt 0.375000 0.750000
vt 0.625000 0.750000
vt 0.375000 0.500000
vt 0.625000 0.500000
vt 0.625000 0.000000
vt 0.875000 0.750000
vt 0.625000 1.000000
vt 0.875000 0.500000
vt 0.625000 0.250000
vt 0.625000 0.750000
vt 0.625000 0.500000
vt 0.375000 0.000000
vt 0.375000 1.000000
vt 0.125000 0.750000
vt 0.625000 0.000000
vt 0.625000 1.000000
vt 0.375000 0.250000
vt 0.125000 0.500000
vt 0.625000 0.250000
vt 0.375000 0.750000
vt 0.625000 0.750000
vt 0.375000 0.500000
vt 0.625000 0.500000
vt 0.625000 0.000000
vt 0.875000 0.750000
vt 0.625000 1.000000
vt 0.875000 0.500000
vt 0.625000 0.250000
vt 0.625000 0.750000
vt 0.625000 0.500000
vt 0.375000 0.000000
vt 0.375000 1.000000
vt 0.125000 0.750000
vt 0.625000 0.000000
vt 0.625000 1.000000
vt 0.375000 0.250000
vt 0.125000 0.500000
vt 0.625000 0.250000
vt 0.375000 0.750000
vt 0.625000 0.750000
vt 0.375000 0.500000
vt 0.625000 0.500000
vt 0.625000 0.000000
vt 0.875000 0.750000
vt 0.625000 1.000000
vt 0.875000 0.500000
vt 0.625000 0.250000
vt 0.625000 0.750000
vt 0.625000 0.500000
vt 0.375000 0.000000
vt 0.375000 1.000000
vt 0.125000 0.750000
vt 0.625000 0.000000
vt 0.625000 1.000000
vt 0.375000 0.250000
vt 0.125000 0.500000
vt 0.625000 0.250000
vt 0.375000 0.750000
vt 0.625000 0.750000
vt 0.375000 0.500000
vt 0.625000 0.500000
vt 0.625000 0.000000
vt 0.875000 0.750000
vt 0.625000 1.000000
vt 0.875000 0.500000
vt 0.625000 0.250000
vt 0.625000 0.750000
vt 0.625000 0.500000
s 0
usemtl Material
f 17/29/1 2/4/1 38/58/1 4/9/1 18/30/1 29/47/1
f 18/30/2 4/9/2 39/60/2 8/14/2 19/31/2
f 19/31/3 8/14/3 40/62/3 6/12/3 20/32/3
f 20/32/4 6/12/4 41/63/4 2/5/4 17/28/4 28/45/4
f 3/7/5 7/13/5 5/11/5 1/1/5
f 42/65/6 38/59/6 2/6/6 41/64/6
f 15/25/7 12/22/7 25/41/7 22/35/7 9/15/7 16/27/7
f 14/24/8 11/20/8 12/22/8 15/25/8
f 13/23/9 10/19/9 11/20/9 14/24/9
f 16/26/10 9/16/10 23/37/10 24/39/10 10/19/10 13/23/10
f 1/2/11 16/26/11 13/23/11 3/8/11
f 3/8/12 13/23/12 14/24/12 7/13/12
f 7/13/13 14/24/13 15/25/13 5/11/13
f 5/11/14 15/25/14 16/27/14 1/3/14
f 34/54/15 19/31/15 20/32/15 36/56/15
f 34/54/16 35/55/16 18/30/16 19/31/16
f 12/22/17 32/52/17 21/34/17 30/49/17 10/19/17 11/20/17
f 29/47/18 18/30/18 31/50/18 20/32/18 28/46/18
f 37/57/19 36/56/19 20/32/19 31/50/19
f 22/36/20 23/38/20 9/17/20
f 25/42/21 24/40/21 23/38/21 22/36/21
f 12/21/22 32/51/22 21/33/22 30/48/22 10/18/22 24/40/22 25/42/22
f 33/53/23 21/34/23 32/52/23
f 17/29/24 29/47/24 28/46/24
f 35/55/25 37/57/25 31/50/25 18/30/25
f 30/49/26 21/34/26 33/53/26
f 10/19/27 30/49/27 33/53/27 26/43/27
f 27/44/28 33/53/28 32/52/28 12/22/28
f 26/43/29 33/53/29 37/57/29 35/55/29
f 33/53/30 27/44/30 36/56/30 37/57/30
f 10/19/31 26/43/31 35/55/31 34/54/31 11/20/31
f 11/20/32 34/54/32 36/56/32 27/44/32 12/22/32
f 40/62/33 42/65/33 41/64/33 6/12/33
f 8/14/34 39/61/34 42/65/34 40/62/34
f 39/61/35 4/10/35 38/59/35 42/65/35
usemtl Material.002
f 43/66/36 44/69/36 46/73/36 45/71/36
f 45/71/37 46/73/37 50/77/37 49/76/37
f 49/76/38 50/77/38 48/75/38 47/74/38
f 47/74/39 48/75/39 44/70/39 43/67/39
f 45/72/40 49/76/40 47/74/40 43/68/40
f 46/73/41 44/69/41 51/78/41 52/82/41
f 54/84/24 52/81/24 51/79/24 53/83/24
f 44/70/42 48/75/42 53/83/42 51/80/42
f 50/77/43 46/73/43 52/82/43 54/84/43
f 48/75/44 50/77/44 54/84/44 53/83/44
f 55/85/45 56/88/45 58/92/45 57/90/45
f 57/90/46 58/92/46 62/96/46 61/95/46
f 61/95/47 62/96/47 60/94/47 59/93/47
f 59/93/48 60/94/48 56/89/48 55/86/48
f 57/91/40 61/95/40 59/93/40 55/87/40
f 58/92/49 56/88/49 63/97/49 64/101/49
f 66/103/24 64/100/24 63/98/24 65/102/24
f 56/89/50 60/94/50 65/102/50 63/99/50
f 62/96/51 58/92/51 64/101/51 66/103/51
f 60/94/52 62/96/52 66/103/52 65/102/52
f 67/104/53 68/107/53 70/111/53 69/109/53
f 69/109/54 70/111/54 74/115/54 73/114/54
f 73/114/55 74/115/55 72/113/55 71/112/55
f 71/112/56 72/113/56 68/108/56 67/105/56
f 69/110/40 73/114/40 71/112/40 67/106/40
f 70/111/57 68/107/57 75/116/57 76/120/57
f 78/122/24 76/119/24 75/117/24 77/121/24
f 68/108/58 72/113/58 77/121/58 75/118/58
f 74/115/59 70/111/59 76/120/59 78/122/59
f 72/113/60 74/115/60 78/122/60 77/121/60
f 80/123/36 81/126/36 83/130/36 82/128/36
f 82/128/37 83/130/37 87/134/37 86/133/37
f 86/133/38 87/134/38 85/132/38 84/131/38
f 84/131/39 85/132/39 81/127/39 80/124/39
f 82/129/40 86/133/40 84/131/40 80/125/40
f 83/130/61 81/126/61 88/135/61 89/139/61
f 91/141/24 89/138/24 88/136/24 90/140/24
f 81/127/62 85/132/62 90/140/62 88/137/62
f 87/134/63 83/130/63 89/139/63 91/141/63
f 85/132/64 87/134/64 91/141/64 90/140/64
f 92/142/45 93/145/45 95/149/45 94/147/45
f 94/147/46 95/149/46 99/153/46 98/152/46
f 98/152/47 99/153/47 97/151/47 96/150/47
f 96/150/48 97/151/48 93/146/48 92/143/48
f 94/148/40 98/152/40 96/150/40 92/144/40
f 95/149/65 93/145/65 100/154/65 101/158/65
f 103/160/24 101/157/24 100/155/24 102/159/24
f 93/146/66 97/151/66 102/159/66 100/156/66
f 99/153/67 95/149/67 101/158/67 103/160/67
f 97/151/68 99/153/68 103/160/68 102/159/68
f 104/161/53 105/164/53 107/168/53 106/166/53
f 106/166/54 107/168/54 111/172/54 110/171/54
f 110/171/55 111/172/55 109/170/55 108/169/55
f 108/169/56 109/170/56 105/165/56 104/162/56
f 106/167/40 110/171/40 108/169/40 104/163/40
f 107/168/69 105/164/69 112/173/69 113/177/69
f 115/179/24 113/176/24 112/174/24 114/178/24
f 105/165/70 109/170/70 114/178/70 112/175/70
f 111/172/71 107/168/71 113/177/71 115/179/71
f 109/170/72 111/172/72 115/179/72 114/178/72
