# Blender 3.4.1
# www.blender.org
mtllib Gear.mtl
o gear
v 0.070815 0.052136 0.367268
v -0.058581 0.052136 0.369119
v -0.060374 0.052136 0.243781
v -0.060374 -0.040266 0.243781
v 0.069023 0.052136 0.241930
v 0.069023 -0.040266 0.241930
v 0.180158 0.052136 0.175630
v 0.180158 -0.040266 0.175630
v 0.243253 0.052136 0.062644
v 0.243253 -0.040266 0.062644
v 0.241403 0.052136 -0.066752
v 0.241403 -0.040266 -0.066752
v 0.175102 0.052136 -0.177888
v 0.175102 -0.040266 -0.177888
v 0.062117 0.052136 -0.240983
v 0.062117 -0.040266 -0.240983
v -0.067280 0.052136 -0.239133
v -0.067280 -0.040266 -0.239133
v -0.178415 0.052136 -0.172832
v -0.178415 -0.040266 -0.172832
v -0.241511 0.052136 -0.059846
v -0.241511 -0.040266 -0.059846
v -0.239660 0.052136 0.069550
v -0.239660 -0.040266 0.069550
v -0.173359 0.052136 0.180685
v -0.173359 -0.040266 0.180685
v 0.070815 -0.040266 0.367268
v -0.058581 -0.040266 0.369119
v 0.289600 -0.040266 0.236746
v 0.289600 0.052136 0.236746
v 0.352695 0.052136 0.123760
v 0.352695 -0.040266 0.123760
v 0.349052 -0.040266 -0.130974
v 0.349052 0.052136 -0.130974
v 0.282752 0.052136 -0.242109
v 0.282752 -0.040266 -0.242109
v 0.060324 -0.040266 -0.366321
v 0.060324 0.052136 -0.366321
v -0.069072 0.052136 -0.364471
v -0.069072 -0.040266 -0.364471
v -0.287857 -0.040266 -0.233949
v -0.287857 0.052136 -0.233949
v -0.350952 0.052136 -0.120963
v -0.350952 -0.040266 -0.120963
v -0.347310 -0.040266 0.133771
v -0.347310 0.052136 0.133771
v -0.281009 0.052136 0.244906
v -0.281009 -0.040266 0.244906
v -0.042134 0.104792 0.171595
v 0.048726 0.104792 0.170296
v 0.126763 0.104792 0.123741
v 0.171068 0.104792 0.044404
v 0.169768 0.104792 -0.046456
v 0.123213 0.104792 -0.124493
v 0.043877 0.104792 -0.168798
v -0.046983 0.104792 -0.167498
v -0.125020 0.104792 -0.120943
v -0.169325 0.104792 -0.041606
v -0.168026 0.104792 0.049253
v -0.121471 0.104792 0.127291
v 0.047985 -0.096201 0.167681
v -0.041468 -0.096201 0.168961
v 0.124814 -0.096201 0.121847
v 0.168433 -0.096201 0.043738
v 0.167154 -0.096201 -0.045715
v 0.121319 -0.096201 -0.122544
v 0.043211 -0.096201 -0.166163
v -0.046242 -0.096201 -0.164884
v -0.123072 -0.096201 -0.119049
v -0.166690 -0.096201 -0.040941
v -0.165411 -0.096201 0.048513
v -0.119577 -0.096201 0.125342
v -0.026890 0.104263 0.111265
v 0.031763 0.104263 0.110426
v 0.082138 0.104263 0.080374
v 0.110738 0.104263 0.029160
v 0.109899 0.104263 -0.029493
v 0.079846 0.104263 -0.079868
v 0.028632 0.104263 -0.108468
v -0.030020 0.104263 -0.107629
v -0.080395 0.104263 -0.077576
v -0.108995 0.104263 -0.026362
v -0.108156 0.104263 0.032290
v -0.078104 0.104263 0.082665
v 0.031285 -0.095672 0.108738
v -0.026460 -0.095672 0.109564
v -0.076881 -0.095672 0.081407
v -0.106468 -0.095672 0.031812
v -0.107294 -0.095672 -0.025932
v -0.079137 -0.095672 -0.076354
v -0.029542 -0.095672 -0.105941
v 0.028203 -0.095672 -0.106767
v 0.078624 -0.095672 -0.078610
v 0.108211 -0.095672 -0.029014
v 0.109037 -0.095672 0.028730
v 0.080880 -0.095672 0.079151
vn 0.4876 -0.0000 -0.8731
vn -0.0000 1.0000 -0.0000
vn 0.9999 -0.0000 -0.0143
vn -0.0000 -1.0000 -0.0000
vn 0.5123 -0.0000 0.8588
vn -0.9999 -0.0000 0.0143
vn -0.5123 -0.0000 -0.8588
vn -0.4876 -0.0000 0.8731
vn -0.8588 -0.0000 0.5123
vn -0.8731 -0.0000 -0.4876
vn -0.0143 -0.0000 -0.9999
vn 0.8588 -0.0000 -0.5123
vn 0.8731 -0.0000 0.4876
vn 0.5154 -0.7999 -0.3075
vn 0.0143 -0.0000 0.9999
vn -0.5907 0.8069 0.0084
vn 0.8731 0.0085 0.4875
vn -0.3027 0.8069 -0.5073
vn 0.2880 0.8068 -0.5158
vn 0.5907 0.8069 -0.0084
vn 0.0084 0.8068 0.5907
vn 0.3027 0.8069 0.5073
vn -0.5073 0.8069 0.3027
vn -0.5158 0.8069 -0.2880
vn -0.0084 0.8068 -0.5907
vn -0.2880 0.8068 0.5158
vn 0.5073 0.8069 -0.3027
vn 0.5158 0.8069 0.2880
vn 0.5123 0.0085 0.8588
vn 0.5240 -0.7999 0.2926
vn -0.6001 -0.7999 0.0086
vn -0.3075 -0.7999 -0.5154
vn 0.2926 -0.7999 -0.5240
vn 0.6001 -0.7999 -0.0086
vn 0.3075 -0.7999 0.5154
vn -0.2926 -0.7999 0.5240
vn -0.5154 -0.7999 0.3075
vn 0.0086 -0.7999 0.6001
vn -0.5240 -0.7999 -0.2926
vn -0.0086 -0.7999 -0.6001
vn 0.0143 0.0085 0.9999
vn -0.0001 1.0000 -0.0088
vn -0.0045 1.0000 -0.0076
vn -0.0077 1.0000 -0.0043
vn -0.0088 1.0000 0.0001
vn -0.0076 1.0000 0.0045
vn -0.0043 1.0000 0.0077
vn 0.0001 1.0000 0.0088
vn 0.0045 1.0000 0.0076
vn 0.0077 1.0000 0.0043
vn 0.0088 1.0000 -0.0001
vn 0.0076 1.0000 -0.0045
vn 0.0043 1.0000 -0.0077
vn -0.4875 0.0085 0.8731
vn -0.0001 -1.0000 -0.0089
vn 0.0044 -1.0000 -0.0078
vn 0.0077 -1.0000 -0.0046
vn 0.0089 -1.0000 -0.0001
vn 0.0078 -1.0000 0.0044
vn 0.0046 -1.0000 0.0077
vn 0.0001 -1.0000 0.0089
vn -0.0044 -1.0000 0.0078
vn -0.0077 -1.0000 0.0046
vn -0.0089 -1.0000 0.0001
vn -0.0078 -1.0000 -0.0044
vn -0.0046 -1.0000 -0.0077
vn 0.9999 0.0085 -0.0143
vn 0.8588 0.0085 -0.5123
vn 0.4875 0.0085 -0.8731
vn -0.0143 0.0085 -0.9999
vn -0.5123 0.0085 -0.8588
vn -0.8731 0.0085 -0.4875
vn -0.9999 0.0085 0.0143
vn -0.8588 0.0085 0.5123
vt 0.870000 0.457846
vt 0.916667 0.500000
vt 0.750000 0.490000
vt 0.000000 0.500000
vt 1.000000 0.500000
vt 0.750000 0.490000
vt 0.000000 0.500000
vt 0.000000 1.000000
vt 0.250000 0.490000
vt 0.870000 0.457846
vt 0.916667 0.500000
vt 0.916667 1.000000
vt 0.370000 0.457846
vt 0.833333 0.500000
vt 0.957846 0.370000
vt 0.457846 0.370000
vt 0.833333 1.000000
vt 0.750000 0.500000
vt 0.990000 0.250000
vt 0.490000 0.250000
vt 0.750000 1.000000
vt 0.666667 0.500000
vt 0.957846 0.130000
vt 0.457846 0.130000
vt 0.666667 1.000000
vt 0.583333 0.500000
vt 0.870000 0.042154
vt 0.370000 0.042154
vt 0.583333 1.000000
vt 0.500000 0.500000
vt 0.750000 0.010000
vt 0.500000 1.000000
vt 0.250000 0.010000
vt 0.416667 0.500000
vt 0.630000 0.042154
vt 0.416667 1.000000
vt 0.130000 0.042154
vt 0.333333 0.500000
vt 0.542154 0.130000
vt 0.333333 1.000000
vt 0.042154 0.130000
vt 0.250000 0.500000
vt 0.510000 0.250000
vt 0.250000 1.000000
vt 0.010000 0.250000
vt 0.166667 0.500000
vt 0.542154 0.370000
vt 0.166667 1.000000
vt 0.042154 0.370000
vt 0.630000 0.457846
vt 0.083333 0.500000
vt 0.083333 1.000000
vt 0.130000 0.457846
vt 0.370000 0.457846
vt 0.916667 1.000000
vt 0.000000 1.000000
vt 0.250000 0.490000
vt 1.000000 1.000000
vt 0.457846 0.370000
vt 0.833333 1.000000
vt 0.957846 0.370000
vt 0.833333 0.500000
vt 0.990000 0.250000
vt 0.750000 0.500000
vt 0.490000 0.250000
vt 0.750000 1.000000
vt 0.666667 1.000000
vt 0.457846 0.130000
vt 0.957846 0.130000
vt 0.666667 0.500000
vt 0.870000 0.042154
vt 0.583333 0.500000
vt 0.583333 1.000000
vt 0.370000 0.042154
vt 0.250000 0.010000
vt 0.500000 1.000000
vt 0.750000 0.010000
vt 0.500000 0.500000
vt 0.630000 0.042154
vt 0.416667 0.500000
vt 0.130000 0.042154
vt 0.416667 1.000000
vt 0.042154 0.130000
vt 0.333333 1.000000
vt 0.333333 0.500000
vt 0.542154 0.130000
vt 0.510000 0.250000
vt 0.250000 0.500000
vt 0.010000 0.250000
vt 0.250000 1.000000
vt 0.166667 1.000000
vt 0.042154 0.370000
vt 0.166667 0.500000
vt 0.542154 0.370000
vt 0.083333 0.500000
vt 0.630000 0.457846
vt 0.083333 1.000000
vt 0.130000 0.457846
vt 0.000000 0.500000
vt 0.750000 0.490000
vt 0.916667 0.500000
vt 0.870000 0.457846
vt 0.833333 0.500000
vt 0.957846 0.370000
vt 0.750000 0.500000
vt 0.990000 0.250000
vt 0.666667 0.500000
vt 0.957846 0.130000
vt 0.583333 0.500000
vt 0.870000 0.042154
vt 0.500000 0.500000
vt 0.750000 0.010000
vt 0.416667 0.500000
vt 0.630000 0.042154
vt 0.333333 0.500000
vt 0.542154 0.130000
vt 0.250000 0.500000
vt 0.510000 0.250000
vt 0.166667 0.500000
vt 0.542154 0.370000
vt 0.083333 0.500000
vt 0.630000 0.457846
vt 0.916667 1.000000
vt 0.370000 0.457846
vt 0.000000 1.000000
vt 0.250000 0.490000
vt 0.833333 1.000000
vt 0.457846 0.370000
vt 0.750000 1.000000
vt 0.490000 0.250000
vt 0.666667 1.000000
vt 0.457846 0.130000
vt 0.583333 1.000000
vt 0.370000 0.042154
vt 0.500000 1.000000
vt 0.250000 0.010000
vt 0.416667 1.000000
vt 0.130000 0.042154
vt 0.333333 1.000000
vt 0.042154 0.130000
vt 0.250000 1.000000
vt 0.010000 0.250000
vt 0.166667 1.000000
vt 0.042154 0.370000
vt 0.083333 1.000000
vt 0.130000 0.457846
vt 0.750000 0.490000
vt 0.870000 0.457846
vt 0.957846 0.370000
vt 0.990000 0.250000
vt 0.957846 0.130000
vt 0.870000 0.042154
vt 0.750000 0.010000
vt 0.630000 0.042154
vt 0.542154 0.130000
vt 0.510000 0.250000
vt 0.542154 0.370000
vt 0.630000 0.457846
vt 0.370000 0.457846
vt 0.250000 0.490000
vt 0.130000 0.457846
vt 0.042154 0.370000
vt 0.010000 0.250000
vt 0.042154 0.130000
vt 0.130000 0.042154
vt 0.250000 0.010000
vt 0.370000 0.042154
vt 0.457846 0.130000
vt 0.490000 0.250000
vt 0.457846 0.370000
s 0
usemtl Gears
f 10/21/1 9/18/1 31/64/1 32/66/1
f 9/19/2 7/15/2 30/61/2 31/63/2
f 19/38/1 20/40/1 41/84/1 42/85/1
f 15/30/3 16/32/3 37/76/3 38/78/3
f 16/33/4 18/37/4 40/81/4 37/75/4
f 5/11/5 6/12/5 8/17/5 7/14/5
f 5/10/2 3/6/2 2/3/2 1/1/2
f 3/7/6 4/8/6 28/56/6 2/4/6
f 14/29/7 13/26/7 35/72/7 36/73/7
f 13/27/2 11/23/2 34/69/2 35/71/2
f 26/52/5 25/51/5 47/95/5 48/97/5
f 9/18/3 10/21/3 12/25/3 11/22/3
f 20/41/4 22/45/4 44/89/4 41/83/4
f 4/9/4 6/13/4 27/54/4 28/57/4
f 7/14/8 8/17/8 29/60/8 30/62/8
f 8/16/4 10/20/4 32/65/4 29/59/4
f 46/93/9 45/91/9 48/97/9 47/95/9
f 13/26/1 14/29/1 16/32/1 15/30/1
f 23/46/7 24/48/7 45/91/7 46/93/7
f 42/85/10 41/84/10 44/90/10 43/88/10
f 17/35/2 15/31/2 38/77/2 39/79/2
f 18/36/6 17/34/6 39/80/6 40/82/6
f 38/78/11 37/76/11 40/82/11 39/80/11
f 17/34/7 18/36/7 20/40/7 19/38/7
f 11/22/5 12/25/5 33/67/5 34/70/5
f 34/70/12 33/67/12 36/73/12 35/72/12
f 24/49/4 26/53/4 48/98/4 45/92/4
f 6/12/3 5/11/3 1/2/3 27/55/3
f 30/62/13 29/60/13 32/66/13 31/64/13
f 21/42/6 22/44/6 24/48/6 23/46/6
f 14/28/14 12/24/14 65/132/14 66/134/14
f 2/5/15 28/58/15 27/55/15 1/2/15
f 12/24/4 14/28/4 36/74/4 33/68/4
f 25/50/2 23/47/2 46/94/2 47/96/2
f 21/43/2 19/39/2 42/86/2 43/87/2
f 25/51/8 26/52/8 4/8/8 3/7/8
f 21/42/16 23/46/16 59/119/16 58/117/16
f 22/44/8 21/42/8 43/88/8 44/90/8
f 89/163/17 90/164/17 81/155/17 82/156/17
f 17/34/18 19/38/18 57/115/18 56/113/18
f 13/26/19 15/30/19 55/111/19 54/109/19
f 9/18/20 11/22/20 53/107/20 52/105/20
f 3/6/21 5/10/21 50/102/21 49/100/21
f 5/11/22 7/14/22 51/103/22 50/101/22
f 23/47/23 25/50/23 60/122/23 59/120/23
f 19/39/24 21/43/24 58/118/24 57/116/24
f 15/31/25 17/35/25 56/114/25 55/112/25
f 25/51/26 3/7/26 49/99/26 60/121/26
f 11/23/27 13/27/27 54/110/27 53/108/27
f 7/15/28 9/19/28 52/106/28 51/104/28
f 90/164/29 91/165/29 80/154/29 81/155/29
f 10/20/30 8/16/30 63/128/30 64/130/30
f 24/48/31 22/44/31 70/141/31 71/143/31
f 20/40/32 18/36/32 68/137/32 69/139/32
f 16/32/33 14/29/33 66/133/33 67/135/33
f 12/25/34 10/21/34 64/129/34 65/131/34
f 8/17/35 6/12/35 61/123/35 63/127/35
f 4/8/36 26/52/36 72/145/36 62/125/36
f 26/53/37 24/49/37 71/144/37 72/146/37
f 6/13/38 4/9/38 62/126/38 61/124/38
f 22/45/39 20/41/39 69/140/39 70/142/39
f 18/37/40 16/33/40 67/136/40 68/138/40
f 91/165/41 92/166/41 79/153/41 80/154/41
f 50/102/42 74/148/42 73/147/42 49/100/42
f 51/104/43 75/149/43 74/148/43 50/102/43
f 52/106/44 76/150/44 75/149/44 51/104/44
f 53/108/45 77/151/45 76/150/45 52/106/45
f 54/110/46 78/152/46 77/151/46 53/108/46
f 55/112/47 79/153/47 78/152/47 54/110/47
f 56/114/48 80/154/48 79/153/48 55/112/48
f 57/116/49 81/155/49 80/154/49 56/114/49
f 58/118/50 82/156/50 81/155/50 57/116/50
f 59/120/51 83/157/51 82/156/51 58/118/51
f 60/122/52 84/158/52 83/157/52 59/120/52
f 49/100/53 73/147/53 84/158/53 60/122/53
f 92/166/54 93/167/54 78/152/54 79/153/54
f 62/126/55 86/160/55 85/159/55 61/124/55
f 72/146/56 87/161/56 86/160/56 62/126/56
f 71/144/57 88/162/57 87/161/57 72/146/57
f 70/142/58 89/163/58 88/162/58 71/144/58
f 69/140/59 90/164/59 89/163/59 70/142/59
f 68/138/60 91/165/60 90/164/60 69/140/60
f 67/136/61 92/166/61 91/165/61 68/138/61
f 66/134/62 93/167/62 92/166/62 67/136/62
f 65/132/63 94/168/63 93/167/63 66/134/63
f 64/130/64 95/169/64 94/168/64 65/132/64
f 63/128/65 96/170/65 95/169/65 64/130/65
f 61/124/66 85/159/66 96/170/66 63/128/66
f 88/162/67 89/163/67 82/156/67 83/157/67
f 87/161/68 88/162/68 83/157/68 84/158/68
f 86/160/69 87/161/69 84/158/69 73/147/69
f 85/159/70 86/160/70 73/147/70 74/148/70
f 96/170/71 85/159/71 74/148/71 75/149/71
f 95/169/72 96/170/72 75/149/72 76/150/72
f 94/168/73 95/169/73 76/150/73 77/151/73
f 93/167/74 94/168/74 77/151/74 78/152/74
