# Blender 3.4.1
# www.blender.org
mtllib Health_pack.mtl
o health
v -0.477973 0.042110 0.176949
v -0.477973 1.002110 0.176949
v -0.477973 0.042110 -0.173051
v -0.477973 1.002110 -0.173051
v 0.482027 0.042110 0.176949
v 0.482027 1.002110 0.176949
v 0.482027 0.042110 -0.173051
v 0.482027 1.002110 -0.173051
v -0.477973 0.378110 0.176949
v -0.477973 0.378110 -0.173051
v 0.482027 0.378110 -0.173051
v 0.482027 0.378110 0.176949
v -0.477973 0.666110 0.176949
v -0.477973 0.666110 -0.173051
v 0.482027 0.666110 -0.173051
v 0.482027 0.666110 0.176949
v 0.146027 0.042110 -0.173051
v 0.146027 1.002110 -0.173051
v 0.146027 0.042110 0.176949
v 0.146027 1.002110 0.176949
v 0.146027 0.378110 0.176949
v 0.146027 0.378110 -0.173051
v 0.146027 0.666110 0.176949
v 0.146027 0.666110 -0.173051
v -0.141973 0.042110 -0.173051
v -0.141973 1.002110 0.176949
v -0.141973 0.378110 0.176949
v -0.141973 0.666110 0.176949
v -0.141973 1.002110 -0.173051
v -0.141973 0.042110 0.176949
v -0.141973 0.378110 -0.173051
v -0.141973 0.666110 -0.173051
v -0.520307 0.666110 -0.234789
v -0.520307 0.378110 -0.234789
v 0.524362 0.666110 -0.234789
v 0.524362 0.378110 -0.234789
v 0.524362 0.666110 0.238686
v 0.524362 0.378110 0.238686
v -0.141973 0.378110 0.264259
v -0.520307 0.378110 0.238686
v 0.146027 0.378110 -0.260361
v -0.520307 0.666110 0.238686
v -0.141973 0.666110 0.264259
v 0.146027 0.666110 -0.260361
v -0.141973 1.044444 -0.234789
v 0.146027 1.044444 -0.234789
v -0.141973 -0.000224 0.238686
v 0.146027 -0.000224 0.238686
v 0.146027 0.378110 0.264259
v -0.141973 0.378110 -0.260361
v 0.146027 0.666110 0.264259
v -0.141973 0.666110 -0.260361
v 0.146027 -0.000224 -0.234789
v 0.146027 1.044444 0.238686
v -0.141973 -0.000224 -0.234789
v -0.141973 1.044444 0.238686
vn -1.0000 -0.0000 -0.0000
vn -0.0000 -0.0000 -1.0000
vn 1.0000 -0.0000 -0.0000
vn -0.0000 -0.0000 1.0000
vn -0.0000 -1.0000 -0.0000
vn -0.0000 1.0000 -0.0000
vn -0.0674 -0.0000 0.9977
vn 0.0674 -0.0000 -0.9977
vn 0.0674 -0.0000 0.9977
vn -0.0000 -0.0674 -0.9977
vn -0.0000 0.0674 -0.9977
vn -0.0674 -0.0000 -0.9977
vn -0.0000 -0.0674 0.9977
vn -0.0000 0.0674 0.9977
vt 0.375000 1.000000
vt 0.375000 0.000000
vt 0.125000 0.750000
vt 0.625000 0.000000
vt 0.625000 1.000000
vt 0.875000 0.750000
vt 0.125000 0.500000
vt 0.375000 0.250000
vt 0.875000 0.500000
vt 0.625000 0.250000
vt 0.375000 0.750000
vt 0.625000 0.750000
vt 0.375000 0.500000
vt 0.625000 0.500000
vt 0.500000 0.000000
vt 0.500000 1.000000
vt 0.500000 0.250000
vt 0.500000 0.500000
vt 0.500000 0.750000
vt 0.562500 0.000000
vt 0.562500 1.000000
vt 0.562500 0.250000
vt 0.562500 0.500000
vt 0.562500 0.750000
vt 0.250000 0.500000
vt 0.375000 0.375000
vt 0.625000 0.375000
vt 0.750000 0.500000
vt 0.250000 0.750000
vt 0.375000 0.875000
vt 0.625000 0.875000
vt 0.750000 0.750000
vt 0.500000 0.875000
vt 0.500000 0.375000
vt 0.562500 0.875000
vt 0.562500 0.375000
vt 0.187500 0.500000
vt 0.375000 0.312500
vt 0.812500 0.750000
vt 0.625000 0.937500
vt 0.500000 0.937500
vt 0.562500 0.937500
vt 0.812500 0.500000
vt 0.625000 0.312500
vt 0.375000 0.937500
vt 0.187500 0.750000
vt 0.500000 0.312500
vt 0.562500 0.312500
vt 0.562500 0.250000
vt 0.500000 0.250000
vt 0.562500 0.500000
vt 0.500000 0.500000
vt 0.562500 0.750000
vt 0.500000 0.750000
vt 0.500000 0.937500
vt 0.500000 0.000000
vt 0.500000 1.000000
vt 0.500000 0.375000
vt 0.562500 0.000000
vt 0.562500 1.000000
vt 0.562500 0.937500
vt 0.562500 0.375000
vt 0.812500 0.500000
vt 0.625000 0.312500
vt 0.625000 0.375000
vt 0.750000 0.500000
vt 0.375000 0.937500
vt 0.187500 0.750000
vt 0.250000 0.750000
vt 0.375000 0.875000
vt 0.500000 0.875000
vt 0.500000 0.312500
vt 0.562500 0.875000
vt 0.562500 0.312500
vt 0.250000 0.500000
vt 0.375000 0.375000
vt 0.750000 0.750000
vt 0.625000 0.875000
vt 0.187500 0.500000
vt 0.375000 0.312500
vt 0.812500 0.750000
vt 0.625000 0.937500
s 0
usemtl healthpack
f 13/20/1 2/4/1 4/10/1 14/22/1
f 24/36/2 18/27/2 8/14/2 15/23/2
f 15/23/3 8/14/3 6/12/3 16/24/3
f 28/42/4 26/40/4 2/5/4 13/21/4
f 17/25/5 7/13/5 5/11/5 19/29/5
f 29/43/6 4/9/6 2/6/6 26/39/6
f 30/45/4 27/41/4 9/16/4 1/1/4
f 7/13/3 11/18/3 12/19/3 5/11/3
f 17/26/2 22/34/2 11/18/2 7/13/2
f 1/2/1 9/15/1 10/17/1 3/8/1
f 5/11/4 12/19/4 21/33/4 19/30/4
f 8/14/6 18/28/6 20/32/6 6/12/6
f 16/24/4 6/12/4 20/31/4 23/35/4
f 14/22/2 4/10/2 29/44/2 32/48/2
f 3/7/5 25/37/5 30/46/5 1/3/5
f 3/8/2 10/17/2 31/47/2 25/38/2
usemtl greenHealth
f 14/22/6 32/48/6 52/74/6 33/49/6
f 29/43/1 26/39/1 56/81/1 45/63/1
f 18/27/3 24/36/3 44/62/3 46/65/3
f 31/47/5 10/17/5 34/50/5 50/72/5
f 27/41/1 30/45/1 47/67/1 39/55/1
f 23/35/3 20/31/3 54/78/3 51/73/3
f 13/20/6 14/22/6 33/49/6 42/59/6
f 16/24/6 23/35/6 51/73/6 37/53/6
f 10/17/5 9/15/5 40/56/5 34/50/5
f 17/25/3 19/29/3 48/69/3 53/75/3
f 24/36/6 15/23/6 35/51/6 44/62/6
f 11/18/5 22/34/5 41/58/5 36/52/5
f 20/32/3 18/28/3 46/66/3 54/77/3
f 15/23/6 16/24/6 37/53/6 35/51/6
f 39/55/7 43/61/7 42/60/7 40/57/7
f 36/52/3 35/51/3 37/53/3 38/54/3
f 41/58/8 44/62/8 35/51/8 36/52/8
f 40/56/1 42/59/1 33/49/1 34/50/1
f 50/72/2 52/74/2 44/62/2 41/58/2
f 38/54/9 37/53/9 51/73/9 49/71/9
f 55/80/10 50/72/10 41/58/10 53/76/10
f 55/79/5 53/75/5 48/69/5 47/68/5
f 52/74/11 45/64/11 46/65/11 44/62/11
f 34/50/12 33/49/12 52/74/12 50/72/12
f 49/71/4 51/73/4 43/61/4 39/55/4
f 48/70/13 49/71/13 39/55/13 47/67/13
f 46/66/6 45/63/6 56/81/6 54/77/6
f 51/73/14 54/78/14 56/82/14 43/61/14
f 26/40/1 28/42/1 43/61/1 56/82/1
f 32/48/1 29/44/1 45/64/1 52/74/1
f 22/34/3 17/26/3 53/76/3 41/58/3
f 30/46/1 25/37/1 55/79/1 47/68/1
f 9/16/5 27/41/5 39/55/5 40/57/5
f 28/42/6 13/21/6 42/60/6 43/61/6
f 19/30/3 21/33/3 49/71/3 48/70/3
f 25/38/1 31/47/1 50/72/1 55/80/1
f 12/19/5 11/18/5 36/52/5 38/54/5
f 21/33/5 12/19/5 38/54/5 49/71/5
