# Blender 3.4.1
# www.blender.org
mtllib pillar.mtl
o pillar
v -0.304092 0.003596 0.275189
v -0.304092 3.003596 0.275189
v -0.304092 0.003596 -0.306956
v -0.304092 3.003596 -0.306956
v 0.314503 0.003596 0.275189
v 0.314503 3.003596 0.275189
v 0.314503 0.003596 -0.306956
v 0.314503 3.003596 -0.306956
v -0.304092 2.771140 0.132886
v -0.161789 2.771140 0.275189
v -0.349447 2.849302 0.320544
v -0.161789 2.771140 -0.306956
v -0.304092 2.771140 -0.164653
v -0.349447 2.849302 -0.352310
v 0.314503 2.771140 -0.164653
v 0.172200 2.771140 -0.306956
v 0.359858 2.849302 -0.352310
v 0.172200 2.771140 0.275189
v 0.314503 2.771140 0.132886
v 0.359858 2.849302 0.320544
v -0.304092 0.226289 -0.164653
v -0.161789 0.226289 -0.306956
v -0.349447 0.148126 -0.352310
v 0.172200 0.226289 -0.306956
v 0.314503 0.226289 -0.164653
v 0.359858 0.148126 -0.352310
v 0.314503 0.226289 0.132886
v 0.172200 0.226289 0.275189
v 0.359858 0.148126 0.320544
v -0.161789 0.226289 0.275189
v -0.304092 0.226289 0.132886
v -0.349447 0.148126 0.320544
v -0.239951 0.148126 0.275189
v -0.239951 2.849302 0.275189
v -0.304092 2.849302 0.211048
v -0.304092 0.148126 0.211048
v -0.239951 2.849302 -0.306956
v -0.239951 0.148126 -0.306956
v -0.304092 0.148126 -0.242815
v -0.304092 2.849302 -0.242815
v 0.314503 2.849302 -0.242815
v 0.314503 0.148126 -0.242815
v 0.250362 0.148126 -0.306956
v 0.250362 2.849302 -0.306956
v 0.250362 2.849302 0.275189
v 0.250362 0.148126 0.275189
v 0.314503 0.148126 0.211048
v 0.314503 2.849302 0.211048
v 0.172200 0.226289 0.188605
v 0.172200 2.771140 0.188605
v -0.161789 2.771140 0.188605
v -0.161789 0.226289 0.188605
v -0.217508 0.226289 0.132886
v -0.217508 2.771140 0.132886
v -0.217508 2.771140 -0.164653
v -0.217508 0.226289 -0.164653
v 0.227919 0.226289 -0.164653
v 0.227919 2.771140 -0.164653
v 0.227919 2.771140 0.132886
v 0.227919 0.226289 0.132886
v -0.161789 0.226289 -0.220371
v -0.161789 2.771140 -0.220371
v 0.172200 2.771140 -0.220371
v 0.172200 0.226289 -0.220371
v -0.431681 0.003596 -0.407437
v -0.404573 0.003596 -0.434544
v -0.412513 0.003596 -0.415376
v -0.404573 0.003596 0.402778
v -0.431681 0.003596 0.375670
v -0.412513 0.003596 0.383610
v -0.404573 2.849302 0.402778
v -0.431681 2.849302 0.375670
v -0.412513 2.849302 0.383610
v -0.431681 3.003596 0.375670
v -0.404573 3.003596 0.402778
v -0.412513 3.003596 0.383610
v -0.404573 3.003596 -0.434544
v -0.431681 3.003596 -0.407437
v -0.412513 3.003596 -0.415376
v -0.404573 0.148126 -0.434544
v -0.431681 0.148126 -0.407437
v -0.412513 0.148126 -0.415376
v 0.414984 0.003596 -0.434544
v 0.442092 0.003596 -0.407437
v 0.422924 0.003596 -0.415376
v 0.442092 3.003596 -0.407437
v 0.414984 3.003596 -0.434544
v 0.422924 3.003596 -0.415376
v 0.442092 0.148126 -0.407437
v 0.414984 0.148126 -0.434544
v 0.422924 0.148126 -0.415376
v 0.442092 0.003596 0.375670
v 0.414984 0.003596 0.402778
v 0.422924 0.003596 0.383610
v 0.414984 3.003596 0.402778
v 0.442092 3.003596 0.375670
v 0.422924 3.003596 0.383610
v 0.414984 0.148126 0.402778
v 0.442092 0.148126 0.375670
v 0.422924 0.148126 0.383610
v -0.431681 2.849302 -0.407437
v -0.404573 2.849302 -0.434544
v -0.412513 2.849302 -0.415376
v 0.414984 2.849302 -0.434544
v 0.442092 2.849302 -0.407437
v 0.422924 2.849302 -0.415376
v 0.442092 2.849302 0.375670
v 0.414984 2.849302 0.402778
v 0.422924 2.849302 0.383610
v -0.431681 0.148126 0.375670
v -0.404573 0.148126 0.402778
v -0.412513 0.148126 0.383610
vn 1.0000 -0.0000 -0.0000
vn -1.0000 -0.0000 -0.0000
vn -0.0000 1.0000 -0.0000
vn -0.0000 -1.0000 -0.0000
vn -0.0000 -0.0000 -1.0000
vn -0.0000 -0.0000 1.0000
vn -0.7071 -0.0000 0.7071
vn -0.7071 -0.0000 -0.7071
vn 0.7071 -0.0000 -0.7071
vn 0.7071 -0.0000 0.7071
vt 0.125000 0.750000
vt 0.875000 0.750000
vt 0.125000 0.500000
vt 0.875000 0.500000
vt 0.375000 0.750000
vt 0.625000 0.750000
vt 0.375000 0.500000
vt 0.625000 0.500000
vt 0.498192 0.061111
vt 0.498191 0.942489
vt 0.500000 0.000000
vt 0.500000 1.000000
vt 0.498191 0.307510
vt 0.498191 0.188889
vt 0.500000 0.250000
vt 0.498192 0.561112
vt 0.498191 0.442489
vt 0.500000 0.500000
vt 0.498191 0.807510
vt 0.498191 0.688889
vt 0.500000 0.750000
vt 0.439309 0.188889
vt 0.439309 0.307511
vt 0.437500 0.250000
vt 0.439309 0.442490
vt 0.439309 0.561112
vt 0.437500 0.500000
vt 0.439309 0.688889
vt 0.439309 0.807510
vt 0.437500 0.750000
vt 0.439309 0.942490
vt 0.439309 0.061111
vt 0.437500 0.000000
vt 0.437500 1.000000
vt 0.437500 0.974078
vt 0.500000 0.974078
vt 0.500000 1.000000
vt 0.500000 0.027545
vt 0.437500 1.000000
vt 0.437500 0.027545
vt 0.500000 0.275922
vt 0.437500 0.250000
vt 0.437500 0.275922
vt 0.437500 0.222455
vt 0.500000 0.250000
vt 0.500000 0.222455
vt 0.500000 0.527545
vt 0.437500 0.500000
vt 0.437500 0.527545
vt 0.437500 0.474078
vt 0.500000 0.500000
vt 0.500000 0.474078
vt 0.500000 0.775922
vt 0.437500 0.750000
vt 0.437500 0.775922
vt 0.437500 0.722455
vt 0.500000 0.750000
vt 0.500000 0.722455
vt 0.439309 0.807510
vt 0.498191 0.807510
vt 0.498191 0.942489
vt 0.439309 0.942490
vt 0.439309 0.061111
vt 0.498192 0.061111
vt 0.498191 0.188889
vt 0.439309 0.188889
vt 0.439309 0.561112
vt 0.498192 0.561112
vt 0.498191 0.688889
vt 0.439309 0.688889
vt 0.439309 0.307511
vt 0.498191 0.307510
vt 0.498191 0.442489
vt 0.439309 0.442490
vt 0.125000 0.508093
vt 0.125000 0.500000
vt 0.375000 0.241907
vt 0.375000 0.257756
vt 0.132756 0.500000
vt 0.125000 0.500000
vt 0.132756 0.750000
vt 0.375000 0.992244
vt 0.375000 0.008093
vt 0.125000 0.741907
vt 0.375000 1.000000
vt 0.125000 0.750000
vt 0.375000 0.994516
vt 0.500000 0.000000
vt 0.500000 0.992244
vt 0.500000 0.008093
vt 0.500000 1.000000
vt 0.500000 1.000000
vt 0.500000 0.000000
vt 0.875000 0.741907
vt 0.625000 0.008093
vt 0.625000 1.000000
vt 0.867244 0.750000
vt 0.625000 0.992244
vt 0.875000 0.750000
vt 0.625000 0.994516
vt 0.867244 0.500000
vt 0.625000 0.250000
vt 0.625000 0.257756
vt 0.875000 0.508093
vt 0.625000 0.241907
vt 0.875000 0.500000
vt 0.625000 0.244277
vt 0.437500 0.257756
vt 0.437500 0.250000
vt 0.437500 0.241907
vt 0.437500 0.250000
vt 0.375000 0.500000
vt 0.375000 0.492244
vt 0.367244 0.500000
vt 0.375000 0.508093
vt 0.375000 0.500000
vt 0.625000 0.508093
vt 0.632756 0.500000
vt 0.625000 0.500000
vt 0.625000 0.492244
vt 0.625000 0.500000
vt 0.625000 0.505723
vt 0.437500 0.508093
vt 0.437500 0.500000
vt 0.437500 0.492244
vt 0.437500 0.500000
vt 0.375000 0.750000
vt 0.375000 0.741907
vt 0.367244 0.750000
vt 0.375000 0.757756
vt 0.375000 0.750000
vt 0.632756 0.750000
vt 0.625000 0.757756
vt 0.625000 0.750000
vt 0.625000 0.741907
vt 0.625000 0.750000
vt 0.625000 0.755484
vt 0.437500 0.757756
vt 0.437500 0.750000
vt 0.437500 0.741907
vt 0.437500 0.750000
vt 0.500000 0.241907
vt 0.500000 0.250000
vt 0.500000 0.257756
vt 0.500000 0.250000
vt 0.500000 0.492244
vt 0.500000 0.500000
vt 0.500000 0.508093
vt 0.500000 0.500000
vt 0.500000 0.741907
vt 0.500000 0.750000
vt 0.500000 0.757756
vt 0.500000 0.750000
vt 0.437500 0.008093
vt 0.437500 1.000000
vt 0.437500 0.992244
vt 0.437500 0.000000
vt 0.437500 1.000000
vt 0.437500 0.994516
s 0
usemtl wall
f 105/148/1 86/117/1 96/135/1 107/150/1
f 69/83/2 110/154/2 81/110/2 65/77/2
f 84/115/1 89/123/1 99/140/1 92/128/1
f 32/33/3 36/40/3 39/44/3 23/24/3 82/111/3 81/110/3 110/154/3 112/157/3
f 3/3/4 7/7/4 5/5/4 1/1/4
f 8/8/3 4/4/3 2/2/3 6/6/3
f 20/21/4 48/58/4 41/47/4 17/18/4 106/149/4 105/148/4 107/150/4 109/153/4
f 23/24/3 38/43/3 43/50/3 26/27/3 91/126/3 90/125/3 80/108/3 82/111/3
f 11/12/4 34/36/4 45/53/4 20/21/4 109/153/4 108/152/4 71/89/4 73/92/4
f 3/3/4 1/1/4 70/86/4 69/84/4 65/75/4 67/80/4
f 17/18/4 44/52/4 37/41/4 14/15/4 103/145/4 102/144/4 104/146/4 106/149/4
f 2/2/3 4/4/3 79/106/3 78/104/3 74/94/3 76/99/3
f 4/4/3 8/8/3 88/121/3 87/118/3 77/101/3 79/106/3
f 26/27/3 42/49/3 47/56/3 29/30/3 100/141/3 99/140/3 89/123/3 91/126/3
f 14/15/4 40/46/4 35/38/4 11/11/4 73/93/4 72/90/4 101/142/4 103/145/4
f 66/78/5 80/108/5 90/125/5 83/113/5
f 1/1/4 5/5/4 94/131/4 93/129/4 68/81/4 70/86/4
f 8/8/3 6/6/3 97/136/3 96/135/3 86/117/3 88/121/3
f 108/152/6 95/133/6 75/98/6 71/89/6
f 5/5/4 7/7/4 85/116/4 84/115/4 92/128/4 94/131/4
f 6/6/3 2/2/3 76/99/3 75/97/3 95/132/3 97/136/3
f 93/130/6 98/138/6 111/156/6 68/82/6
f 29/30/3 46/55/3 33/35/3 32/34/3 112/158/3 111/156/3 98/138/3 100/141/3
f 102/144/5 77/103/5 87/120/5 104/146/5
f 35/37/4 34/36/4 11/12/4
f 37/41/4 40/45/4 14/15/4
f 41/47/4 44/51/4 17/18/4
f 45/53/4 48/57/4 20/21/4
f 39/44/3 38/42/3 23/24/3
f 43/50/3 42/48/3 26/27/3
f 47/56/3 46/54/3 29/30/3
f 33/35/3 36/39/3 32/34/3
f 33/35/7 34/36/7 35/37/7 36/39/7
f 37/41/8 38/43/8 39/44/8 40/46/8
f 41/47/9 42/49/9 43/50/9 44/52/9
f 45/53/10 46/55/10 47/56/10 48/58/10
f 72/90/2 74/95/2 78/105/2 101/142/2
f 30/31/6 10/10/6 34/36/6 33/35/6
f 9/9/2 31/32/2 36/40/2 35/38/2
f 12/13/5 22/23/5 38/43/5 37/41/5
f 21/22/2 13/14/2 40/46/2 39/44/2
f 15/16/1 25/26/1 42/49/1 41/47/1
f 24/25/5 16/17/5 44/52/5 43/50/5
f 18/19/6 28/29/6 46/55/6 45/53/6
f 27/28/1 19/20/1 48/58/1 47/56/1
f 10/10/6 18/19/6 45/53/6 34/36/6
f 31/32/2 21/22/2 39/44/2 36/40/2
f 13/14/2 9/9/2 35/38/2 40/46/2
f 28/29/6 30/31/6 33/35/6 46/55/6
f 16/17/5 12/13/5 37/41/5 44/52/5
f 22/23/5 24/25/5 43/50/5 38/43/5
f 19/20/1 15/16/1 41/47/1 48/58/1
f 25/26/1 27/28/1 47/56/1 42/49/1
f 49/59/6 50/60/6 51/61/6 52/62/6
f 18/19/2 50/60/2 49/59/2 28/29/2
f 10/10/4 51/61/4 50/60/4 18/19/4
f 30/31/1 52/62/1 51/61/1 10/10/1
f 28/29/3 49/59/3 52/62/3 30/31/3
f 53/63/2 54/64/2 55/65/2 56/66/2
f 9/9/5 54/64/5 53/63/5 31/32/5
f 13/14/4 55/65/4 54/64/4 9/9/4
f 21/22/6 56/66/6 55/65/6 13/14/6
f 31/32/3 53/63/3 56/66/3 21/22/3
f 57/67/1 58/68/1 59/69/1 60/70/1
f 15/16/6 58/68/6 57/67/6 25/26/6
f 19/20/4 59/69/4 58/68/4 15/16/4
f 27/28/5 60/70/5 59/69/5 19/20/5
f 25/26/3 57/67/3 60/70/3 27/28/3
f 61/71/5 62/72/5 63/73/5 64/74/5
f 12/13/1 62/72/1 61/71/1 22/23/1
f 16/17/4 63/73/4 62/72/4 12/13/4
f 24/25/2 64/74/2 63/73/2 16/17/2
f 22/23/3 61/71/3 64/74/3 24/25/3
f 65/76/4 66/79/4 67/80/4
f 68/82/4 69/85/4 70/87/4
f 71/88/4 72/90/4 73/93/4
f 74/96/3 75/98/3 76/100/3
f 77/102/3 78/105/3 79/107/3
f 80/108/3 81/109/3 82/111/3
f 83/112/4 84/115/4 85/116/4
f 86/117/3 87/119/3 88/122/3
f 89/123/3 90/124/3 91/126/3
f 92/127/4 93/129/4 94/131/4
f 95/133/3 96/134/3 97/137/3
f 98/138/3 99/139/3 100/141/3
f 101/142/4 102/143/4 103/145/4
f 104/146/4 105/147/4 106/149/4
f 107/150/4 108/151/4 109/153/4
f 110/155/3 111/156/3 112/159/3
f 71/89/7 75/98/7 74/96/7 72/91/7
f 80/108/8 66/78/8 65/77/8 81/110/8
f 89/123/9 84/115/9 83/113/9 90/125/9
f 98/138/10 93/130/10 92/128/10 99/140/10
f 77/103/8 102/144/8 101/142/8 78/105/8
f 86/117/9 105/148/9 104/146/9 87/120/9
f 95/133/10 108/152/10 107/150/10 96/135/10
f 68/82/7 111/156/7 110/155/7 69/85/7
f 7/7/4 3/3/4 67/80/4 66/79/4 83/114/4 85/116/4
