# Blender 3.4.1
# www.blender.org
mtllib platform_pipe_endcap.mtl
o platform_with_pipe_endcap
v -2.182839 0.148847 1.784649
v 2.180034 0.148847 1.784649
v -2.182839 0.036927 1.979839
v 2.180034 0.036927 1.979839
v -2.182839 0.150007 2.174358
v 2.180034 0.150007 2.174358
v -2.182839 0.375006 2.173689
v 2.180034 0.375006 2.173689
v -2.182839 0.486925 1.978499
v 2.180034 0.486925 1.978499
v -2.182839 0.373846 1.783979
v 2.180034 0.373846 1.783979
v -0.154998 0.148847 1.784649
v -0.154998 0.036927 1.979839
v -0.154998 0.150007 2.174358
v -0.154998 0.375006 2.173689
v -0.154998 0.486925 1.978499
v -0.154998 0.373846 1.783979
v 0.148545 0.148847 1.784649
v 0.148545 0.036927 1.979839
v 0.148545 0.150007 2.174358
v 0.148545 0.375006 2.173689
v 0.148545 0.486925 1.978499
v 0.148545 0.373846 1.783979
v 0.148545 0.008128 1.979924
v -0.154998 0.008128 1.979924
v 0.148545 0.135682 2.199342
v -0.154998 0.135682 2.199342
v 0.148545 0.389480 2.198587
v -0.154998 0.389480 2.198587
v 0.148545 0.515724 1.978413
v -0.154998 0.515724 1.978413
v 0.148545 0.388171 1.758996
v -0.154998 0.388171 1.758996
v -0.154998 0.134373 1.759751
v 0.148545 0.134373 1.759751
v -2.178039 0.148847 -2.195773
v 2.184834 0.148847 -2.195773
v -2.178039 0.036927 -2.000584
v 2.184834 0.036927 -2.000584
v -2.178039 0.150007 -1.806063
v 2.184834 0.150007 -1.806063
v -2.178039 0.375006 -1.806733
v 2.184834 0.375006 -1.806733
v -2.178039 0.486925 -2.001923
v 2.184834 0.486925 -2.001923
v -2.178039 0.373846 -2.196443
v 2.184834 0.373846 -2.196443
v -0.150198 0.148847 -2.195773
v -0.150198 0.036927 -2.000584
v -0.150198 0.150007 -1.806063
v -0.150198 0.375006 -1.806733
v -0.150198 0.486925 -2.001923
v -0.150198 0.373846 -2.196443
v 0.153345 0.148847 -2.195773
v 0.153345 0.036927 -2.000584
v 0.153345 0.150007 -1.806063
v 0.153345 0.375006 -1.806733
v 0.153345 0.486925 -2.001923
v 0.153345 0.373846 -2.196443
v 0.153345 0.008128 -2.000498
v -0.150198 0.008128 -2.000498
v 0.153345 0.135682 -1.781080
v -0.150198 0.135682 -1.781080
v 0.153345 0.389480 -1.781836
v -0.150198 0.389480 -1.781836
v 0.153345 0.515724 -2.002009
v -0.150198 0.515724 -2.002009
v 0.153345 0.388171 -2.221427
v -0.150198 0.388171 -2.221427
v -0.150198 0.134373 -2.220671
v 0.153345 0.134373 -2.220671
v 2.495224 0.036927 1.979839
v 2.495224 0.148847 1.784649
v 2.495224 0.373846 1.783979
v 2.495224 0.486925 1.978499
v 2.495224 0.375006 2.173689
v 2.495224 0.150007 2.174358
v 2.500024 0.036927 -2.000584
v 2.500024 0.148847 -2.195773
v 2.500024 0.373846 -2.196443
v 2.500024 0.486925 -2.001923
v 2.500024 0.375006 -1.806733
v 2.500024 0.150007 -1.806063
v 2.180034 0.008928 1.979922
v 2.180034 0.134775 1.760443
v 2.180034 0.136080 2.198648
v 2.180034 0.389078 2.197895
v 2.180034 0.514924 1.978416
v 2.180034 0.387773 1.759690
v 2.184834 0.008928 -2.000500
v 2.184834 0.134775 -2.219980
v 2.184834 0.136080 -1.781774
v 2.184834 0.389078 -1.782527
v 2.184834 0.514924 -2.002007
v 2.184834 0.387773 -2.220733
v 2.435226 0.134775 1.760443
v 2.435226 0.008928 1.979922
v 2.435226 0.387773 1.759690
v 2.435226 0.514924 1.978416
v 2.435226 0.389078 2.197895
v 2.435226 0.136080 2.198648
v 2.440026 0.134775 -2.219980
v 2.440026 0.008928 -2.000500
v 2.440026 0.387773 -2.220733
v 2.440026 0.514924 -2.002007
v 2.440026 0.389078 -1.782527
v 2.440026 0.136080 -1.781774
v -2.179422 0.121457 1.754036
v -2.179422 0.398211 1.754036
v -2.179422 0.121457 -1.781627
v -2.179422 0.398211 -1.781627
v 2.503407 0.121457 1.754036
v 2.503407 0.398211 1.754036
v 2.503407 0.121457 -1.781627
v 2.503407 0.398211 -1.781627
v 0.173992 0.121457 -1.781627
v 0.173992 0.398211 -1.781627
v 0.173992 0.121457 1.754036
v 0.173992 0.398211 1.754036
v -2.089498 0.121457 -1.781627
v -2.089498 0.398211 1.754036
v -2.089498 0.398211 -1.781627
v -2.089498 0.121457 1.754036
v 2.226865 0.398211 -1.781627
v 2.226865 0.121457 1.754036
v 2.226864 0.121457 -1.781627
v 2.226864 0.398211 1.754036
v -2.179422 0.121457 1.636970
v -2.179422 0.398211 1.636970
v 2.503407 0.121457 1.636970
v 2.503407 0.398211 1.636970
v 0.173992 0.398211 1.636970
v 0.173992 0.121457 1.636970
v -2.089498 0.121457 1.636970
v -2.089498 0.398211 1.636970
v 2.226864 0.398211 1.636970
v 2.226864 0.121457 1.636970
v -2.179422 0.398211 -1.708118
v 2.503407 0.121457 -1.708118
v -2.179422 0.121457 -1.708118
v 2.503407 0.398211 -1.708118
v 0.173992 0.398211 -1.708118
v 0.173992 0.121457 -1.708118
v -2.089498 0.121457 -1.708118
v -2.089498 0.398211 -1.708118
v 2.226864 0.398211 -1.708118
v 2.226864 0.121457 -1.708118
v 0.173992 0.338108 -1.708118
v 0.173992 0.338108 1.636970
v 0.173992 0.185016 -1.708118
v 0.173992 0.185016 1.636970
v -2.089498 0.185016 -1.708118
v -2.089498 0.185016 1.636970
v -2.089498 0.338108 -1.708118
v -2.089498 0.338108 1.636970
v 2.226864 0.338108 -1.708118
v 2.226864 0.338108 1.636970
v 2.226864 0.185016 -1.708118
v 2.226864 0.185016 1.636970
vn -0.0000 -0.8675 -0.4974
vn -0.0000 -0.8645 0.5026
vn -0.0000 0.0030 1.0000
vn -0.0000 0.8675 0.4974
vn -0.0000 0.8645 -0.5026
vn -0.0000 -0.0030 -1.0000
vn -1.0000 -0.0000 -0.0000
vn 1.0000 -0.0000 -0.0000
vn 0.3747 0.0028 0.9271
vn 0.3747 -0.0028 -0.9271
vn 0.3747 0.8043 0.4612
vn 0.3747 -0.8043 -0.4612
vn 0.3747 0.8015 -0.4660
vn 0.3747 -0.8015 0.4660
vn -0.0000 -0.0000 -1.0000
vn -0.0000 -0.0000 1.0000
vn -0.0000 -1.0000 -0.0000
vn -0.0000 1.0000 -0.0000
vt 0.750000 0.490000
vt -0.000000 0.500000
vt 1.000000 0.500000
vt 1.000000 1.000000
vt -0.000000 1.000000
vt 0.957846 0.370000
vt 0.833333 0.500000
vt 0.833333 1.000000
vt 0.957846 0.130000
vt 0.666667 0.500000
vt 0.666667 1.000000
vt 0.750000 0.010000
vt 0.500000 0.500000
vt 0.500000 1.000000
vt 0.542154 0.130000
vt 0.333333 0.500000
vt 0.333333 1.000000
vt 0.542154 0.370000
vt 0.166667 0.500000
vt 0.166667 1.000000
vt 1.000000 0.750000
vt -0.000000 0.750000
vt 0.833333 0.750000
vt 0.666667 0.750000
vt 0.500000 0.750000
vt 0.333333 0.750000
vt 0.166667 0.750000
vt -0.000000 0.875000
vt 1.000000 0.875000
vt 0.833333 0.875000
vt 0.666667 0.875000
vt 0.500000 0.875000
vt 0.333333 0.875000
vt 0.166667 0.875000
vt 0.833333 0.875000
vt 0.833333 0.750000
vt 0.666667 0.875000
vt 0.666667 0.750000
vt 0.500000 0.875000
vt 0.500000 0.750000
vt 0.333333 0.875000
vt 0.333333 0.750000
vt 0.166667 0.875000
vt 0.166667 0.750000
vt 1.000000 0.750000
vt -0.000000 0.750000
vt -0.000000 0.875000
vt 1.000000 0.875000
vt 0.750000 0.490000
vt -0.000000 0.500000
vt 1.000000 0.500000
vt 1.000000 1.000000
vt -0.000000 1.000000
vt 0.957846 0.370000
vt 0.833333 0.500000
vt 0.833333 1.000000
vt 0.957846 0.130000
vt 0.666667 0.500000
vt 0.666667 1.000000
vt 0.750000 0.010000
vt 0.500000 0.500000
vt 0.500000 1.000000
vt 0.542154 0.130000
vt 0.333333 0.500000
vt 0.333333 1.000000
vt 0.542154 0.370000
vt 0.166667 0.500000
vt 0.166667 1.000000
vt 1.000000 0.750000
vt -0.000000 0.750000
vt 0.833333 0.750000
vt 0.666667 0.750000
vt 0.500000 0.750000
vt 0.333333 0.750000
vt 0.166667 0.750000
vt -0.000000 0.875000
vt 1.000000 0.875000
vt 0.833333 0.875000
vt 0.666667 0.875000
vt 0.500000 0.875000
vt 0.333333 0.875000
vt 0.166667 0.875000
vt 0.833333 0.875000
vt 0.833333 0.750000
vt 0.666667 0.875000
vt 0.666667 0.750000
vt 0.500000 0.875000
vt 0.500000 0.750000
vt 0.333333 0.875000
vt 0.333333 0.750000
vt 0.166667 0.875000
vt 0.166667 0.750000
vt 1.000000 0.750000
vt -0.000000 0.750000
vt -0.000000 0.875000
vt 1.000000 0.875000
vt 0.457846 0.370000
vt 0.250000 0.490000
vt 0.042154 0.370000
vt 0.042154 0.130000
vt 0.250000 0.010000
vt 0.457846 0.130000
vt 0.457846 0.370000
vt 0.250000 0.490000
vt 0.042154 0.370000
vt 0.042154 0.130000
vt 0.250000 0.010000
vt 0.457846 0.130000
vt 0.457846 0.370000
vt 0.833333 1.000000
vt 0.250000 0.490000
vt 1.000000 1.000000
vt -0.000000 1.000000
vt 0.457846 0.130000
vt 0.666667 1.000000
vt 0.250000 0.010000
vt 0.500000 1.000000
vt 0.042154 0.130000
vt 0.333333 1.000000
vt 0.042154 0.370000
vt 0.166667 1.000000
vt 0.833333 1.000000
vt 0.457846 0.370000
vt 1.000000 1.000000
vt 0.250000 0.490000
vt -0.000000 1.000000
vt 0.666667 1.000000
vt 0.457846 0.130000
vt 0.250000 0.010000
vt 0.500000 1.000000
vt 0.042154 0.130000
vt 0.333333 1.000000
vt 0.042154 0.370000
vt 0.166667 1.000000
vt 0.250000 0.490000
vt 0.457846 0.370000
vt 0.042154 0.370000
vt 0.042154 0.130000
vt 0.250000 0.010000
vt 0.457846 0.130000
vt 0.250000 0.490000
vt 0.457846 0.370000
vt 0.042154 0.370000
vt 0.042154 0.130000
vt 0.250000 0.010000
vt 0.457846 0.130000
vt 0.000000 0.000000
vt 0.000000 0.000000
vt 0.000000 0.000000
vt 0.000000 0.000000
vt 0.000000 0.000000
vt 0.000000 0.000000
vt 0.000000 0.000000
vt 0.000000 0.000000
vt 0.000000 0.000000
vt 0.000000 0.000000
vt 0.000000 0.000000
vt 0.000000 0.000000
vt 0.000000 0.000000
vt 0.000000 0.000000
vt 0.000000 0.000000
vt 0.000000 0.000000
vt 0.000000 0.000000
vt 0.000000 0.000000
vt 0.000000 0.000000
vt 0.000000 0.000000
vt 0.000000 0.000000
vt 0.000000 0.000000
vt 0.000000 0.000000
vt 0.000000 0.000000
vt 0.000000 0.000000
vt 0.000000 0.000000
vt 0.000000 0.000000
vt 0.000000 0.000000
vt 0.000000 0.000000
vt 0.000000 0.000000
vt 0.000000 0.000000
vt 0.000000 0.000000
vt 0.000000 0.000000
vt 0.000000 0.000000
vt 0.000000 0.000000
vt 0.000000 0.000000
vt 0.000000 0.000000
vt 0.000000 0.000000
vt 0.000000 0.000000
vt 0.000000 0.000000
vt 0.000000 0.000000
vt 0.000000 0.000000
vt 0.000000 0.000000
vt 0.000000 0.000000
vt 0.000000 0.000000
vt 0.000000 0.000000
vt 0.000000 0.000000
vt 0.000000 0.000000
vt 0.000000 0.000000
vt 0.000000 0.000000
vt 0.000000 0.000000
vt 0.000000 0.000000
s 0
usemtl small_pipe
f 19/29/1 2/4/1 4/8/1 20/30/1
f 20/30/2 4/8/2 6/11/2 21/31/2
f 21/31/3 6/11/3 8/14/3 22/32/3
f 22/32/4 8/14/4 10/17/4 23/33/4
f 23/33/5 10/17/5 12/20/5 24/34/5
f 24/34/6 12/20/6 2/5/6 19/28/6
f 1/1/7 3/6/7 5/9/7 7/12/7 9/15/7 11/18/7
f 11/19/6 18/27/6 13/22/6 1/2/6
f 9/16/5 17/26/5 18/27/5 11/19/5
f 7/13/4 16/25/4 17/26/4 9/16/4
f 5/10/3 15/24/3 16/25/3 7/13/3
f 3/7/2 14/23/2 15/24/2 5/10/2
f 1/3/1 13/21/1 14/23/1 3/7/1
f 20/30/8 21/31/8 27/37/8 25/35/8
f 17/26/7 16/25/7 30/40/7 32/42/7
f 24/34/8 19/28/8 36/47/8 33/43/8
f 14/23/7 13/21/7 35/45/7 26/36/7
f 21/31/8 22/32/8 29/39/8 27/37/8
f 18/27/7 17/26/7 32/42/7 34/44/7
f 34/44/6 33/43/6 36/47/6 35/46/6
f 32/42/5 31/41/5 33/43/5 34/44/5
f 30/40/4 29/39/4 31/41/4 32/42/4
f 28/38/3 27/37/3 29/39/3 30/40/3
f 26/36/2 25/35/2 27/37/2 28/38/2
f 35/45/1 36/48/1 25/35/1 26/36/1
f 23/33/8 24/34/8 33/43/8 31/41/8
f 16/25/7 15/24/7 28/38/7 30/40/7
f 19/29/8 20/30/8 25/35/8 36/48/8
f 13/22/7 18/27/7 34/44/7 35/46/7
f 22/32/8 23/33/8 31/41/8 29/39/8
f 15/24/7 14/23/7 26/36/7 28/38/7
f 55/77/1 38/52/1 40/56/1 56/78/1
f 56/78/2 40/56/2 42/59/2 57/79/2
f 57/79/3 42/59/3 44/62/3 58/80/3
f 58/80/4 44/62/4 46/65/4 59/81/4
f 59/81/5 46/65/5 48/68/5 60/82/5
f 60/82/6 48/68/6 38/53/6 55/76/6
f 37/49/7 39/54/7 41/57/7 43/60/7 45/63/7 47/66/7
f 47/67/6 54/75/6 49/70/6 37/50/6
f 45/64/5 53/74/5 54/75/5 47/67/5
f 43/61/4 52/73/4 53/74/4 45/64/4
f 41/58/3 51/72/3 52/73/3 43/61/3
f 39/55/2 50/71/2 51/72/2 41/58/2
f 37/51/1 49/69/1 50/71/1 39/55/1
f 56/78/8 57/79/8 63/85/8 61/83/8
f 53/74/7 52/73/7 66/88/7 68/90/7
f 60/82/8 55/76/8 72/95/8 69/91/8
f 50/71/7 49/69/7 71/93/7 62/84/7
f 57/79/8 58/80/8 65/87/8 63/85/8
f 54/75/7 53/74/7 68/90/7 70/92/7
f 70/92/6 69/91/6 72/95/6 71/94/6
f 68/90/5 67/89/5 69/91/5 70/92/5
f 66/88/4 65/87/4 67/89/4 68/90/4
f 64/86/3 63/85/3 65/87/3 66/88/3
f 62/84/2 61/83/2 63/85/2 64/86/2
f 71/93/1 72/96/1 61/83/1 62/84/1
f 59/81/8 60/82/8 69/91/8 67/89/8
f 52/73/7 51/72/7 64/86/7 66/88/7
f 55/77/8 56/78/8 61/83/8 72/96/8
f 49/70/7 54/75/7 70/92/7 71/94/7
f 58/80/8 59/81/8 67/89/8 65/87/8
f 51/72/7 50/71/7 62/84/7 64/86/7
f 73/97/8 74/98/8 75/99/8 76/100/8 77/101/8 78/102/8
f 40/56/7 38/52/7 92/124/7 91/122/7
f 44/62/7 42/59/7 93/127/7 94/130/7
f 84/108/9 83/107/9 107/145/9 108/146/9
f 75/99/10 74/98/10 97/135/10 99/137/10
f 12/20/7 10/17/7 89/119/7 90/121/7
f 83/107/11 82/106/11 106/144/11 107/145/11
f 79/103/8 80/104/8 81/105/8 82/106/8 83/107/8 84/108/8
f 74/98/12 73/97/12 98/136/12 97/135/12
f 48/68/7 46/65/7 95/132/7 96/134/7
f 82/106/13 81/105/13 105/143/13 106/144/13
f 6/11/7 4/8/7 85/110/7 87/115/7
f 42/59/7 40/56/7 91/122/7 93/127/7
f 81/105/10 80/104/10 103/141/10 105/143/10
f 86/111/1 97/135/1 98/136/1 85/109/1
f 90/120/6 99/137/6 97/135/6 86/111/6
f 89/118/5 100/138/5 99/137/5 90/120/5
f 88/116/4 101/139/4 100/138/4 89/118/4
f 87/114/3 102/140/3 101/139/3 88/116/3
f 85/109/2 98/136/2 102/140/2 87/114/2
f 92/125/1 103/141/1 104/142/1 91/123/1
f 96/133/6 105/143/6 103/141/6 92/125/6
f 95/131/5 106/144/5 105/143/5 96/133/5
f 94/129/4 107/145/4 106/144/4 95/131/4
f 93/128/3 108/146/3 107/145/3 94/129/3
f 91/123/2 104/142/2 108/146/2 93/128/2
f 8/14/7 6/11/7 87/115/7 88/117/7
f 76/100/13 75/99/13 99/137/13 100/138/13
f 79/103/14 84/108/14 108/146/14 104/142/14
f 4/8/7 2/4/7 86/112/7 85/110/7
f 38/53/7 48/68/7 96/134/7 92/126/7
f 77/101/11 76/100/11 100/138/11 101/139/11
f 2/5/7 12/20/7 90/121/7 86/113/7
f 78/102/9 77/101/9 101/139/9 102/140/9
f 46/65/7 44/62/7 94/130/7 95/132/7
f 80/104/12 79/103/12 104/142/12 103/141/12
f 10/17/7 8/14/7 88/117/7 89/119/7
f 73/97/14 78/102/14 102/140/14 98/136/14
usemtl wall
f 141/179/7 139/177/7 112/150/7 111/149/7
f 127/165/15 125/163/15 116/154/15 115/153/15
f 131/169/8 132/170/8 114/152/8 113/151/8
f 124/162/16 122/160/16 110/148/16 109/147/16
f 138/176/17 131/169/17 113/151/17 126/164/17
f 136/174/18 130/168/18 110/148/18 122/160/18
f 137/175/18 133/171/18 120/158/18 128/166/18
f 135/173/17 134/172/17 119/157/17 124/162/17
f 126/164/16 128/166/16 120/158/16 119/157/16
f 121/159/15 123/161/15 118/156/15 117/155/15
f 111/149/15 112/150/15 123/161/15 121/159/15
f 129/167/17 135/173/17 124/162/17 109/147/17
f 133/171/18 136/174/18 122/160/18 120/158/18
f 119/157/16 120/158/16 122/160/16 124/162/16
f 113/151/16 114/152/16 128/166/16 126/164/16
f 132/170/18 137/175/18 128/166/18 114/152/18
f 134/172/17 138/176/17 126/164/17 119/157/17
f 117/155/15 118/156/15 125/163/15 127/165/15
f 143/181/16 146/184/16 155/193/16 149/187/16
f 142/180/18 147/185/18 137/175/18 132/170/18
f 136/174/15 133/171/15 150/188/15 156/194/15
f 141/179/17 145/183/17 135/173/17 129/167/17
f 133/171/15 137/175/15 158/196/15 150/188/15
f 137/175/7 147/185/7 157/195/7 158/196/7
f 146/184/18 139/177/18 130/168/18 136/174/18
f 148/186/17 140/178/17 131/169/17 138/176/17
f 140/178/8 142/180/8 132/170/8 131/169/8
f 109/147/7 110/148/7 130/168/7 129/167/7
f 115/153/8 116/154/8 142/180/8 140/178/8
f 127/165/17 115/153/17 140/178/17 148/186/17
f 123/161/18 112/150/18 139/177/18 146/184/18
f 125/163/18 118/156/18 143/181/18 147/185/18
f 121/159/17 117/155/17 144/182/17 145/183/17
f 111/149/17 121/159/17 145/183/17 141/179/17
f 118/156/18 123/161/18 146/184/18 143/181/18
f 116/154/18 125/163/18 147/185/18 142/180/18
f 117/155/17 127/165/17 148/186/17 144/182/17
f 129/167/7 130/168/7 139/177/7 141/179/7
f 151/189/17 159/197/17 160/198/17 152/190/17
f 149/187/18 155/193/18 156/194/18 150/188/18
f 153/191/17 151/189/17 152/190/17 154/192/17
f 157/195/18 149/187/18 150/188/18 158/196/18
f 148/186/7 138/176/7 160/198/7 159/197/7
f 147/185/16 143/181/16 149/187/16 157/195/16
f 135/173/8 145/183/8 153/191/8 154/192/8
f 138/176/15 134/172/15 152/190/15 160/198/15
f 145/183/16 144/182/16 151/189/16 153/191/16
f 146/184/8 136/174/8 156/194/8 155/193/8
f 134/172/15 135/173/15 154/192/15 152/190/15
f 144/182/16 148/186/16 159/197/16 151/189/16
