# Blender 3.4.1
# www.blender.org
mtllib platform.mtl
o platform
v -2.155423 0.121457 2.111145
v -2.155423 0.398211 2.111145
v -2.155423 0.121457 -2.242413
v -2.155423 0.398211 -2.242413
v 2.503407 0.121457 2.111145
v 2.503407 0.398211 2.111145
v 2.503407 0.121457 -2.242413
v 2.503407 0.398211 -2.242413
v 0.173992 0.121457 -2.242413
v 0.173992 0.398211 -2.242413
v 0.173992 0.121457 2.111145
v 0.173992 0.398211 2.111145
v -2.065499 0.121457 -2.242413
v -2.065499 0.398211 2.111145
v -2.065499 0.398211 -2.242413
v -2.065499 0.121457 2.111145
v 2.434218 0.398211 -2.242413
v 2.434218 0.121457 2.111145
v 2.434218 0.121457 -2.242413
v 2.434218 0.398211 2.111145
v -2.155423 0.121457 1.994080
v -2.155423 0.398211 1.994080
v 2.503407 0.121457 1.994080
v 2.503407 0.398211 1.994080
v 0.173992 0.398211 1.994080
v 0.173992 0.121457 1.994080
v -2.065499 0.121457 1.994080
v -2.065499 0.398211 1.994080
v 2.434218 0.398211 1.994080
v 2.434218 0.121457 1.994080
v -2.155423 0.398211 -2.168904
v 2.503407 0.121457 -2.168904
v -2.155423 0.121457 -2.168904
v 2.503407 0.398211 -2.168904
v 0.173992 0.398211 -2.168904
v 0.173992 0.121457 -2.168904
v -2.065499 0.121457 -2.168904
v -2.065499 0.398211 -2.168904
v 2.434218 0.398211 -2.168904
v 2.434218 0.121457 -2.168904
v 0.173992 0.338108 -2.168904
v 0.173992 0.338108 1.994080
v 0.173992 0.185016 -2.168904
v 0.173992 0.185016 1.994080
v -2.065499 0.185016 -2.168904
v -2.065499 0.185016 1.994080
v -2.065499 0.338108 -2.168904
v -2.065499 0.338108 1.994080
v 2.434218 0.338108 -2.168904
v 2.434218 0.338108 1.994080
v 2.434218 0.185016 -2.168904
v 2.434218 0.185016 1.994080
vn -1.0000 -0.0000 -0.0000
vn -0.0000 -0.0000 -1.0000
vn 1.0000 -0.0000 -0.0000
vn -0.0000 -0.0000 1.0000
vn -0.0000 -1.0000 -0.0000
vn -0.0000 1.0000 -0.0000
vt 0.000000 0.000000
vt 0.000000 0.000000
vt 0.000000 0.000000
vt 0.000000 0.000000
vt 0.000000 0.000000
vt 0.000000 0.000000
vt 0.000000 0.000000
vt 0.000000 0.000000
vt 0.000000 0.000000
vt 0.000000 0.000000
vt 0.000000 0.000000
vt 0.000000 0.000000
vt 0.000000 0.000000
vt 0.000000 0.000000
vt 0.000000 0.000000
vt 0.000000 0.000000
vt 0.000000 0.000000
vt 0.000000 0.000000
vt 0.000000 0.000000
vt 0.000000 0.000000
vt 0.000000 0.000000
vt 0.000000 0.000000
vt 0.000000 0.000000
vt 0.000000 0.000000
vt 0.000000 0.000000
vt 0.000000 0.000000
vt 0.000000 0.000000
vt 0.000000 0.000000
vt 0.000000 0.000000
vt 0.000000 0.000000
vt 0.000000 0.000000
vt 0.000000 0.000000
vt 0.000000 0.000000
vt 0.000000 0.000000
vt 0.000000 0.000000
vt 0.000000 0.000000
vt 0.000000 0.000000
vt 0.000000 0.000000
vt 0.000000 0.000000
vt 0.000000 0.000000
vt 0.000000 0.000000
vt 0.000000 0.000000
vt 0.000000 0.000000
vt 0.000000 0.000000
vt 0.000000 0.000000
vt 0.000000 0.000000
vt 0.000000 0.000000
vt 0.000000 0.000000
vt 0.000000 0.000000
vt 0.000000 0.000000
vt 0.000000 0.000000
vt 0.000000 0.000000
s 0
usemtl wall
f 33/33/1 31/31/1 4/4/1 3/3/1
f 19/19/2 17/17/2 8/8/2 7/7/2
f 23/23/3 24/24/3 6/6/3 5/5/3
f 16/16/4 14/14/4 2/2/4 1/1/4
f 30/30/5 23/23/5 5/5/5 18/18/5
f 28/28/6 22/22/6 2/2/6 14/14/6
f 29/29/6 25/25/6 12/12/6 20/20/6
f 27/27/5 26/26/5 11/11/5 16/16/5
f 18/18/4 20/20/4 12/12/4 11/11/4
f 13/13/2 15/15/2 10/10/2 9/9/2
f 3/3/2 4/4/2 15/15/2 13/13/2
f 21/21/5 27/27/5 16/16/5 1/1/5
f 25/25/6 28/28/6 14/14/6 12/12/6
f 11/11/4 12/12/4 14/14/4 16/16/4
f 5/5/4 6/6/4 20/20/4 18/18/4
f 24/24/6 29/29/6 20/20/6 6/6/6
f 26/26/5 30/30/5 18/18/5 11/11/5
f 9/9/2 10/10/2 17/17/2 19/19/2
f 35/35/4 38/38/4 47/47/4 41/41/4
f 34/34/6 39/39/6 29/29/6 24/24/6
f 28/28/2 25/25/2 42/42/2 48/48/2
f 33/33/5 37/37/5 27/27/5 21/21/5
f 25/25/2 29/29/2 50/50/2 42/42/2
f 29/29/1 39/39/1 49/49/1 50/50/1
f 38/38/6 31/31/6 22/22/6 28/28/6
f 40/40/5 32/32/5 23/23/5 30/30/5
f 32/32/3 34/34/3 24/24/3 23/23/3
f 1/1/1 2/2/1 22/22/1 21/21/1
f 7/7/3 8/8/3 34/34/3 32/32/3
f 19/19/5 7/7/5 32/32/5 40/40/5
f 15/15/6 4/4/6 31/31/6 38/38/6
f 17/17/6 10/10/6 35/35/6 39/39/6
f 13/13/5 9/9/5 36/36/5 37/37/5
f 3/3/5 13/13/5 37/37/5 33/33/5
f 10/10/6 15/15/6 38/38/6 35/35/6
f 8/8/6 17/17/6 39/39/6 34/34/6
f 9/9/5 19/19/5 40/40/5 36/36/5
f 21/21/1 22/22/1 31/31/1 33/33/1
f 43/43/5 51/51/5 52/52/5 44/44/5
f 41/41/6 47/47/6 48/48/6 42/42/6
f 45/45/5 43/43/5 44/44/5 46/46/5
f 49/49/6 41/41/6 42/42/6 50/50/6
f 40/40/1 30/30/1 52/52/1 51/51/1
f 39/39/4 35/35/4 41/41/4 49/49/4
f 27/27/3 37/37/3 45/45/3 46/46/3
f 30/30/2 26/26/2 44/44/2 52/52/2
f 37/37/4 36/36/4 43/43/4 45/45/4
f 38/38/3 28/28/3 48/48/3 47/47/3
f 26/26/2 27/27/2 46/46/2 44/44/2
f 36/36/4 40/40/4 51/51/4 43/43/4
