# Blender 3.4.1
# www.blender.org
mtllib Railing.mtl
o railing
v -2.115132 1.204916 -0.138313
v -2.115132 0.155095 -0.138313
v -2.115132 1.204916 -0.046528
v -2.115132 0.155095 -0.046528
v -0.014471 0.003553 -0.175756
v -0.014471 1.322351 -0.175756
v -0.014471 0.003553 -0.004012
v -0.014471 1.322351 -0.004012
v -2.114619 0.003553 -0.175756
v -2.114619 1.322351 -0.004012
v -2.114618 1.322351 -0.175756
v -2.114618 0.003553 -0.004012
v 2.229936 1.322351 -0.175756
v 2.229936 0.003553 -0.004012
v 2.229936 0.003553 -0.175756
v 2.229936 1.322351 -0.004012
v 0.132077 1.353094 -0.089884
v 2.229936 1.353094 -0.089884
v -2.040982 1.204916 -0.138313
v -2.040982 0.155095 -0.138313
v -0.014471 1.205262 -0.004012
v -0.014471 1.205262 -0.175756
v -2.114618 1.205262 -0.175756
v -2.114618 1.205262 -0.004012
v 2.229936 1.205262 -0.004012
v 2.229936 1.205262 -0.175756
v -2.114619 1.353094 -0.089884
v -2.040982 1.204916 -0.046528
v -2.040982 0.155095 -0.046528
v -0.014471 0.159641 -0.004012
v -0.014471 0.159641 -0.175756
v -2.114618 0.159641 -0.175756
v -2.114618 0.159641 -0.004012
v 2.229936 0.159641 -0.004012
v 2.229936 0.159641 -0.175756
v -0.014471 1.353094 -0.089884
v 0.132077 0.003553 -0.175756
v 0.132077 1.322351 -0.004012
v 0.132077 1.322351 -0.175756
v 0.132077 0.003553 -0.004012
v 0.132077 1.205262 -0.175756
v 0.132077 1.205262 -0.004012
v 0.132077 0.159641 -0.004012
v 0.132077 0.159641 -0.175756
v -1.508093 0.157048 -0.046528
v -1.508093 1.206870 -0.046528
v -1.508093 0.157048 -0.138313
v -1.508093 1.206870 -0.138313
v -1.421541 0.157048 -0.046528
v -1.421541 1.206870 -0.046528
v -1.421541 0.157048 -0.138313
v -1.421541 1.206870 -0.138313
v -0.810826 0.157048 -0.046528
v -0.810826 1.206870 -0.046528
v -0.810826 0.157048 -0.138313
v -0.810826 1.206870 -0.138313
v -0.724274 0.157048 -0.046528
v -0.724274 1.206870 -0.046528
v -0.724274 0.157048 -0.138313
v -0.724274 1.206870 -0.138313
v 0.825895 0.157048 -0.046528
v 0.825895 1.206870 -0.046528
v 0.825895 0.157048 -0.138313
v 0.825895 1.206870 -0.138313
v 0.912448 0.157048 -0.046528
v 0.912448 1.206870 -0.046528
v 0.912448 0.157048 -0.138313
v 0.912448 1.206870 -0.138313
v 1.523162 0.157048 -0.046528
v 1.523162 1.206870 -0.046528
v 1.523162 0.157048 -0.138313
v 1.523162 1.206870 -0.138313
v 1.609715 0.157048 -0.046528
v 1.609715 1.206870 -0.046528
v 1.609715 0.157048 -0.138313
v 1.609715 1.206870 -0.138313
v 2.155408 1.204916 -0.141138
v 2.155408 0.155095 -0.141138
v 2.155408 1.204916 -0.049353
v 2.155408 0.155095 -0.049353
v 2.229559 1.204916 -0.141138
v 2.229559 0.155095 -0.141138
v 2.229559 1.204916 -0.049353
v 2.229559 0.155095 -0.049353
vn -0.0000 -0.0000 -1.0000
vn 1.0000 -0.0000 -0.0000
vn -1.0000 -0.0000 -0.0000
vn -0.0000 0.9415 0.3371
vn -0.0000 -1.0000 -0.0000
vn -0.0000 -0.0000 1.0000
vn -0.0000 0.9415 -0.3371
vn -0.0000 1.0000 -0.0000
vt 0.625000 0.250000
vt 0.875000 0.500000
vt 0.375000 0.250000
vt 0.125000 0.500000
vt 0.625000 0.000000
vt 0.875000 0.750000
vt 0.625000 1.000000
vt 0.375000 0.000000
vt 0.125000 0.750000
vt 0.375000 1.000000
vt 0.375000 0.375000
vt 0.250000 0.500000
vt 0.750000 0.500000
vt 0.625000 0.375000
vt 0.375000 0.875000
vt 0.250000 0.750000
vt 0.750000 0.750000
vt 0.625000 0.875000
vt 0.187500 0.500000
vt 0.375000 0.312500
vt 0.812500 0.750000
vt 0.625000 0.937500
vt 0.812500 0.500000
vt 0.625000 0.312500
vt 0.187500 0.750000
vt 0.375000 0.937500
vt 0.625000 0.437500
vt 0.687500 0.500000
vt 0.312500 0.750000
vt 0.375000 0.812500
vt 0.312500 0.500000
vt 0.375000 0.437500
vt 0.625000 0.812500
vt 0.687500 0.750000
vt 0.718750 0.625000
vt 0.625000 0.625000
vt 0.687500 0.625000
vt 0.625000 0.500000
vt 0.375000 0.500000
vt 0.500000 0.875000
vt 0.500000 0.375000
vt 0.500000 0.312500
vt 0.500000 0.937500
vt 0.500000 0.812500
vt 0.500000 0.437500
vt 0.812500 0.625000
vt 0.625000 0.625000
vt 0.625000 0.750000
vt 0.375000 0.750000
vt 0.437500 0.875000
vt 0.437500 0.375000
vt 0.437500 0.312500
vt 0.437500 0.937500
vt 0.437500 0.812500
vt 0.437500 0.437500
vt 0.750000 0.625000
vt 0.375000 0.406250
vt 0.281250 0.500000
vt 0.625000 0.843750
vt 0.718750 0.750000
vt 0.718750 0.500000
vt 0.625000 0.406250
vt 0.375000 0.843750
vt 0.281250 0.750000
vt 0.500000 0.406250
vt 0.500000 0.843750
vt 0.437500 0.843750
vt 0.437500 0.406250
vt 0.375000 0.000000
vt 0.375000 1.000000
vt 0.125000 0.750000
vt 0.625000 0.000000
vt 0.625000 1.000000
vt 0.875000 0.750000
vt 0.375000 0.250000
vt 0.125000 0.500000
vt 0.625000 0.250000
vt 0.875000 0.500000
vt 0.375000 0.750000
vt 0.625000 0.750000
vt 0.375000 0.500000
vt 0.625000 0.500000
vt 0.375000 0.000000
vt 0.375000 1.000000
vt 0.125000 0.750000
vt 0.625000 0.000000
vt 0.625000 1.000000
vt 0.875000 0.750000
vt 0.375000 0.250000
vt 0.125000 0.500000
vt 0.625000 0.250000
vt 0.875000 0.500000
vt 0.375000 0.750000
vt 0.625000 0.750000
vt 0.375000 0.500000
vt 0.625000 0.500000
vt 0.375000 0.000000
vt 0.375000 1.000000
vt 0.125000 0.750000
vt 0.625000 0.000000
vt 0.625000 1.000000
vt 0.875000 0.750000
vt 0.375000 0.250000
vt 0.125000 0.500000
vt 0.625000 0.250000
vt 0.875000 0.500000
vt 0.375000 0.750000
vt 0.625000 0.750000
vt 0.375000 0.500000
vt 0.625000 0.500000
vt 0.375000 0.000000
vt 0.375000 1.000000
vt 0.125000 0.750000
vt 0.625000 0.000000
vt 0.625000 1.000000
vt 0.875000 0.750000
vt 0.375000 0.250000
vt 0.125000 0.500000
vt 0.625000 0.250000
vt 0.875000 0.500000
vt 0.375000 0.750000
vt 0.625000 0.750000
vt 0.375000 0.500000
vt 0.625000 0.500000
vt 0.625000 0.250000
vt 0.875000 0.500000
vt 0.375000 0.250000
vt 0.125000 0.500000
vt 0.625000 0.000000
vt 0.875000 0.750000
vt 0.625000 1.000000
vt 0.375000 0.000000
vt 0.125000 0.750000
vt 0.375000 1.000000
vt 0.625000 0.500000
vt 0.375000 0.500000
vt 0.625000 0.750000
vt 0.375000 0.750000
s 0
usemtl wall
f 2/3/1 1/1/1 19/38/1 20/39/1
f 20/39/2 19/38/2 28/48/2 29/49/2
f 4/8/3 3/5/3 1/1/3 2/3/3
f 17/35/4 36/56/4 8/17/4 38/60/4
f 9/19/5 5/12/5 7/16/5 12/25/5
f 42/66/6 38/59/6 8/18/6 21/40/6
f 23/42/1 11/24/1 6/14/1 22/41/1
f 6/13/7 11/23/7 27/46/7 36/56/7
f 2/4/5 20/39/5 29/49/5 4/9/5
f 36/56/4 27/46/4 10/21/4 8/17/4
f 21/40/6 8/18/6 10/22/6 24/43/6
f 37/58/5 15/31/5 14/29/5 40/64/5
f 41/65/1 39/62/1 13/27/1 26/45/1
f 9/19/3 12/25/3 33/53/3 32/52/3
f 30/50/3 21/40/3 22/41/3 31/51/3
f 16/33/2 25/44/2 26/45/2 13/27/2 18/36/2
f 32/52/8 33/53/8 30/50/8 31/51/8
f 43/67/6 42/66/6 21/40/6 30/50/6
f 14/29/2 15/31/2 35/55/2 34/54/2
f 13/28/7 39/61/7 17/35/7 18/37/7
f 19/38/8 1/2/8 3/6/8 28/48/8
f 29/49/6 28/48/6 3/7/6 4/10/6
f 40/63/6 43/67/6 30/50/6 7/15/6
f 9/20/1 32/52/1 31/51/1 5/11/1
f 39/61/7 6/13/7 36/56/7 17/35/7
f 7/15/6 30/50/6 33/53/6 12/26/6
f 37/57/1 44/68/1 35/55/1 15/32/1
f 5/11/1 31/51/1 44/68/1 37/57/1
f 14/30/6 34/54/6 43/67/6 40/63/6
f 41/65/5 26/45/5 25/44/5 42/66/5
f 31/51/1 22/41/1 41/65/1 44/68/1
f 22/41/1 6/14/1 39/62/1 41/65/1
f 5/12/5 37/58/5 40/64/5 7/16/5
f 25/44/6 16/33/6 38/59/6 42/66/6
f 18/37/4 17/35/4 38/60/4 16/34/4
f 44/68/8 43/67/8 34/54/8 35/55/8
f 21/40/5 24/43/5 23/42/5 22/41/5
f 11/24/3 23/42/3 24/43/3 10/22/3 27/47/3
f 45/69/3 46/72/3 48/77/3 47/75/3
f 47/75/1 48/77/1 52/82/1 51/81/1
f 51/81/2 52/82/2 50/80/2 49/79/2
f 49/79/6 50/80/6 46/73/6 45/70/6
f 47/76/5 51/81/5 49/79/5 45/71/5
f 52/82/8 48/78/8 46/74/8 50/80/8
f 53/83/3 54/86/3 56/91/3 55/89/3
f 55/89/1 56/91/1 60/96/1 59/95/1
f 59/95/2 60/96/2 58/94/2 57/93/2
f 57/93/6 58/94/6 54/87/6 53/84/6
f 55/90/5 59/95/5 57/93/5 53/85/5
f 60/96/8 56/92/8 54/88/8 58/94/8
f 61/97/3 62/100/3 64/105/3 63/103/3
f 63/103/1 64/105/1 68/110/1 67/109/1
f 67/109/2 68/110/2 66/108/2 65/107/2
f 65/107/6 66/108/6 62/101/6 61/98/6
f 63/104/5 67/109/5 65/107/5 61/99/5
f 68/110/8 64/106/8 62/102/8 66/108/8
f 69/111/3 70/114/3 72/119/3 71/117/3
f 71/117/1 72/119/1 76/124/1 75/123/1
f 75/123/2 76/124/2 74/122/2 73/121/2
f 73/121/6 74/122/6 70/115/6 69/112/6
f 71/118/5 75/123/5 73/121/5 69/113/5
f 76/124/8 72/120/8 70/116/8 74/122/8
f 43/67/2 44/68/2 41/65/2 42/66/2
f 78/127/1 77/125/1 81/135/1 82/136/1
f 82/136/2 81/135/2 83/137/2 84/138/2
f 80/132/3 79/129/3 77/125/3 78/127/3
f 78/128/5 82/136/5 84/138/5 80/133/5
f 81/135/8 77/126/8 79/130/8 83/137/8
f 84/138/6 83/137/6 79/131/6 80/134/6
