# Blender 3.4.1
# www.blender.org
mtllib signpost_arrow.mtl
o signpost
v -0.098973 -0.001890 0.001949
v -0.098973 -0.001890 -0.098051
v -0.098973 1.052666 -0.098051
v 0.101027 -0.001890 0.001949
v 0.101027 1.052666 0.001949
v 0.101027 -0.001890 -0.098051
v 0.101027 1.052666 -0.098051
v 0.101027 1.847041 -0.098051
v 0.101027 1.847041 0.001949
v -0.098973 1.052666 -0.098051
v 0.916493 1.052666 0.001949
v 0.916493 1.052666 -0.098051
v 0.916493 1.847041 -0.098051
v 0.916493 1.847041 0.001949
v -0.874438 1.052666 -0.098051
v -0.874438 1.052666 0.001949
v -0.874438 1.847041 0.001949
v -0.874438 1.847041 -0.098051
v 0.101027 1.974633 -0.098051
v -0.098973 1.974633 -0.098051
v -0.098973 1.974633 0.001949
v 0.101027 1.974633 0.001949
v -0.098973 1.009853 -0.098051
v 0.101027 1.009853 -0.098051
v 0.101027 1.009853 0.001949
v -0.098973 1.009853 0.001949
v -0.098973 1.889853 -0.098051
v 0.101027 1.889853 -0.098051
v 0.101027 1.889853 0.001949
v -0.098973 1.889853 0.001949
v -0.098973 1.009853 -0.098051
v -0.098973 1.889853 -0.098051
v -0.098973 1.009853 0.001949
v -0.098973 1.889853 0.001949
v 0.970008 1.889853 -0.098051
v 0.970008 1.009853 -0.098051
v 0.970008 1.009853 0.001949
v 0.970008 1.889853 0.001949
v -0.927954 1.889853 0.001949
v -0.927954 1.009853 0.001949
v -0.927954 1.009853 -0.098051
v -0.927954 1.889853 -0.098051
v -0.098973 1.847041 -0.098051
v -0.098973 1.052666 -0.098051
v -0.098973 1.052666 -0.098051
v -0.098973 1.052666 -0.020694
v 0.101027 1.052666 -0.020694
v 0.101027 1.847041 -0.020694
v -0.098973 1.847041 -0.020694
v 0.101027 1.052666 -0.075409
v -0.098973 1.052666 -0.075409
v -0.098973 1.847041 -0.075409
v 0.101027 1.847041 -0.075409
v -0.098973 1.052666 0.001949
v -0.098973 1.847041 0.001949
v 0.916493 1.847041 -0.075409
v 0.916493 1.052666 -0.075409
v 0.916493 1.052666 -0.020694
v 0.916493 1.847041 -0.020694
v -0.874438 1.847041 -0.020694
v -0.874438 1.052666 -0.020694
v -0.098973 1.052666 -0.020694
v -0.874438 1.052666 -0.075409
v -0.874438 1.847041 -0.075409
v 0.683197 1.350786 -0.097347
v 0.683197 1.350786 -0.075587
v -0.672441 1.450266 -0.097347
v -0.672441 1.450266 -0.075587
v 0.683197 1.549746 -0.097347
v 0.683197 1.549746 -0.075587
v -0.282667 1.270786 -0.097347
v -0.282667 1.270786 -0.075587
v -0.282667 1.629746 -0.097347
v -0.282667 1.629746 -0.075587
v -0.282667 1.350786 -0.097347
v -0.282667 1.549746 -0.075587
v -0.282667 1.350786 -0.075587
v -0.282667 1.549746 -0.097347
vn -1.0000 -0.0000 -0.0000
vn -0.0000 -0.0000 -1.0000
vn 1.0000 -0.0000 -0.0000
vn -0.0000 -0.0000 1.0000
vn -0.0000 -1.0000 -0.0000
vn -0.0000 1.0000 -0.0000
vn -0.4183 -0.9083 -0.0000
vn -0.4183 0.9083 -0.0000
vt 0.375000 0.000000
vt 0.375000 1.000000
vt 0.125000 0.750000
vt 0.375000 0.250000
vt 0.125000 0.500000
vt 0.000000 0.000000
vt 0.375000 0.750000
vt 0.625000 0.750000
vt 0.375000 0.500000
vt 0.625000 0.500000
vt 0.625000 0.500000
vt 0.625000 0.750000
vt 0.625000 0.250000
vt 0.625000 0.750000
vt 0.625000 0.500000
vt 0.625000 0.500000
vt 0.625000 0.750000
vt 0.625000 0.250000
vt 0.625000 0.000000
vt 0.625000 0.000000
vt 0.625000 0.250000
vt 0.625000 0.500000
vt 0.875000 0.500000
vt 0.875000 0.750000
vt 0.625000 0.750000
vt 0.625000 0.250000
vt 0.625000 0.500000
vt 0.625000 0.750000
vt 0.625000 0.000000
vt 0.625000 1.000000
vt 0.875000 0.500000
vt 0.625000 0.250000
vt 0.625000 0.500000
vt 0.625000 0.750000
vt 0.875000 0.750000
vt 0.625000 1.000000
vt 0.625000 0.250000
vt 0.875000 0.500000
vt 0.625000 0.250000
vt 0.625000 1.000000
vt 0.625000 0.000000
vt 0.875000 0.750000
vt 0.625000 1.000000
vt 0.625000 0.000000
vt 0.625000 0.500000
vt 0.625000 0.500000
vt 0.625000 0.750000
vt 0.625000 0.750000
vt 0.625000 0.000000
vt 0.625000 0.000000
vt 0.625000 0.250000
vt 0.625000 0.250000
vt 0.000000 0.000000
vt 0.625000 0.250000
vt 0.000000 0.000000
vt 0.625000 0.250000
vt 0.000000 0.000000
vt 0.625000 0.750000
vt 0.625000 0.750000
vt 0.000000 0.000000
vt 0.625000 0.000000
vt 0.625000 0.500000
vt 0.000000 0.000000
vt 0.625000 0.250000
vt 0.000000 0.000000
vt 0.625000 0.250000
vt 0.625000 0.500000
vt 0.000000 0.000000
vt 0.625000 0.000000
vt 0.000000 0.000000
vt 0.625000 0.000000
vt 0.625000 0.500000
vt 0.625000 0.500000
vt 0.625000 0.750000
vt 0.625000 0.750000
vt 0.625000 0.000000
vt 0.625000 0.000000
vt 0.625000 0.000000
vt 0.625000 0.250000
vt 0.625000 0.250000
vt 0.375000 1.000000
vt 0.125000 0.750000
vt 0.375000 0.000000
vt 0.625000 1.000000
vt 0.875000 0.750000
vt 0.625000 0.000000
vt 0.375000 0.250000
vt 0.375000 0.500000
vt 0.625000 0.250000
vt 0.875000 0.500000
vt 0.625000 0.500000
vt 0.375000 0.750000
vt 0.625000 0.750000
vt 0.375000 0.125000
vt 0.125000 0.625000
vt 0.625000 0.125000
vt 0.875000 0.625000
vt 0.375000 0.625000
vt 0.625000 0.625000
vt 0.375000 0.062500
vt 0.125000 0.687500
vt 0.625000 0.687500
vt 0.625000 0.062500
vt 0.875000 0.687500
vt 0.375000 0.687500
s 0
usemtl white
f 71/94/7 72/96/7 68/89/7 67/87/7
f 78/105/6 76/102/6 70/93/6 69/92/6
f 69/92/3 70/93/3 66/84/3 65/81/3
f 75/101/2 78/105/2 69/92/2 65/82/2
f 76/102/4 77/104/4 66/85/4 70/93/4
f 68/90/4 72/97/4 74/99/4
f 67/88/2 73/98/2 71/95/2
f 67/88/8 68/91/8 74/99/8 73/98/8
f 75/100/3 77/103/3 72/96/3 71/94/3
f 65/83/5 66/86/5 77/103/5 75/100/5
f 74/99/6 72/97/6 77/104/6 76/102/6
f 71/95/6 73/98/6 78/105/6 75/101/6
f 73/98/3 74/99/3 76/102/3 78/105/3
usemtl barrel
f 1/1/1 26/29/1 23/26/1 2/4/1
f 2/4/2 23/26/2 24/27/2 6/9/2
f 6/9/3 24/27/3 25/28/3 4/7/3
f 4/7/4 25/28/4 26/30/4 1/2/4
f 2/5/5 6/9/5 4/7/5 1/3/5
f 23/26/6 26/29/6 33/41/6 31/37/6
f 30/35/6 27/31/6 32/38/6 34/42/6
f 37/47/3 36/46/3 35/45/3 38/48/3
f 24/27/5 36/46/5 37/47/5 25/28/5
f 29/34/6 38/48/6 35/45/6 28/33/6
f 41/51/1 40/50/1 39/49/1 42/52/1
f 33/41/5 40/50/5 41/51/5 31/37/5
f 32/39/6 42/52/6 39/49/6 34/44/6
f 19/22/6 20/23/6 21/24/6 22/25/6
f 27/31/2 20/23/2 19/22/2 28/33/2
f 30/35/1 21/24/1 20/23/1 27/31/1
f 29/34/4 22/25/4 21/24/4 30/35/4
f 28/33/3 19/22/3 22/25/3 29/34/3
f 3/6/2 7/10/2 24/27/2 23/26/2
f 5/8/4 54/68/4 26/30/4 25/28/4
f 8/11/2 43/53/2 27/32/2 28/33/2
f 55/70/4 9/12/4 29/34/4 30/36/4
f 10/13/6 3/6/6 23/26/6 31/37/6
f 43/54/6 32/39/6 27/32/6
f 54/68/6 33/40/6 26/30/6
f 55/70/6 30/36/6 34/43/6
f 12/15/2 13/16/2 35/45/2 36/46/2
f 14/17/4 11/14/4 37/47/4 38/48/4
f 7/10/2 12/15/2 36/46/2 24/27/2
f 11/14/4 5/8/4 25/28/4 37/47/4
f 13/16/2 8/11/2 28/33/2 35/45/2
f 9/12/4 14/17/4 38/48/4 29/34/4
f 16/19/4 17/20/4 39/49/4 40/50/4
f 18/21/2 15/18/2 41/51/2 42/52/2
f 54/69/4 16/19/4 40/50/4 33/41/4
f 15/18/2 10/13/2 31/37/2 41/51/2
f 17/20/4 55/71/4 34/44/4 39/49/4
f 43/54/2 18/21/2 42/52/2 32/39/2
f 10/13/6 45/56/6 44/55/6 3/6/6
f 46/57/4 47/58/4 48/59/4 49/60/4
f 5/8/6 47/58/6 46/57/6 54/68/6
f 55/70/5 49/60/5 48/59/5 9/12/5
f 50/62/2 51/63/2 52/65/2 53/67/2
f 3/6/6 51/63/6 50/62/6 7/10/6
f 8/11/5 53/67/5 52/65/5 43/53/5
f 53/67/2 56/72/2 57/73/2 50/62/2
f 13/16/5 56/72/5 53/67/5 8/11/5
f 12/15/1 57/73/1 56/72/1 13/16/1
f 7/10/6 50/62/6 57/73/6 12/15/6
f 47/58/4 58/74/4 59/75/4 48/59/4
f 11/14/6 58/74/6 47/58/6 5/8/6
f 14/17/1 59/75/1 58/74/1 11/14/1
f 9/12/5 48/59/5 59/75/5 14/17/5
f 49/61/4 60/76/4 61/77/4 62/78/4
f 17/20/5 60/76/5 49/61/5 55/71/5
f 16/19/3 61/77/3 60/76/3 17/20/3
f 54/69/6 62/78/6 61/77/6 16/19/6
f 51/64/2 63/79/2 64/80/2 52/66/2
f 15/18/6 63/79/6 51/64/6 10/13/6
f 18/21/3 64/80/3 63/79/3 15/18/3
f 43/54/5 52/66/5 64/80/5 18/21/5
