# Blender 3.4.1
# www.blender.org
mtllib Wall.mtl
o wall
v 4.140846 2.987108 -0.093875
v 4.140846 2.987108 0.838448
v -3.874683 2.987108 -0.093875
v -3.874683 2.987108 0.838448
v -0.793713 2.987108 0.838448
v -0.793713 2.987108 -0.093875
v -3.649319 2.987108 0.838448
v -3.649319 2.987108 -0.093875
v 3.915482 2.987108 -0.093875
v 3.915482 2.987108 0.838448
v 4.521530 2.845447 -0.093875
v -4.221534 2.845447 0.838448
v 4.521530 2.845447 0.838448
v -4.221534 2.845447 -0.093875
v -0.793713 2.845447 -0.093875
v -0.793713 2.845447 0.838448
v -3.649319 2.845447 -0.093875
v -3.649319 2.845447 0.838448
v 3.915482 2.845447 0.838448
v 3.915482 2.845447 -0.093875
v 4.521530 0.169098 -0.093875
v 4.521530 0.169098 0.838448
v -4.221534 0.169098 -0.093875
v -0.793713 0.169098 -0.093875
v -0.793713 0.169098 0.838448
v -3.649319 0.169098 -0.093875
v -3.649319 0.169098 0.838448
v 3.915482 0.169098 0.838448
v 3.915482 0.169098 -0.093875
v -4.221534 0.169098 0.838448
v -0.793713 2.845447 0.739446
v -3.649319 2.845447 0.739446
v 3.915482 2.845447 0.739446
v -0.793713 0.169098 0.739446
v -3.649319 0.169098 0.739446
v 3.915482 0.169098 0.739446
v -0.793713 2.845447 0.004207
v 3.915482 2.845447 0.004207
v -3.649319 2.845447 0.004207
v -0.793713 0.169098 0.004207
v -3.649319 0.169098 0.004207
v 3.915482 0.169098 0.004207
v -4.221678 2.845447 0.904856
v -4.221678 2.987108 0.904856
v -3.649319 2.987108 0.906769
v 4.521533 2.987108 -0.162158
v 4.521533 2.987108 0.906732
v -4.221678 2.987108 -0.160283
v 3.915482 2.987108 -0.162196
v 3.915482 2.987108 0.906769
v -0.793713 2.987108 0.906769
v -3.649319 2.987108 -0.162196
v -0.793713 2.987108 -0.162196
v 4.521533 2.845447 -0.162158
v 4.521533 2.845447 0.906732
v -4.221678 2.845447 -0.160283
v -0.793713 2.845447 -0.162196
v -0.793713 2.845447 0.906769
v -3.649319 2.845447 -0.162196
v -3.649319 2.845447 0.906769
v 3.915482 2.845447 0.906769
v 3.915482 2.845447 -0.162196
v -2.122968 0.169098 -0.093875
v -2.122968 0.169098 0.838448
v -2.122968 0.169098 0.739446
v -2.122968 0.169098 0.004207
v 2.373521 0.169098 0.838448
v 2.373521 0.169098 -0.093875
v 2.373521 0.169098 0.739446
v 2.373521 0.169098 0.004207
v -4.221899 -0.012892 -0.160511
v -4.221899 -0.012892 0.905085
v -3.649319 -0.012891 -0.162508
v 4.521538 0.169098 -0.162388
v 4.521538 -0.012892 -0.162388
v 4.521538 0.169098 0.906961
v 4.521538 -0.012892 0.906961
v -4.221899 0.169098 -0.160511
v 3.915482 -0.012891 0.907082
v 2.373521 -0.012892 -0.162508
v -0.793713 -0.012892 -0.162508
v -2.122968 -0.012892 0.907082
v -0.793713 -0.012892 0.907082
v -0.793713 0.169098 -0.162508
v -0.793713 0.169098 0.907082
v -2.122968 -0.012892 -0.162508
v -3.649319 -0.012891 0.907082
v -3.649319 0.169098 -0.162508
v -3.649319 0.169098 0.907082
v 2.373521 -0.012892 0.907082
v 3.915482 -0.012891 -0.162508
v 3.915482 0.169098 0.907082
v 3.915482 0.169098 -0.162508
v -4.221899 0.169098 0.905085
v -2.122968 0.169098 -0.162508
v 2.373521 0.169098 0.907082
v -2.122968 0.169098 0.907082
v 2.373521 0.169098 -0.162508
v 1.136790 0.169098 -0.162508
v 1.136790 -0.012892 0.907082
v 1.136790 0.169098 0.907082
v 1.136790 -0.012892 -0.162508
v 1.136790 0.169098 0.004207
v 1.136790 0.169098 -0.093875
v 1.144937 2.845447 0.906769
v 1.144937 2.845447 -0.162196
v 1.144937 2.987108 -0.162196
v 1.144937 2.987108 0.906769
v 1.144937 2.845447 0.004207
v 1.136790 0.169098 0.739446
v 1.144937 2.845447 0.739446
v 1.136790 0.169098 0.838448
v 1.144937 2.845447 0.838448
v 1.144937 2.845447 -0.093875
v 1.144937 2.987108 -0.093875
v 1.144937 2.987108 0.838448
v 2.389560 2.987108 -0.093875
v 2.389560 2.845447 -0.093875
v 2.389560 2.845447 0.004207
v 2.389560 2.987108 -0.162196
v 2.389560 2.845447 -0.162196
v 2.389560 2.845447 0.906769
v 2.389560 2.845447 0.739446
v 2.389560 2.987108 0.906769
v 2.389560 2.987108 0.838448
v 2.389560 2.845447 0.838448
v -2.129648 2.987108 -0.093875
v -2.129648 2.987108 0.838448
v -2.129648 2.845447 0.838448
v -2.129648 2.845447 -0.093875
v -2.129648 2.845447 0.739446
v -2.129648 2.845447 0.004207
v -2.129648 2.987108 -0.162196
v -2.129648 2.987108 0.906769
v -2.129648 2.845447 0.906769
v -2.129648 2.845447 -0.162196
v 1.136790 0.169098 -0.090246
v 1.144937 2.845447 -0.090246
v 2.389560 2.845447 -0.090246
v 2.373521 0.169098 -0.090246
v 2.373521 0.169098 0.833898
v 2.389560 2.845447 0.833898
v 1.144937 2.845447 0.833898
v 1.136790 0.169098 0.833898
v -2.122968 0.169098 0.833898
v -0.793713 0.169098 0.833898
v -0.793713 2.845447 0.833898
v -2.129648 2.845447 0.833898
v -2.122968 0.169098 -0.090246
v -2.129648 2.845447 -0.090246
v -0.793713 2.845447 -0.090246
v -0.793713 0.169098 -0.090246
vn -0.0000 1.0000 -0.0000
vn -0.0000 -1.0000 -0.0000
vn -0.1240 -0.9923 -0.0000
vn 1.0000 -0.0000 -0.0000
vn -0.0000 -0.0000 1.0000
vn -0.0000 -0.0000 -1.0000
vn -1.0000 -0.0000 -0.0000
vn -0.0033 -0.0000 1.0000
vn 0.0001 -0.0000 -1.0000
vn -0.0033 -0.0000 -1.0000
vn 0.0001 -0.0000 1.0000
vn -0.0035 -0.0000 1.0000
vn 0.0002 -0.0000 -1.0000
vn -0.0035 -0.0000 -1.0000
vn 0.0002 -0.0000 1.0000
vn -1.0000 0.0030 -0.0000
vn 1.0000 -0.0060 -0.0000
vn -1.0000 -0.0025 -0.0000
vt 0.625000 0.500000
vt 0.625000 0.750000
vt 0.875000 0.500000
vt 0.875000 0.750000
vt 0.750000 0.750000
vt 0.750000 0.500000
vt 0.812500 0.750000
vt 0.812500 0.500000
vt 0.687500 0.500000
vt 0.687500 0.750000
vt 0.500000 0.500000
vt 0.500000 0.000000
vt 0.500000 1.000000
vt 0.500000 0.750000
vt 0.500000 0.250000
vt 0.500000 0.375000
vt 0.500000 0.875000
vt 0.500000 0.312500
vt 0.500000 0.937500
vt 0.500000 0.812500
vt 0.500000 0.437500
vt 0.437500 0.500000
vt 0.437500 0.750000
vt 0.437500 0.250000
vt 0.437500 0.375000
vt 0.437500 0.875000
vt 0.437500 0.312500
vt 0.437500 0.937500
vt 0.437500 0.812500
vt 0.437500 0.437500
vt 0.437500 0.000000
vt 0.437500 1.000000
vt 0.500000 0.875000
vt 0.500000 0.937500
vt 0.500000 0.812500
vt 0.437500 0.875000
vt 0.437500 0.937500
vt 0.437500 0.812500
vt 0.500000 0.375000
vt 0.500000 0.437500
vt 0.500000 0.312500
vt 0.437500 0.375000
vt 0.437500 0.312500
vt 0.437500 0.437500
vt 0.500000 1.000000
vt 0.500000 0.000000
vt 0.625000 1.000000
vt 0.625000 0.000000
vt 0.875000 0.750000
vt 0.625000 0.937500
vt 0.812500 0.750000
vt 0.625000 0.500000
vt 0.625000 0.750000
vt 0.875000 0.500000
vt 0.625000 0.250000
vt 0.625000 0.437500
vt 0.687500 0.500000
vt 0.687500 0.750000
vt 0.625000 0.812500
vt 0.750000 0.750000
vt 0.625000 0.875000
vt 0.812500 0.500000
vt 0.625000 0.312500
vt 0.625000 0.375000
vt 0.750000 0.500000
vt 0.500000 0.500000
vt 0.500000 0.750000
vt 0.500000 0.250000
vt 0.500000 0.375000
vt 0.500000 0.875000
vt 0.500000 0.312500
vt 0.500000 0.937500
vt 0.500000 0.812500
vt 0.500000 0.437500
vt 0.437500 0.343750
vt 0.437500 0.906250
vt 0.437500 0.906250
vt 0.437500 0.343750
vt 0.437500 0.843750
vt 0.437500 0.406250
vt 0.437500 0.843750
vt 0.437500 0.406250
vt 0.375000 0.250000
vt 0.375000 1.000000
vt 0.375000 0.000000
vt 0.375000 0.312500
vt 0.437500 0.500000
vt 0.375000 0.500000
vt 0.437500 0.750000
vt 0.375000 0.750000
vt 0.437500 0.250000
vt 0.375000 0.812500
vt 0.375000 0.406250
vt 0.375000 0.375000
vt 0.375000 0.906250
vt 0.375000 0.875000
vt 0.437500 0.375000
vt 0.437500 0.875000
vt 0.375000 0.343750
vt 0.375000 0.937500
vt 0.437500 0.312500
vt 0.437500 0.937500
vt 0.375000 0.843750
vt 0.375000 0.437500
vt 0.437500 0.812500
vt 0.437500 0.437500
vt 0.437500 1.000000
vt 0.437500 0.000000
vt 0.437500 0.343750
vt 0.437500 0.843750
vt 0.437500 0.906250
vt 0.437500 0.406250
vt 0.437500 0.390625
vt 0.375000 0.859375
vt 0.437500 0.859375
vt 0.375000 0.390625
vt 0.437500 0.390625
vt 0.437500 0.390625
vt 0.500000 0.843750
vt 0.500000 0.406250
vt 0.718750 0.500000
vt 0.625000 0.406250
vt 0.625000 0.843750
vt 0.718750 0.750000
vt 0.500000 0.406250
vt 0.437500 0.859375
vt 0.500000 0.843750
vt 0.437500 0.859375
vt 0.500000 0.843750
vt 0.500000 0.406250
vt 0.718750 0.500000
vt 0.718750 0.750000
vt 0.703125 0.500000
vt 0.500000 0.421875
vt 0.500000 0.421875
vt 0.703125 0.500000
vt 0.625000 0.421875
vt 0.500000 0.421875
vt 0.500000 0.828125
vt 0.500000 0.828125
vt 0.703125 0.750000
vt 0.625000 0.828125
vt 0.703125 0.750000
vt 0.500000 0.828125
vt 0.781250 0.500000
vt 0.781250 0.750000
vt 0.500000 0.906250
vt 0.500000 0.343750
vt 0.500000 0.906250
vt 0.500000 0.343750
vt 0.781250 0.500000
vt 0.625000 0.343750
vt 0.781250 0.750000
vt 0.625000 0.906250
vt 0.500000 0.906250
vt 0.500000 0.343750
vt 0.437500 0.390625
vt 0.500000 0.406250
vt 0.500000 0.421875
vt 0.437500 0.406250
vt 0.437500 0.843750
vt 0.500000 0.828125
vt 0.500000 0.843750
vt 0.437500 0.859375
vt 0.437500 0.906250
vt 0.437500 0.875000
vt 0.500000 0.875000
vt 0.500000 0.906250
vt 0.437500 0.343750
vt 0.500000 0.343750
vt 0.500000 0.375000
vt 0.437500 0.375000
s 0
usemtl wall
f 8/8/1 3/3/1 4/4/1 7/7/1
f 129/147/2 16/17/2 58/70/2 135/155/2
f 12/13/2 18/19/2 60/72/2 43/45/2
f 19/20/2 13/14/2 55/67/2 61/73/2
f 9/9/1 1/1/1 46/52/1 49/57/1
f 14/15/2 12/12/2 43/46/2 56/68/2
f 114/130/2 15/16/2 57/69/2 106/120/2
f 115/131/1 6/6/1 5/5/1 116/132/1
f 4/4/1 3/3/1 48/54/1 44/49/1
f 2/2/1 10/10/1 50/58/1 47/53/1
f 127/145/1 8/8/1 7/7/1 128/146/1
f 1/1/1 9/9/1 10/10/1 2/2/1
f 13/14/3 11/11/3 54/66/3 55/67/3
f 3/3/1 8/8/1 52/62/1 48/54/1
f 26/27/4 17/18/4 39/41/4 41/43/4
f 22/23/5 13/14/5 19/20/5 28/29/5
f 113/129/2 16/17/2 31/33/2 111/127/2
f 23/24/6 14/15/6 17/18/6 26/27/6
f 28/29/7 19/20/7 33/35/7 36/38/7
f 130/148/2 15/16/2 37/39/2 132/150/2
f 29/30/6 20/21/6 11/11/6 21/22/6
f 21/22/4 11/11/4 13/14/4 22/23/4
f 30/31/7 12/12/7 14/15/7 23/24/7
f 27/28/5 18/19/5 12/13/5 30/32/5
f 30/31/1 23/24/1 78/91/1 94/108/1
f 27/28/1 30/32/1 94/107/1 89/102/1
f 68/80/1 29/30/1 93/106/1 98/112/1
f 22/23/1 28/29/1 92/105/1 76/89/1
f 65/77/5 131/149/5 32/34/5 35/37/5
f 129/147/2 18/19/2 32/34/2 131/149/2
f 64/76/1 25/26/1 34/36/1 65/77/1
f 18/19/4 27/28/4 35/37/4 32/34/4
f 67/79/1 28/29/1 36/38/1 69/81/1
f 70/82/6 119/135/6 38/40/6 42/44/6
f 40/42/6 37/39/6 109/125/6 103/117/6
f 63/75/1 26/27/1 41/43/1 66/78/1
f 118/134/2 20/21/2 38/40/2 119/135/2
f 104/118/1 24/25/1 40/42/1 103/117/1
f 20/21/7 29/30/7 42/44/7 38/40/7
f 60/72/8 45/50/8 44/47/8 43/45/8
f 43/46/7 44/48/7 48/55/7 56/68/7
f 54/66/4 46/52/4 47/53/4 55/67/4
f 62/74/9 49/56/9 46/52/9 54/66/9
f 136/156/6 133/152/6 53/64/6 57/69/6
f 105/119/5 108/123/5 51/61/5 58/70/5
f 56/68/10 48/55/10 52/63/10 59/71/10
f 135/155/5 134/154/5 45/50/5 60/72/5
f 55/67/11 47/53/11 50/59/11 61/73/11
f 121/138/6 120/137/6 49/56/6 62/74/6
f 17/18/2 14/15/2 56/68/2 59/71/2
f 126/144/2 19/20/2 61/73/2 122/139/2
f 116/132/1 5/5/1 51/60/1 108/124/1
f 7/7/1 4/4/1 44/49/1 45/51/1
f 128/146/1 7/7/1 45/51/1 134/153/1
f 130/148/2 17/18/2 59/71/2 136/156/2
f 117/133/1 9/9/1 49/57/1 120/136/1
f 1/1/1 2/2/1 47/53/1 46/52/1
f 11/11/2 20/21/2 62/74/2 54/66/2
f 127/145/1 6/6/1 53/65/1 133/151/1
f 24/25/1 63/75/1 66/78/1 40/42/1
f 27/28/1 64/76/1 65/77/1 35/37/1
f 25/26/1 64/76/1 97/111/1 85/98/1
f 29/30/1 68/80/1 70/82/1 42/44/1
f 112/128/1 67/79/1 69/81/1 110/126/1
f 64/76/1 27/28/1 89/102/1 97/111/1
f 26/27/1 63/75/1 95/109/1 88/101/1
f 87/100/12 89/102/12 94/107/12 72/84/12
f 72/85/7 94/108/7 78/91/7 71/83/7
f 75/88/4 74/87/4 76/89/4 77/90/4
f 91/104/13 93/106/13 74/87/13 75/88/13
f 86/99/6 95/109/6 84/97/6 81/94/6
f 100/114/5 101/115/5 85/98/5 83/96/5
f 71/83/14 78/91/14 88/101/14 73/86/14
f 82/95/5 97/111/5 89/102/5 87/100/5
f 77/90/15 76/89/15 92/105/15 79/92/15
f 80/93/6 98/112/6 93/106/6 91/104/6
f 83/96/5 85/98/5 97/111/5 82/95/5
f 73/86/6 88/101/6 95/109/6 86/99/6
f 102/116/6 99/113/6 98/112/6 80/93/6
f 79/92/5 92/105/5 96/110/5 90/103/5
f 21/22/1 22/23/1 76/89/1 74/87/1
f 29/30/1 21/22/1 74/87/1 93/106/1
f 63/75/1 24/25/1 84/97/1 95/109/1
f 28/29/1 67/79/1 96/110/1 92/105/1
f 112/128/1 25/26/1 85/98/1 101/115/1
f 104/118/1 68/80/1 98/112/1 99/113/1
f 23/24/1 26/27/1 88/101/1 78/91/1
f 68/80/1 104/118/1 103/117/1 70/82/1
f 122/139/5 124/142/5 108/123/5 105/119/5
f 125/143/1 116/132/1 108/124/1 124/141/1
f 25/26/1 112/128/1 110/126/1 34/36/1
f 90/103/5 96/110/5 101/115/5 100/114/5
f 24/25/1 104/118/1 99/113/1 84/97/1
f 57/69/6 53/64/6 107/122/6 106/120/6
f 67/79/1 112/128/1 101/115/1 96/110/1
f 81/94/6 84/97/6 99/113/6 102/116/6
f 6/6/1 115/131/1 107/121/1 53/65/1
f 16/17/2 113/129/2 105/119/2 58/70/2
f 15/16/2 114/130/2 109/125/2 37/39/2
f 41/43/6 39/41/6 132/150/6 66/78/6
f 126/144/2 113/129/2 111/127/2 123/140/2
f 117/133/1 115/131/1 116/132/1 125/143/1
f 118/134/2 114/130/2 106/120/2 121/138/2
f 20/21/2 118/134/2 121/138/2 62/74/2
f 9/9/1 117/133/1 125/143/1 10/10/1
f 19/20/2 126/144/2 123/140/2 33/35/2
f 10/10/1 125/143/1 124/141/1 50/58/1
f 61/73/5 50/59/5 124/142/5 122/139/5
f 115/131/1 117/133/1 120/136/1 107/121/1
f 113/129/2 126/144/2 122/139/2 105/119/2
f 106/120/6 107/122/6 120/137/6 121/138/6
f 114/130/2 118/134/2 119/135/2 109/125/2
f 8/8/1 127/145/1 133/151/1 52/62/1
f 15/16/2 130/148/2 136/156/2 57/69/2
f 5/5/1 128/146/1 134/153/1 51/60/1
f 58/70/5 51/61/5 134/154/5 135/155/5
f 59/71/6 52/63/6 133/152/6 136/156/6
f 16/17/2 129/147/2 131/149/2 31/33/2
f 17/18/2 130/148/2 132/150/2 39/41/2
f 6/6/1 127/145/1 128/146/1 5/5/1
f 18/19/2 129/147/2 135/155/2 60/72/2
f 36/38/5 33/35/5 123/140/5 69/81/5
f 31/33/5 34/36/5 110/126/5 111/127/5
f 137/157/6 138/158/6 139/159/6 140/160/6
f 109/125/16 138/158/16 137/157/16 103/117/16
f 119/135/1 139/159/1 138/158/1 109/125/1
f 70/82/17 140/160/17 139/159/17 119/135/17
f 103/117/2 137/157/2 140/160/2 70/82/2
f 141/161/5 142/162/5 143/163/5 144/164/5
f 123/140/17 142/162/17 141/161/17 69/81/17
f 111/127/1 143/163/1 142/162/1 123/140/1
f 110/126/16 144/164/16 143/163/16 111/127/16
f 69/81/2 141/161/2 144/164/2 110/126/2
f 145/165/5 146/166/5 147/167/5 148/168/5
f 34/36/2 146/166/2 145/165/2 65/77/2
f 31/33/4 147/167/4 146/166/4 34/36/4
f 131/149/1 148/168/1 147/167/1 31/33/1
f 65/77/18 145/165/18 148/168/18 131/149/18
f 149/169/6 150/170/6 151/171/6 152/172/6
f 132/150/18 150/170/18 149/169/18 66/78/18
f 37/39/1 151/171/1 150/170/1 132/150/1
f 40/42/4 152/172/4 151/171/4 37/39/4
f 66/78/2 149/169/2 152/172/2 40/42/2
