# Blender 3.4.1
# www.blender.org
mtllib 4x4_roof_corner.mtl
o roof
v 0.000000 -0.001667 0.004000
v 0.000000 4.000000 -3.990999
v 4.000000 -0.000001 0.004000
v 0.200000 4.000000 -3.990999
v 0.000000 -0.001667 -0.596000
v 0.000000 3.400000 -3.990999
v 0.200000 3.400000 -3.990999
v 3.400000 -0.000001 -0.596000
v 0.200000 4.000000 -3.795999
v 0.000000 3.998334 -3.795999
v 0.200000 3.400000 -3.795999
v -0.000000 3.400000 -3.795999
v -0.000000 4.001666 -3.796000
v 4.000000 0.001665 -3.986000
v 3.400000 0.001665 -3.986000
vn -0.0000 -0.0000 -1.0000
vn -1.0000 -0.0000 -0.0000
vn 0.0005 -1.0000 -0.0002
vn -0.0005 0.6886 0.7251
vn -0.0000 -1.0000 -0.0000
vn -0.0005 -0.6853 -0.7282
vn -0.0006 -0.6853 -0.7282
vn 0.0003 -0.6852 -0.7284
vn -0.0000 1.0000 -0.0000
vn 0.7250 0.6888 -0.0000
vn 0.7249 0.6889 0.0003
vn -0.7280 -0.6855 -0.0003
vn 0.0007 -0.0007 -1.0000
vt 0.125000 0.750000
vt 0.625000 0.250000
vt 0.625000 0.500000
vt 0.375000 0.750000
vt 0.125000 0.750000
vt 0.625000 0.500000
vt 0.500000 0.625000
vt 0.125000 0.625000
vt 0.375000 0.125000
vt 0.500000 0.250000
vt 0.500000 0.500000
vt 0.500000 0.500000
vt 0.437500 0.562500
vt 0.375000 0.625000
vt 0.125000 0.625000
vt 0.375000 0.125000
vt 0.500000 0.625000
vt 0.375000 0.500000
vt 0.375000 0.500000
vt 0.437500 0.562500
vt 0.437500 0.187500
vt 0.437500 0.187500
vt 0.500000 0.250000
vt 0.625000 0.250000
vt 0.375000 0.750000
vt 0.375000 0.625000
s 0
usemtl metal.002
f 6/10/1 2/2/1 4/6/1 7/12/1
f 12/22/2 10/19/2 2/2/2 6/10/2
f 5/8/3 8/14/3 3/4/3 1/1/3
f 9/17/4 10/19/4 1/1/4 3/4/4
f 11/20/5 12/22/5 6/10/5 7/12/5
f 8/14/6 5/9/7 12/22/7 11/20/8
f 4/6/9 2/2/9 10/19/9 9/17/9
f 5/9/2 1/1/2 10/19/2 12/22/2
f 12/23/2 13/24/2 2/3/2 6/11/2
f 8/15/5 15/26/5 14/25/5 3/5/5
f 4/7/10 9/18/10 3/5/11 14/25/11
f 15/26/12 8/16/12 11/21/12 7/13/12
f 2/3/9 13/24/9 9/18/9 4/7/9
f 14/25/13 15/26/13 7/13/13 4/7/13
