# Blender 3.4.1
# www.blender.org
mtllib 4x4_wall.mtl
o wall
v -0.000001 -0.000000 -0.099141
v -0.000001 4.000000 -0.099141
v -0.000001 -0.000000 -0.499141
v -0.000001 4.000000 -0.499141
v 3.999999 -0.000000 -0.099141
v 3.999999 4.000000 -0.099141
v 3.999999 -0.000000 -0.499141
v 3.999999 4.000000 -0.499141
v -0.000001 0.200000 -0.099141
v -0.000001 0.200000 -0.499141
v 3.999999 0.200000 -0.499141
v 3.999999 0.200000 -0.099141
v -0.000001 3.800000 -0.099141
v -0.000001 3.800000 -0.499141
v 3.999999 3.800000 -0.499141
v 3.999999 3.800000 -0.099141
v -0.000001 3.800000 -0.602641
v -0.000001 4.000000 -0.602641
v 3.999999 4.000000 -0.602641
v 3.999999 3.800000 -0.602641
v 3.999999 3.800000 0.004359
v 3.999999 4.000000 0.004359
v -0.000001 4.000000 0.004359
v -0.000001 3.800000 0.004359
v 3.999999 -0.000000 0.004359
v 3.999999 0.200000 0.004359
v -0.000001 0.200000 0.004359
v -0.000001 -0.000000 0.004359
v -0.000001 -0.000000 -0.602641
v -0.000001 0.200000 -0.602641
v 3.999999 0.200000 -0.602641
v 3.999999 -0.000000 -0.602641
vn -1.0000 -0.0000 -0.0000
vn 1.0000 -0.0000 -0.0000
vn -0.0000 -1.0000 -0.0000
vn -0.0000 1.0000 -0.0000
vn -0.0000 -0.0000 1.0000
vn -0.0000 -0.0000 -1.0000
vt 0.125000 0.750000
vt 0.375000 0.000000
vt 0.375000 1.000000
vt 0.625000 0.000000
vt 0.875000 0.750000
vt 0.625000 1.000000
vt 0.125000 0.500000
vt 0.375000 0.250000
vt 0.875000 0.500000
vt 0.625000 0.250000
vt 0.375000 0.750000
vt 0.625000 0.750000
vt 0.375000 0.500000
vt 0.625000 0.500000
vt 0.500000 0.000000
vt 0.500000 1.000000
vt 0.500000 0.250000
vt 0.500000 0.500000
vt 0.500000 0.750000
vt 0.562500 0.000000
vt 0.562500 1.000000
vt 0.562500 0.250000
vt 0.562500 0.500000
vt 0.562500 0.750000
vt 0.562500 0.250000
vt 0.625000 0.250000
vt 0.625000 0.500000
vt 0.562500 0.500000
vt 0.562500 0.750000
vt 0.625000 0.750000
vt 0.625000 1.000000
vt 0.562500 1.000000
vt 0.375000 0.750000
vt 0.500000 0.750000
vt 0.500000 1.000000
vt 0.375000 1.000000
vt 0.375000 0.250000
vt 0.500000 0.250000
vt 0.500000 0.500000
vt 0.375000 0.500000
s 0
usemtl metal
f 13/20/1 2/4/1 4/10/1 14/22/1
f 15/23/2 8/14/2 6/12/2 16/24/2
f 3/7/3 7/13/3 5/11/3 1/1/3
f 8/14/4 4/9/4 2/5/4 6/12/4
f 7/13/2 11/18/2 12/19/2 5/11/2
f 1/2/1 9/15/1 10/17/1 3/8/1
f 12/19/5 16/24/5 13/21/5 9/16/5
f 11/18/2 15/23/2 16/24/2 12/19/2
f 10/17/6 14/22/6 15/23/6 11/18/6
f 9/15/1 13/20/1 14/22/1 10/17/1
f 17/25/6 18/26/6 19/27/6 20/28/6
f 4/10/1 18/26/1 17/25/1 14/22/1
f 8/14/4 19/27/4 18/26/4 4/10/4
f 15/23/2 20/28/2 19/27/2 8/14/2
f 14/22/3 17/25/3 20/28/3 15/23/3
f 21/29/5 22/30/5 23/31/5 24/32/5
f 6/12/2 22/30/2 21/29/2 16/24/2
f 2/6/4 23/31/4 22/30/4 6/12/4
f 13/21/1 24/32/1 23/31/1 2/6/1
f 16/24/3 21/29/3 24/32/3 13/21/3
f 25/33/5 26/34/5 27/35/5 28/36/5
f 12/19/2 26/34/2 25/33/2 5/11/2
f 9/16/4 27/35/4 26/34/4 12/19/4
f 1/3/1 28/36/1 27/35/1 9/16/1
f 5/11/3 25/33/3 28/36/3 1/3/3
f 29/37/6 30/38/6 31/39/6 32/40/6
f 10/17/1 30/38/1 29/37/1 3/8/1
f 11/18/4 31/39/4 30/38/4 10/17/4
f 7/13/2 32/40/2 31/39/2 11/18/2
f 3/8/3 29/37/3 32/40/3 7/13/3
